<svg width="11" height="10" viewBox="0 0 11 10" fill="none" xmlns="http://www.w3.org/2000/svg">
<path d="M1 4C0.447715 4 0 4.44772 0 5C0 5.55228 0.447715 6 1 6V4ZM10 5L10.6936 5.72032C10.8894 5.53182 11 5.27176 11 5C11 4.72824 10.8894 4.46818 10.6936 4.27968L10 5ZM6.5398 0.27968C6.14197 -0.103408 5.50892 -0.0914636 5.12583 0.306358C4.74275 0.70418 4.75469 1.33723 5.15251 1.72032L6.5398 0.27968ZM5.15251 8.27968C4.75469 8.66277 4.74275 9.29582 5.12583 9.69364C5.50892 10.0915 6.14197 10.1034 6.5398 9.72032L5.15251 8.27968ZM1 6H10V4H1V6ZM5.15251 1.72032L9.30636 5.72032L10.6936 4.27968L6.5398 0.27968L5.15251 1.72032ZM9.30636 4.27968L5.15251 8.27968L6.5398 9.72032L10.6936 5.72032L9.30636 4.27968Z" fill="#F76149"/>
</svg>
