<svg width="70" height="80" viewBox="0 0 70 80" fill="none" xmlns="http://www.w3.org/2000/svg">
<rect y="31.3105" width="48" height="48" rx="8" fill="#222C45"/>
<path d="M55.2283 13.8954C54.4615 13.7204 53.6705 13.4774 52.8794 13.639C51.3179 13.9282 49.9886 15.2284 49.7273 16.8069C49.4418 18.1095 49.9934 19.4279 50.8015 20.4329C51.1478 20.8472 51.5099 21.281 51.9911 21.5423C52.2864 21.7185 52.6412 21.5666 52.9475 21.6991C53.0726 21.8522 53.2039 22.0004 53.3339 22.1499C53.6996 22.1608 54.0642 22.1803 54.4141 22.2993C54.4992 22.2349 54.5867 22.1705 54.6718 22.1086C54.7106 22.0806 54.7896 22.0247 54.8285 21.9956C55.1772 21.676 55.6949 21.9275 56.0825 21.7003C56.8153 21.2883 57.5346 20.7257 57.8093 19.8982C58.3099 18.485 57.994 16.8227 57.1008 15.633C57.0231 15.5261 56.9441 15.4192 56.8651 15.3122C56.667 15.0473 56.4519 14.7946 56.2344 14.5443C55.961 14.6549 55.6645 14.6767 55.3729 14.6974C55.3158 14.4313 55.255 14.1664 55.2283 13.8954ZM54.9974 15.6622C55.7034 15.9162 56.181 16.5845 56.3426 17.2978C56.5479 17.9576 56.3195 18.6539 56.0983 19.2797C55.6244 20.5495 53.8454 20.863 52.8016 20.1279C51.9802 19.5774 51.6229 18.5713 51.4686 17.638C51.3155 16.6805 52.0738 15.7789 52.9924 15.6014C53.6474 15.4763 54.3619 15.424 54.9974 15.6622Z" fill="#F5F3FE"/>
<path d="M56.9621 28.4084C56.5052 28.4485 56.0447 28.4534 55.5854 28.4619C55.5781 29.3235 55.4444 30.2931 56.0155 31.0198C56.5903 31.727 57.4567 32.1572 58.3365 32.3443C58.3389 32.2823 58.3425 32.1596 58.3438 32.0976C57.961 30.8387 57.3352 29.671 56.9621 28.4084Z" fill="#F5F3FE"/>
<path d="M51.7351 0.418599C49.9014 -0.218139 47.9062 -0.038297 46.0409 0.361487C44.008 0.818382 42.003 1.43932 40.1122 2.3203C38.6139 3.10164 37.2201 4.08956 36.0014 5.26218C34.0911 6.93422 32.441 8.90397 31.1371 11.0827C30.1055 12.9589 29.3047 14.9481 28.4492 16.9069C27.3799 19.3737 26.7529 21.9935 26.0359 24.5745C25.7394 25.916 25.3713 27.2393 25.0395 28.5724C24.8147 29.4011 24.6847 30.2638 24.3019 31.0415C23.5121 30.7001 23.0199 29.9649 22.3601 29.4473C21.4913 28.7692 20.8315 27.8724 20.1777 26.9975C18.8423 25.2113 18.0791 23.0823 16.8032 21.2608C16.1738 20.4029 15.418 19.5377 14.3669 19.2157C13.5053 18.9557 12.6171 19.4429 12.0143 20.0359C11.0884 21.036 10.6036 22.3557 10.2913 23.6607C9.7238 25.9756 10.0094 28.4569 10.9584 30.6332C11.7835 32.5568 13.029 34.258 14.3377 35.8766C15.0364 36.8293 15.87 37.6653 16.6526 38.5451C17.6441 39.7055 18.9395 40.5513 19.9894 41.6498C20.2324 41.877 20.0732 42.2197 20.027 42.4955C19.5349 44.3911 19.2469 46.3329 19.0027 48.2735C18.66 51.4281 18.1302 54.5644 17.9552 57.7359C17.892 58.8721 18.0949 59.9997 18.0828 61.1347C18.0901 63.0838 18.2493 65.0644 18.9054 66.9139C19.3648 68.1521 19.8934 69.3636 20.4997 70.5375C21.032 71.6761 21.8279 72.6713 22.7186 73.5498C24.02 74.7723 25.5535 75.7104 27.1126 76.5658C28.6947 77.3945 30.4554 77.77 32.1299 78.3533C33.9964 79.1395 36.0548 79.1687 38.0464 79.2136C41.0236 79.2501 44.0626 79.2574 46.9389 78.3849C48.3582 78.0143 49.7775 77.6218 51.1081 76.9923C52.9818 76.3422 54.6429 75.2401 56.428 74.398C57.1073 74.0602 57.6626 73.5328 58.2908 73.1172C59.1548 72.5376 59.9641 71.8839 60.7333 71.1851C61.4854 70.5168 62.0857 69.7014 62.7954 68.9918C64.2098 67.4401 65.5817 65.7085 66.0629 63.6196C66.5295 61.9658 66.4323 60.2221 66.2828 58.5306C66.058 57.2425 65.8916 55.9241 65.3812 54.709C64.544 52.6274 63.6435 50.569 62.6568 48.553C62.1914 47.5542 61.7102 46.5614 61.2983 45.5382C61.0346 44.8796 60.8766 44.0691 61.2995 43.4397C61.5826 42.9779 62.1586 42.8953 62.6337 42.7483C61.9763 41.4918 61.4636 40.1685 60.9252 38.8598C60.4562 37.7188 59.8474 36.6336 59.478 35.4525C59.1317 34.3236 58.7173 33.2179 58.3443 32.0975C58.3431 32.1595 58.3394 32.2822 58.337 32.3442C57.4572 32.157 56.5908 31.7269 56.0161 31.0197C55.4449 30.293 55.5786 29.3233 55.5859 28.4618C56.0452 28.4533 56.5058 28.4484 56.9627 28.4083C55.722 28.3937 54.4485 28.4715 53.2492 28.0875C51.7946 27.6379 50.3049 27.1227 49.1262 26.1238C47.6413 25.012 46.3532 23.6121 45.4613 21.979C44.9679 20.9351 44.5669 19.8306 44.4308 18.6786C44.3798 17.8572 44.3798 17.0309 44.4284 16.2094C44.7662 13.4972 46.2791 10.9393 48.5332 9.38274C49.3911 8.74479 50.4118 8.38146 51.4301 8.09347C52.1774 7.87717 52.9624 7.95616 53.7279 7.94401C54.6721 7.91849 55.5968 8.17732 56.4669 8.52242C57.2871 8.84686 58.0077 9.38031 58.851 9.65007C59.6894 9.91012 60.3468 10.5104 61.0188 11.0463C61.0577 11.0767 61.1343 11.1374 61.1731 11.1678C60.715 8.50054 59.6736 5.83937 57.7683 3.8684C56.0987 2.22188 53.9746 1.08085 51.7351 0.418599ZM42.6057 13.8302C43.1999 14.044 43.4089 14.7476 43.3457 15.3236C43.3724 15.8777 42.8548 16.3978 42.3007 16.3698C41.6785 16.3735 41.1973 15.7817 41.1402 15.1984C41.0151 14.4159 41.811 13.5908 42.6057 13.8302ZM44.4952 24.9743C44.8962 24.9767 45.2693 24.7969 45.6581 24.7215C45.8914 25.3984 45.2243 25.9877 44.6034 26.0777C43.686 26.1955 42.7831 25.4494 42.6178 24.5599C42.551 24.131 42.9471 23.696 43.387 23.7883C43.9618 23.9621 43.9727 24.7373 44.4952 24.9743Z" fill="#F76149"/>
<path d="M54.4089 11.5267C53.1536 11.195 51.7805 11.3287 50.6261 11.9326C48.9286 12.7127 47.7025 14.3301 47.1824 16.0993C46.7547 17.5624 46.9928 19.1251 47.5263 20.5261C47.8726 21.1434 48.1837 21.7899 48.6576 22.3221C50.1935 24.1023 52.4088 25.2372 54.72 25.5933C55.5706 25.6139 56.4698 25.7306 57.2718 25.377C58.0203 25.0671 58.8235 24.7293 59.2926 24.0318C59.8467 23.2323 60.3777 22.3974 60.6815 21.4666C61.0557 20.3681 61.4142 19.215 61.3182 18.0411C61.221 17.323 60.9172 16.6547 60.6718 15.979C60.5199 15.6023 60.4299 15.1722 60.1091 14.8939C58.476 13.3944 56.584 12.0796 54.4089 11.5267ZM56.1891 13.1186C56.7468 13.3993 56.6107 14.1672 56.2353 14.5452C56.4528 14.7955 56.6678 15.0482 56.8659 15.3131C56.6229 14.6971 57.4407 13.8744 58.0483 14.2499C58.3982 14.4358 58.3873 14.9717 58.1187 15.2244C57.8793 15.5379 57.4796 15.6351 57.1017 15.6339C57.9948 16.8236 58.3107 18.4859 57.8101 19.8991C57.5355 20.7266 56.8161 21.2892 56.0834 21.7012C55.6957 21.9284 55.1781 21.6769 54.8293 21.9964C55.1841 21.8142 55.7395 21.8944 55.8671 22.3294C56.0287 22.7608 56.0396 23.4364 55.5341 23.6393C54.7698 23.7742 54.3749 22.6976 54.6726 22.1095C54.5875 22.1714 54.5 22.2358 54.415 22.3002C54.065 22.1811 53.7005 22.1617 53.3347 22.1508C53.2047 22.0013 53.0734 21.8531 52.9483 21.6999C52.6421 21.5675 52.2872 21.7194 51.992 21.5432C51.5108 21.2819 51.1486 20.8481 50.8023 20.4338C49.9943 19.4288 49.4426 18.1104 49.7281 16.8078C49.9894 15.2293 51.3188 13.9291 52.8802 13.6399C53.6713 13.4783 54.4624 13.7213 55.2291 13.8963C55.2413 13.4224 55.686 12.9108 56.1891 13.1186ZM59.0374 15.8053C59.3108 15.9316 59.4675 16.2318 59.3436 16.5222C59.0167 17.0459 58.1613 17.1152 57.7931 16.6024C57.6497 15.962 58.5294 15.6011 59.0374 15.8053ZM52.8499 21.7972C53.054 21.7911 53.1767 22.0766 53.1901 22.2553C53.3213 22.9029 52.2629 23.197 51.9458 22.6757C51.783 22.1532 52.3298 21.5481 52.8499 21.7972ZM54.0638 22.237C54.8658 22.5591 54.4599 23.7973 53.726 23.8799C53.2521 23.8872 53.0819 23.372 53.1549 22.9759C53.0917 22.5019 53.6117 22.0584 54.0638 22.237Z" fill="#F76149"/>
<path d="M62.3219 32.3529C62.0947 31.941 61.8772 31.5242 61.6694 31.1025C61.8662 31.6445 62.4082 32.246 62.0254 32.822C61.4786 33.7674 61.204 34.9108 61.4446 35.9899C61.701 37.4201 62.3037 38.7725 63.1203 39.9682C63.8044 41.0315 64.7546 42 65.9977 42.3609C66.581 42.548 67.1995 42.4119 67.7962 42.4958C67.8946 42.582 67.9857 42.678 68.0671 42.7813C68.0027 42.6197 67.9383 42.4581 67.8739 42.2977C68.3879 41.9575 68.9445 41.6148 69.2373 41.051C69.8388 39.9063 70.1584 38.5733 69.9215 37.2864C69.5205 35.2875 68.3831 33.4089 66.6807 32.2606C65.9418 31.8037 65.0864 31.4282 64.1981 31.5266C63.4982 31.5874 62.9015 31.992 62.3219 32.3529Z" fill="#F76149"/>
<path d="M56.4668 8.52255C55.5967 8.17745 54.672 7.91863 53.7278 7.94414C52.9623 7.95629 52.1773 7.87731 51.43 8.09361C50.4117 8.3816 49.391 8.74493 48.5331 9.38288C46.279 10.9395 44.7661 13.4974 44.4283 16.2096C44.3797 17.031 44.3797 17.8573 44.4307 18.6788C44.5668 19.8307 44.9678 20.9353 45.4612 21.9791C46.3531 23.6123 47.6411 25.0121 49.1261 26.124C50.3047 27.1228 51.7945 27.638 53.249 28.0876C54.4484 28.4716 55.7219 28.3939 56.9625 28.4084C57.3356 29.671 57.9614 30.8387 58.3442 32.0976C58.7172 33.218 59.1316 34.3238 59.4779 35.4527C59.8473 36.6338 60.4561 37.7189 60.9251 38.8599C61.4634 40.1686 61.9762 41.4919 62.6336 42.7484C63.3287 44.0401 63.8634 45.4096 64.4321 46.7608C64.833 47.6892 65.4759 48.4802 65.9704 49.3564C66.2876 49.9129 66.708 50.416 67.2123 50.8133C67.9329 51.3699 69.1638 51.2398 69.6159 50.3978C69.9014 49.9822 69.8504 49.4609 69.8613 48.9845C69.8455 48.1437 69.9172 47.2809 69.6438 46.4716C69.2392 45.1957 68.7094 43.955 68.0678 42.7812C67.9864 42.6779 67.8952 42.5819 67.7968 42.4957C67.2002 42.4118 66.5816 42.5479 65.9984 42.3608C64.7553 41.9999 63.805 41.0314 63.1209 39.9681C62.3043 38.7724 61.7016 37.42 61.4452 35.9897C61.2046 34.9107 61.4792 33.7672 62.0261 32.8219C62.4088 32.2459 61.8669 31.6444 61.67 31.1024C61.269 30.0866 60.6384 29.1874 60.2021 28.1885C60.083 27.8981 59.8789 27.6271 59.8619 27.3063C60.3188 26.9053 60.8498 26.5869 61.2471 26.1203C62.7697 24.3705 63.562 22.097 63.8597 19.8234C63.8864 18.6933 63.9496 17.5475 63.7139 16.4332C63.3421 14.4342 62.3347 12.5787 61.0187 11.0464C60.3467 10.5105 59.6893 9.91025 58.8509 9.65021C58.0076 9.38045 57.287 8.847 56.4668 8.52255ZM54.4095 11.5264C56.5846 12.0793 58.4766 13.3941 60.1098 14.8936C60.4306 15.1718 60.5205 15.602 60.6724 15.9787C60.9178 16.6543 61.2216 17.3227 61.3188 18.0408C61.4148 19.2146 61.0564 20.3678 60.6821 21.4663C60.3783 22.3971 59.8473 23.2319 59.2932 24.0315C58.8241 24.729 58.0209 25.0668 57.2724 25.3766C56.4704 25.7303 55.5712 25.6136 54.7206 25.5929C52.4094 25.2369 50.1942 24.102 48.6582 22.3218C48.1843 21.7895 47.8732 21.1431 47.5269 20.5258C46.9935 19.1247 46.7553 17.562 47.183 16.099C47.7031 14.3297 48.9292 12.7124 50.6268 11.9323C51.7811 11.3283 53.1543 11.1947 54.4095 11.5264Z" fill="#03DDB9"/>
<path d="M56.1886 13.1189C55.6856 12.9111 55.2408 13.4227 55.2287 13.8966C55.2554 14.1676 55.3162 14.4325 55.3733 14.6986C55.6649 14.6779 55.9614 14.6561 56.2348 14.5455C56.6103 14.1676 56.7464 13.3996 56.1886 13.1189Z" fill="#1F2B45"/>
<path d="M42.6046 13.8317C41.8099 13.5923 41.014 14.4174 41.1391 15.1999C41.1963 15.7832 41.6775 16.375 42.2996 16.3713C42.8537 16.3993 43.3714 15.8792 43.3446 15.3251C43.4078 14.7491 43.1988 14.0455 42.6046 13.8317Z" fill="#1F2B45"/>
<path d="M58.0487 14.2508C57.4411 13.8753 56.6233 14.698 56.8663 15.3141C56.9453 15.421 57.0243 15.5279 57.1021 15.6349C57.48 15.6361 57.8798 15.5389 58.1192 15.2254C58.3877 14.9726 58.3987 14.4367 58.0487 14.2508Z" fill="#1F2B45"/>
<path d="M54.9985 15.6632C54.363 15.4251 53.6485 15.4773 52.9935 15.6025C52.0748 15.7799 51.3166 16.6815 51.4697 17.6391C51.624 18.5723 51.9813 19.5784 52.8027 20.1289C53.8465 20.8641 55.6255 20.5506 56.0994 19.2807C56.3206 18.6549 56.549 17.9586 56.3437 17.2988C56.182 16.5855 55.7045 15.9172 54.9985 15.6632Z" fill="#1F2B45"/>
<path d="M59.0375 15.8059C58.5296 15.6018 57.6498 15.9627 57.7932 16.603C58.1614 17.1158 59.0168 17.0466 59.3437 16.5228C59.4677 16.2324 59.3109 15.9323 59.0375 15.8059Z" fill="#1F2B45"/>
<path d="M52.8497 21.7975C52.3296 21.5484 51.7828 22.1536 51.9457 22.6761C52.2628 23.1974 53.3212 22.9033 53.19 22.2557C53.1766 22.077 53.0539 21.7915 52.8497 21.7975Z" fill="#1F2B45"/>
<path d="M55.8678 22.3301C55.7402 21.8951 55.1849 21.8149 54.8301 21.9971C54.7912 22.0263 54.7122 22.0822 54.6733 22.1102C54.3756 22.6983 54.7705 23.7749 55.5349 23.64C56.0404 23.4371 56.0294 22.7615 55.8678 22.3301Z" fill="#1F2B45"/>
<path d="M54.0645 22.2372C53.6125 22.0586 53.0924 22.5021 53.1556 22.976C53.0827 23.3722 53.2528 23.8874 53.7267 23.8801C54.4606 23.7975 54.8665 22.5592 54.0645 22.2372Z" fill="#1F2B45"/>
<path d="M44.4945 24.9746C43.972 24.7377 43.9611 23.9624 43.3863 23.7886C42.9464 23.6963 42.5503 24.1313 42.6171 24.5603C42.7824 25.4497 43.6853 26.1958 44.6027 26.078C45.2236 25.9881 45.8907 25.3987 45.6574 24.7219C45.2686 24.7972 44.8955 24.977 44.4945 24.9746Z" fill="#1F2B45"/>
</svg>
