<svg width="130" height="80" viewBox="0 0 130 80" fill="none" xmlns="http://www.w3.org/2000/svg">
<rect x="30.1934" y="31.7109" width="48" height="48" rx="8" fill="#222C45"/>
<path d="M71.8393 0.301075C73.3459 -0.140498 74.9321 0.0413287 76.4785 0.0170855C78.5028 0.00842716 80.3453 0.922743 82.1704 1.68294C82.2033 1.74528 82.2709 1.8717 82.3038 1.93404C80.5912 1.49419 79.0275 0.550439 77.2508 0.354762C75.4966 0.174669 73.6784 0.0915452 71.9727 0.621434C69.8722 1.37817 68.0176 2.70635 66.4521 4.28043C65.6538 5.0389 65.2469 6.0779 64.6426 6.97837C63.6711 8.38621 63.0477 10.0053 62.5819 11.6435C62.0208 14.8141 61.5481 18.0125 61.4061 21.2351C61.3905 23.5296 61.0667 25.831 61.4199 28.1185C61.3143 28.1704 61.1048 28.2743 60.9991 28.3263C60.9368 28.3349 60.8104 28.3523 60.748 28.3609C61.2017 27.8154 60.9974 27.0726 61.013 26.4267C60.9212 24.5772 61.1082 22.7348 61.1862 20.8905C61.3749 17.8619 61.7524 14.8505 62.2667 11.8599C62.3239 11.0304 62.762 10.3118 62.9819 9.52737C63.517 7.82342 64.6755 6.44155 65.5309 4.9021C66.5024 3.68474 67.7474 2.7306 68.9838 1.80069C69.9103 1.26042 70.783 0.576409 71.8393 0.301075Z" fill="#E3BA5F"/>
<path d="M71.971 0.621463C73.6767 0.0915745 75.4949 0.174698 77.2491 0.354791C79.0258 0.550469 80.5895 1.49422 82.3021 1.93407C82.6259 2.18342 82.9567 2.42759 83.3272 2.60595C84.7056 3.24147 85.9836 4.0744 87.2165 4.95235C88.1707 5.61211 88.9292 6.52816 89.9664 7.0719C91.3206 8.23385 92.4912 9.60186 93.5856 11.008C93.7276 11.427 93.8852 11.8496 94.1605 12.2028C94.8307 13.0842 95.3692 14.054 95.8887 15.0272C95.8038 15.6298 95.6238 16.2359 95.6982 16.8489C95.8402 17.0116 96.0117 17.1467 96.1779 17.2887C96.2091 17.4913 96.242 17.6956 96.2783 17.9C96.3476 18.6913 96.2627 19.5451 96.6818 20.2568C97.1667 21.0533 97.3814 21.9694 97.7398 22.8231C97.9927 23.5227 98.384 24.2084 98.384 24.9721C97.9615 25.0691 97.5459 24.908 97.1338 24.8474C96.3718 24.6933 95.5995 24.8699 94.8341 24.8734C92.7319 24.8959 90.6244 24.7626 88.5291 24.9825C86.8979 25.1695 85.2424 25.2388 83.651 25.6751C82.8701 25.9055 82.1359 26.2778 81.341 26.4596C79.5938 26.8596 77.9937 27.6856 76.3538 28.3783C75.4793 28.7367 74.6655 29.2735 73.7165 29.4207C72.771 29.5697 71.8879 29.9627 70.9441 30.1065C69.7337 30.2987 68.5371 30.6086 67.3042 30.5948C66.1093 30.5965 64.8348 30.7281 63.7318 30.1723C62.7949 29.6995 62.149 28.8424 61.4182 28.1185C61.065 25.831 61.3888 23.5296 61.4044 21.2352C61.5464 18.0125 62.0191 14.8142 62.5802 11.6435C63.046 10.0053 63.6694 8.38624 64.6409 6.9784C65.2452 6.07793 65.6522 5.03893 66.4505 4.28046C68.0159 2.70638 69.8705 1.3782 71.971 0.621463ZM89.6807 9.82005C88.8183 10.2097 88.9274 11.2729 89.0815 12.0418C89.2772 12.2565 89.5474 12.3864 89.8244 12.4712C90.8582 12.7639 91.7292 11.4392 91.3206 10.537C91.0799 9.9049 90.3127 9.48064 89.6807 9.82005ZM81.9194 14.3778C81.3462 14.7085 81.0414 15.4012 81.0795 16.0471C81.1367 17.0411 82.2657 17.8047 83.2043 17.4203C83.9524 17.2298 84.2796 16.3969 84.2173 15.6904C84.3333 14.5492 82.8406 13.8271 81.9194 14.3778ZM90.5205 16.2532C90.5309 16.3155 90.5534 16.4437 90.5638 16.5077C90.3543 16.738 90.1881 17.0047 90.0772 17.2956L89.9785 17.2004C89.4054 17.2887 88.8304 17.3909 88.2486 17.3095C87.7603 17.2333 87.2356 17.4428 86.988 17.8792C86.8477 18.4333 86.8893 19.0602 87.149 19.5745C88.0893 20.5338 89.4729 21.3927 90.8582 20.8871C91.6115 20.6654 91.8279 19.8481 92.0998 19.2091C92.4288 18.3935 92.5275 17.3666 92.0063 16.6116C91.6825 16.1164 91.0262 16.1752 90.5205 16.2532Z" fill="#F76149"/>
<path d="M82.3027 1.93397C82.6317 1.87163 82.9417 2.01362 83.2257 2.16947C84.6387 2.92621 86.0552 3.69507 87.3523 4.64402C88.038 5.23452 88.7791 5.75401 89.4839 6.32027C89.6502 6.56616 89.8026 6.82072 89.9671 7.07181C88.9298 6.52806 88.1713 5.61202 87.2172 4.95225C85.9842 4.0743 84.7063 3.24138 83.3279 2.60586C82.9573 2.42749 82.6266 2.18333 82.3027 1.93397Z" fill="#E3BB64"/>
<path d="M111.788 3.7571C113.574 2.86529 115.709 2.29038 117.652 3.01248L117.582 3.17006C116.394 3.02461 115.161 2.87741 113.991 3.21336C112.872 3.55103 111.797 4.0307 110.799 4.64025C109.343 5.47664 107.864 6.28359 106.505 7.27757C105.359 8.11569 104.091 8.76506 102.932 9.58414C101.002 10.9764 99.1141 12.4587 97.5695 14.2856C97.1799 14.6008 96.8128 15.3558 96.2413 15.1791C95.5088 13.7055 94.7278 12.2093 93.5867 11.0076C92.4923 9.60146 91.3217 8.23344 89.9675 7.0715C89.803 6.82041 89.6506 6.56585 89.4844 6.31996C90.6671 7.0663 91.5243 8.21786 92.4646 9.23435C93.604 10.3703 94.5703 11.676 95.3911 13.0579C95.7443 13.631 95.9868 14.2787 96.437 14.7895C96.8578 14.7566 97.1037 14.3566 97.3773 14.0847C99.341 11.792 101.798 9.99974 104.321 8.37198C105.315 7.83689 106.165 7.08362 107.146 6.52256C108.576 5.41776 110.188 4.58483 111.788 3.7571Z" fill="#F0D28F"/>
<path d="M113.99 3.21299C115.161 2.87705 116.394 3.02424 117.582 3.1697C118.773 3.57145 119.9 4.21735 120.716 5.18709C121.163 5.99231 121.973 6.50834 122.422 7.31357C123.078 8.29888 123.239 9.53183 123.094 10.6868C123.009 11.6825 121.989 12.2471 121.123 12.4774C119.765 12.6644 118.238 12.7614 117.042 11.9717C116.631 11.7432 116.261 11.4055 115.791 11.312C114.95 11.544 114.267 12.1224 113.516 12.5432C111.066 13.9649 108.665 15.4939 106.475 17.2983C104.742 18.6542 103.077 20.095 101.368 21.4803C100.423 21.2534 100.39 20.1538 99.8271 19.5287C98.8314 18.4222 98.35 16.9936 97.524 15.7745C97.1776 15.3242 97.4235 14.7597 97.569 14.2852C99.1136 12.4583 101.001 10.976 102.932 9.58378C104.09 8.7647 105.358 8.11533 106.504 7.2772C107.864 6.28323 109.343 5.47628 110.799 4.63988C111.796 4.03034 112.872 3.55067 113.99 3.21299Z" fill="#F76149"/>
<path d="M120.717 5.1875C121.496 5.52691 121.958 6.28884 122.479 6.92089C123.328 7.9824 123.705 9.4041 123.456 10.7427C123.283 11.4925 122.673 12.0397 122.026 12.4016C120.964 13.0579 119.636 12.9973 118.452 12.8085C117.47 12.6475 116.699 11.9635 115.788 11.6379C114.959 11.9081 114.245 12.4293 113.499 12.864C112.16 13.7333 110.72 14.4415 109.443 15.4043C107.301 16.8676 105.329 18.5525 103.327 20.1958C102.7 20.7413 101.996 21.2348 101.538 21.9448C101.424 22.4764 101.824 22.9093 102.063 23.3422C102.415 23.8721 102.458 24.5405 102.818 25.0635C103.144 25.1085 103.443 24.9059 103.746 24.809C104.766 24.3466 105.838 24.0193 106.865 23.5743C107.128 23.4548 107.412 23.389 107.705 23.3717C106.519 24.0695 105.175 24.4159 103.918 24.9596C103.455 25.1276 102.977 25.441 102.47 25.2661C102.376 24.5804 102.138 23.9241 101.75 23.3492C101.556 22.9959 101.374 22.6375 101.182 22.2859C101.239 22.0158 101.303 21.7491 101.369 21.4807C103.078 20.0954 104.742 18.6546 106.475 17.2987C108.666 15.4943 111.066 13.9653 113.516 12.5436C114.268 12.1228 114.95 11.5444 115.792 11.3124C116.261 11.4059 116.632 11.7436 117.042 11.9722C118.239 12.7618 119.766 12.6648 121.123 12.4778C121.989 12.2475 123.009 11.683 123.094 10.6873C123.24 9.53224 123.079 8.2993 122.422 7.31398C121.974 6.50876 121.163 5.99272 120.717 5.1875Z" fill="#E6C576"/>
<path d="M89.6824 9.82032C90.3145 9.48091 91.0816 9.90517 91.3223 10.5372C91.731 11.4394 90.86 12.7641 89.8262 12.4715C89.5491 12.3866 89.2789 12.2568 89.0833 12.042C88.9291 11.2732 88.8201 10.2099 89.6824 9.82032Z" fill="#222A3B"/>
<path d="M93.5869 11.0078C94.7281 12.2096 95.5091 13.7057 96.2416 15.1794C96.1532 15.1413 95.9766 15.0651 95.89 15.027C95.3705 14.0538 94.832 13.0841 94.1618 12.2027C93.8865 11.8494 93.7289 11.4269 93.5869 11.0078Z" fill="#DCA73A"/>
<path d="M61.4102 14.8262C62.0804 13.976 61.5245 12.6859 62.2674 11.8599C61.7531 14.8504 61.3756 17.8618 61.1869 20.8905C61.1089 22.7347 60.9219 24.5772 61.0137 26.4266C60.9981 27.0725 61.2024 27.8154 60.7487 28.3609C60.2968 28.4232 59.8466 28.4942 59.3998 28.5773C59.3409 28.5306 59.2232 28.4371 59.166 28.3903C59.5816 28.2431 60.0197 28.1738 60.4405 28.037C60.8076 27.3132 60.2795 26.5028 60.3955 25.7357C60.6985 23.0654 60.6518 20.371 60.9981 17.7042C61.1245 16.7466 61.0553 15.7388 61.4102 14.8262Z" fill="#FDF5DE"/>
<path d="M81.9212 14.3774C82.8424 13.8267 84.3351 14.5488 84.2191 15.69C84.2814 16.3965 83.9541 17.2294 83.2061 17.4199C82.2675 17.8044 81.1385 17.0407 81.0813 16.0467C81.0432 15.4008 81.348 14.7081 81.9212 14.3774Z" fill="#222B3D"/>
<path d="M96.2413 15.1797C96.8127 15.3563 97.1798 14.6013 97.5695 14.2861C97.424 14.7606 97.1781 15.3251 97.5244 15.7754C98.3504 16.9945 98.8319 18.4231 99.8276 19.5296C100.39 20.1547 100.423 21.2543 101.369 21.4812C101.303 21.7496 101.239 22.0163 101.182 22.2864C100.241 21.1279 99.3843 19.8863 98.7487 18.5322C98.2743 17.7391 97.8223 16.9286 97.3149 16.1546C97.1192 15.8273 96.7989 15.5866 96.4145 15.5554C95.9573 15.8723 96.0941 16.4628 96.1443 16.9304L96.1634 17.0983L96.179 17.2888C96.0127 17.1468 95.8413 17.0118 95.6993 16.849C95.6248 16.236 95.8049 15.6299 95.8898 15.0273C95.9763 15.0654 96.153 15.1416 96.2413 15.1797Z" fill="#EB9212"/>
<path d="M96.4148 15.5552C96.7992 15.5863 97.1196 15.827 97.3152 16.1543C97.8226 16.9284 98.2746 17.7388 98.7491 18.5319C99.3846 19.8861 100.242 21.1277 101.182 22.2861C101.374 22.6377 101.556 22.9961 101.75 23.3494C101.463 23.171 101.149 23.0204 100.912 22.7745C99.5041 20.9874 98.5309 18.9233 97.3533 16.9873C97.1178 16.6236 96.8148 16.1439 96.3092 16.2409C96.2399 16.466 96.1845 16.6963 96.1446 16.9301C96.0944 16.4626 95.9576 15.8721 96.4148 15.5552Z" fill="#ED6120"/>
<path d="M90.5219 16.2535C91.0276 16.1756 91.6839 16.1167 92.0077 16.612C92.5289 17.367 92.4302 18.3939 92.1012 19.2095C91.8293 19.8485 91.6129 20.6658 90.8596 20.8875C89.4743 21.3931 88.0907 20.5342 87.1504 19.5749C86.8906 19.0606 86.8491 18.4337 86.9893 17.8796C87.237 17.4432 87.7617 17.2337 88.25 17.3099C88.8318 17.3912 89.4067 17.2891 89.9799 17.2008L90.0786 17.296C90.0024 17.4882 89.9176 17.677 89.8275 17.8623C89.1505 17.7739 88.4682 17.5835 87.7824 17.6891C87.3218 17.7687 86.9686 18.2727 87.1261 18.7316C87.3305 19.4537 87.9902 19.8918 88.624 20.2121C89.2976 20.6485 90.1946 20.8303 90.9358 20.458C91.5436 19.9177 91.857 19.0969 91.9661 18.3038C91.9852 17.7272 91.9644 17.0085 91.4588 16.631C91.1678 16.541 90.8631 16.5341 90.5652 16.5081C90.5548 16.444 90.5323 16.3159 90.5219 16.2535Z" fill="#B38F2A"/>
<path d="M96.3089 16.2412C96.8146 16.1442 97.1176 16.6239 97.3531 16.9875C98.5306 18.9235 99.5038 20.9877 100.912 22.7748C101.149 23.0206 101.462 23.1713 101.75 23.3497C102.138 23.9246 102.377 24.5809 102.47 25.2666C101.031 25.8571 99.5419 26.3143 98.1185 26.9463C96.9825 27.4485 95.7029 27.3481 94.5236 27.6961C93.2231 28.0788 91.8638 28.2641 90.6048 28.7784C90.3018 28.8685 90.139 29.1438 89.9693 29.3845C88.8818 29.8694 87.7234 30.1793 86.6636 30.7214C85.5986 31.3378 84.4297 31.7742 83.4514 32.5344C82.9942 32.5586 82.5301 32.6712 82.2357 33.0522C81.3335 34.0583 80.2443 34.8687 79.3283 35.8626C78.7949 36.4272 78.2131 36.9415 77.6364 37.461C76.71 38.2766 76.2286 39.4991 75.1879 40.2039C74.1194 40.9122 73.3991 42.0551 72.225 42.6127C71.3141 43.0698 70.5418 43.759 69.5981 44.159C68.3842 44.8396 67.0265 45.1703 65.7243 45.6258C64.5901 45.8162 63.5061 46.2145 62.3822 46.4431C60.8255 46.6024 59.3535 47.2224 57.7743 47.2258C56.4876 47.4561 55.0556 47.0942 53.9023 47.8371C52.1377 48.0449 50.3593 47.941 48.5878 47.9064C48.0891 47.8717 47.6112 48.0293 47.1696 48.2475C45.4189 48.4189 43.656 48.2458 41.9036 48.386C39.7996 48.5834 37.6818 48.6544 35.5917 48.9783C34.4297 49.1497 33.2453 49.167 32.0989 49.4423C31.434 49.593 30.7586 49.6917 30.0781 49.7367C29.046 49.8043 28.0451 50.0709 27.0338 50.2614C26.1247 50.4467 25.1359 50.4536 24.348 51.006C23.0181 51.6156 21.7557 52.3515 20.4241 52.9541C20.0968 53.1446 19.7054 53.2243 19.4301 53.4996C17.456 54.4797 15.5391 55.5793 13.6723 56.7482C12.4827 57.5413 11.2012 58.1942 10.0687 59.0738C8.22105 60.267 6.42705 61.5397 4.64863 62.8333C3.96463 63.3857 3.1923 63.8151 2.41479 64.2203C1.77407 64.5753 0.944609 64.5372 0.317747 64.1719C-0.122095 63.9589 -0.0199265 63.3597 0.120338 62.9874C1.03812 60.8124 1.87105 58.5959 3.02953 56.537C3.65466 55.6607 4.06506 54.6217 4.87721 53.8927C5.7188 53.0494 6.70065 52.3654 7.56648 51.5498C8.74055 50.6476 9.77608 49.5705 11.0298 48.7739C12.287 47.9046 13.4351 46.8847 14.7408 46.0881C16.0239 45.2985 17.224 44.3807 18.5262 43.6222C21.6103 41.7711 24.5281 39.6723 27.6105 37.8177C29.0287 37.0454 30.2322 35.9544 31.4322 34.8895C32.6773 33.705 33.4063 32.1223 34.3016 30.685C34.828 29.8676 35.1051 28.8841 35.7874 28.1723C36.3415 27.8122 37.048 27.8381 37.6835 27.7446C40.9096 27.594 44.1115 28.1342 47.2718 28.7282C49.5939 29.1248 51.9403 29.6183 54.3075 29.407C55.2841 29.2494 56.2833 29.3326 57.2582 29.1507C57.9994 29.0728 58.6817 28.7594 59.3986 28.5775C59.8453 28.4944 60.2956 28.4234 60.7475 28.3611C60.8099 28.3524 60.9363 28.3351 60.9986 28.3265C61.6792 29.059 62.4082 29.7464 63.1805 30.3802C63.674 30.7975 64.3529 30.8235 64.9659 30.9032C66.8984 31.1196 68.8413 30.9291 70.7773 30.8789C71.3696 30.9309 71.7124 30.3698 72.2267 30.1967C73.4597 29.7984 74.7342 29.5109 75.9325 29.0122C76.8485 28.5758 77.7819 28.181 78.7291 27.8174C79.5309 27.4953 80.459 27.5126 81.1811 26.9913C81.7058 26.5844 82.3691 26.4926 83.008 26.4182C84.3813 26.4961 85.6783 25.9454 87.0411 25.9143C88.3797 25.8848 89.6819 25.4935 91.0256 25.5402C92.643 25.561 94.2604 25.5264 95.8795 25.5489C96.8873 25.5368 97.8795 26.1151 98.8787 25.8034C99.4103 25.6839 99.445 25.0207 99.2545 24.6086C98.9116 23.7324 98.5289 22.8717 98.2415 21.9765C97.8207 20.6968 97.0743 19.5313 96.8492 18.1893C96.7782 17.8776 96.7366 17.5555 96.6033 17.2646C96.4925 17.223 96.2743 17.1399 96.1635 17.0984L96.1444 16.9304C96.1842 16.6966 96.2397 16.4663 96.3089 16.2412Z" fill="#01D8B7"/>
<path d="M90.5652 16.5083C90.863 16.5343 91.1678 16.5412 91.4587 16.6312C91.9643 17.0087 91.9851 17.7274 91.9661 18.304C91.857 19.0971 91.5435 19.9179 90.9357 20.4582C90.1946 20.8305 89.2976 20.6487 88.624 20.2123C88.217 19.5629 87.2854 19.0729 87.6075 18.1794C88.3348 17.9906 89.1002 18.0547 89.8275 17.8625C89.9175 17.6772 90.0024 17.4884 90.0786 17.2962C90.1894 17.0053 90.3556 16.7386 90.5652 16.5083Z" fill="#222A40"/>
<path d="M96.1632 17.0981C96.2741 17.1397 96.4922 17.2228 96.6031 17.2644C96.7364 17.5553 96.778 17.8774 96.849 18.1891C97.0741 19.5311 97.8204 20.6965 98.2412 21.9762C98.5287 22.8715 98.9114 23.7321 99.2543 24.6084C99.4447 25.0205 99.4101 25.6837 98.8785 25.8032C97.8793 26.1149 96.8871 25.5365 95.8792 25.5487C94.2601 25.5261 92.6428 25.5608 91.0254 25.54C89.6816 25.4932 88.3794 25.8846 87.0408 25.914C85.678 25.9452 84.381 26.4959 83.0078 26.4179C84.6425 25.6577 86.4659 25.585 88.2253 25.3807C89.557 25.2162 90.8973 25.1798 92.2376 25.1815C94.042 25.088 95.8602 25.1019 97.6507 25.3668C98.0698 25.424 98.5114 25.4551 98.9166 25.301C98.9859 24.9945 98.8958 24.688 98.7815 24.4058C97.8689 22.2689 97.1763 20.0454 96.2793 17.8999C96.2429 17.6956 96.21 17.4912 96.1788 17.2886L96.1632 17.0981Z" fill="#F06223"/>
<path d="M87.126 18.7308C86.9684 18.2719 87.3217 17.7679 87.7823 17.6883C88.468 17.5827 89.1503 17.7731 89.8274 17.8615C89.1001 18.0537 88.3347 17.9896 87.6074 18.1784C87.2853 19.0719 88.2169 19.562 88.6239 20.2113C87.9901 19.891 87.3303 19.4529 87.126 18.7308Z" fill="#3C2A06"/>
<path d="M96.2789 17.9004C97.1759 20.0459 97.8686 22.2694 98.7812 24.4062C98.8955 24.6885 98.9855 24.995 98.9162 25.3015C98.511 25.4556 98.0695 25.4245 97.6504 25.3673C95.8599 25.1024 94.0416 25.0885 92.2372 25.182C90.8969 25.1803 89.5566 25.2167 88.225 25.3812C86.4656 25.5855 84.6422 25.6582 83.0075 26.4184C82.3685 26.4929 81.7053 26.5847 81.1806 26.9916C80.4585 27.5128 79.5303 27.4955 78.7285 27.8176C77.7813 28.1813 76.8479 28.5761 75.9319 29.0125C74.7336 29.5112 73.4591 29.7986 72.2261 30.1969C71.7118 30.3701 71.369 30.9311 70.7767 30.8792C68.8407 30.9294 66.8978 31.1199 64.9653 30.9034C64.3523 30.8238 63.6735 30.7978 63.1799 30.3805C62.4076 29.7467 61.6786 29.0592 60.998 28.3267C61.1037 28.2748 61.3132 28.1709 61.4188 28.1189C62.1496 28.8428 62.7955 29.6999 63.7323 30.1727C64.8354 30.7285 66.1099 30.5969 67.3048 30.5952C68.5377 30.6091 69.7343 30.2991 70.9447 30.1069C71.8885 29.9631 72.7716 29.5701 73.7171 29.4211C74.6661 29.2739 75.4799 28.7371 76.3544 28.3787C77.9943 27.686 79.5944 26.86 81.3416 26.46C82.1364 26.2782 82.8707 25.9059 83.6516 25.6756C85.243 25.2392 86.8985 25.1699 88.5297 24.9829C90.625 24.763 92.7325 24.8963 94.8347 24.8738C95.6001 24.8703 96.3724 24.6937 97.1344 24.8478C97.5465 24.9084 97.9621 25.0695 98.3846 24.9725C98.3846 24.2088 97.9933 23.5231 97.7404 22.8235C97.382 21.9698 97.1673 21.0537 96.6824 20.2572C96.2633 19.5455 96.3482 18.6918 96.2789 17.9004Z" fill="#F3881D"/>
<path d="M120.674 19.8509C121.777 19.4821 122.955 19.5998 124.099 19.5635C124.958 19.586 125.834 19.5063 126.683 19.6795C127.835 20.1453 128.558 21.2726 128.981 22.3947C129.509 24.1108 129.573 26.0416 128.879 27.7213C128.584 28.4711 127.98 29.098 127.249 29.4288C126.553 29.5863 125.829 29.5136 125.124 29.5015C124.354 29.5136 123.77 28.9439 123.117 28.6218C122.484 28.3084 122.042 27.7283 121.44 27.3698C120.91 27.285 120.378 27.4581 119.869 27.5845C118.996 27.8824 118.07 27.9897 117.23 28.3759C115.9 28.717 114.547 28.9906 113.261 29.4755C111.552 30.1266 109.829 30.7465 108.13 31.4236C107.678 31.5674 107.754 32.1198 107.799 32.4886C108.012 33.8081 107.879 35.1467 107.985 36.4731C108.111 37.971 108.049 39.4741 108.071 40.9755C108.05 42.321 108.151 43.6751 107.945 45.0102C107.787 48.0303 107.205 51.0087 106.431 53.93C106.189 55.1093 105.69 56.2123 105.361 57.3674C105.108 58.2003 104.623 58.9345 104.294 59.738C103.932 60.6281 103.461 61.4662 103.027 62.3217C102.835 62.6957 102.603 63.0611 102.251 63.3052C102.471 62.3026 103.165 61.5182 103.569 60.5952C104.081 59.5302 104.538 58.441 105.016 57.3604C105.541 56.1829 105.822 54.9188 106.178 53.6859C106.937 50.9464 107.323 48.1203 107.655 45.3029C107.756 43.4587 107.96 41.6127 107.791 39.7668C107.581 37.1658 107.74 34.5441 107.38 31.9552C107.283 31.576 107.668 31.3855 107.945 31.2435C111.356 29.7145 114.944 28.6305 118.542 27.6399C119.495 27.3906 120.439 26.9386 121.443 27.0235C122.272 27.42 122.827 28.2322 123.684 28.5941C124.683 29.0339 125.802 29.6504 126.915 29.2452C128.136 28.8729 128.735 27.5776 128.958 26.4174C129.201 24.3377 129.005 21.8926 127.332 20.4189C125.945 19.6518 124.26 19.6726 122.728 19.8475C121.578 20.1193 120.399 20.1817 119.223 20.2215C119.571 19.8146 120.201 20.0051 120.674 19.8509Z" fill="#E8C472"/>
<path d="M119.222 20.2217C120.397 20.1818 121.577 20.1195 122.727 19.8476C124.259 19.6727 125.944 19.6519 127.331 20.4191C129.004 21.8927 129.199 24.3378 128.957 26.4175C128.734 27.5778 128.134 28.873 126.914 29.2453C125.8 29.6506 124.682 29.0341 123.682 28.5942C122.825 28.2323 122.271 27.4202 121.442 27.0236C120.437 26.9388 119.493 27.3907 118.541 27.6401C114.943 28.6306 111.355 29.7146 107.943 31.2437C107.666 31.3857 107.282 31.5762 107.379 31.9554C107.739 34.5442 107.58 37.166 107.789 39.7669C107.959 41.6129 107.755 43.4588 107.654 45.303C107.322 48.1204 106.936 50.9465 106.177 53.686C105.82 54.919 105.54 56.1831 105.015 57.3606C104.537 58.4411 104.08 59.5304 103.567 60.5953C103.164 61.5183 102.47 62.3028 102.25 63.3054C102.073 63.9132 101.649 64.3981 101.245 64.8691C99.5915 66.9592 97.6053 68.7584 95.5516 70.445C94.3584 71.2122 93.3125 72.2044 92.0103 72.7932C90.7774 73.5707 89.4994 74.2772 88.1643 74.8642C86.843 75.4859 85.52 76.1456 84.0966 76.5024C83.8698 76.5976 83.6724 76.7517 83.442 76.8383C81.6532 77.3474 79.8921 77.9743 78.0652 78.3362C76.0115 78.8574 73.9041 79.138 71.8087 79.4479C70.5983 79.5969 69.3688 79.4341 68.1653 79.6644C66.8406 79.725 65.5072 79.7285 64.1825 79.6609C62.8872 79.4133 61.5521 79.6557 60.2655 79.351C59.3373 79.1518 58.352 79.1189 57.4879 78.6929C57.0914 78.4886 56.6844 78.3033 56.2567 78.1804C54.4211 77.7024 52.712 76.847 51.0531 75.9465C49.0651 74.9958 47.401 73.4616 46.1022 71.6953C45.2537 70.6372 44.7654 69.3558 43.9671 68.2666C43.4147 67.2761 43.1186 66.1661 42.8606 65.07C42.4571 63.4768 42.6268 61.8231 42.5956 60.1988C42.5316 58.3615 42.9974 56.5554 43.5584 54.822C44.2597 52.8687 45.1135 50.9361 46.3654 49.272C46.5906 49.104 46.8209 48.943 47.0529 48.7854C47.5932 48.5828 48.1387 48.3404 48.724 48.3213C49.3595 48.3334 49.9846 48.4962 50.6236 48.4876C52.4557 48.4477 54.3086 48.4235 56.087 47.9317C56.345 47.9161 56.603 47.904 56.861 47.8919C58.5269 47.9836 60.2135 47.7672 61.8101 47.2823C62.6933 47.0347 63.6301 47.1005 64.5133 46.8494C65.438 46.5949 66.3523 46.2953 67.2527 45.9628C68.2225 45.587 69.3065 45.5091 70.181 44.9013C70.91 44.3887 71.6979 43.9731 72.4685 43.5281C73.3413 43.0536 73.9196 42.212 74.7456 41.6735C75.6046 41.109 76.337 40.3817 77.0591 39.6561C77.3033 39.4223 77.3466 39.0742 77.4263 38.7643C78.202 37.4673 79.3536 36.4335 80.5173 35.488C80.9675 35.0689 81.2515 34.4992 81.7329 34.1113C82.3338 33.6178 82.9156 33.0983 83.4507 32.5338C84.4291 31.7736 85.598 31.3372 86.6629 30.7207C87.7227 30.1787 88.8812 29.8687 89.9687 29.3839C91.3817 28.8505 92.8657 28.544 94.3411 28.2462C95.5619 28.1925 96.7274 27.7423 97.9551 27.7804C97.9516 27.6886 97.9482 27.5985 97.9482 27.5085C98.5196 27.4583 99.1344 27.4375 99.6054 27.0617C100.469 26.4158 101.59 26.3084 102.499 25.7491C105.022 25.0097 107.311 23.6607 109.824 22.8953C110.948 22.4295 112.172 22.2945 113.317 21.8944C113.524 21.8425 113.679 21.6918 113.807 21.5273C113.954 21.3905 114.184 21.4078 114.371 21.3594C114.972 21.3247 115.49 20.9905 116.065 20.8502C117.142 20.7412 118.112 20.1316 119.222 20.2217Z" fill="#F76149"/>
<path d="M108.629 22.9386C110.34 22.4243 112.025 21.7421 113.807 21.5273C113.679 21.6919 113.525 21.8425 113.317 21.8945C112.172 22.2945 110.948 22.4295 109.824 22.8954C107.311 23.6607 105.022 25.0097 102.499 25.7491C102.492 25.6279 102.477 25.3872 102.47 25.266C102.977 25.4409 103.455 25.1275 103.917 24.9595C105.175 24.4158 106.518 24.0694 107.705 23.3716C108.002 23.2088 108.305 23.0512 108.629 22.9386Z" fill="#DEB14F"/>
<path d="M98.1189 26.9458C99.5424 26.3138 101.032 25.8566 102.471 25.2661C102.478 25.3873 102.493 25.628 102.5 25.7492C101.591 26.3086 100.471 26.4159 99.6064 27.0618C99.1354 27.4376 98.5207 27.4584 97.9492 27.5086C97.9492 27.5987 97.9527 27.6887 97.9562 27.7805C96.7284 27.7424 95.563 28.1926 94.3422 28.2463C92.8668 28.5441 91.3828 28.8507 89.9697 29.384C90.1394 29.1433 90.3022 28.868 90.6053 28.7779C91.8642 28.2636 93.2235 28.0783 94.524 27.6956C95.7033 27.3476 96.983 27.448 98.1189 26.9458Z" fill="#F16822"/>
<path d="M82.2358 33.0529C82.5302 32.672 82.9943 32.5594 83.4514 32.5352C82.9163 33.0997 82.3345 33.6192 81.7336 34.1127C81.2522 34.5006 80.9682 35.0703 80.518 35.4894C79.3543 36.4349 78.2027 37.4687 77.427 38.7657C76.9854 39.015 76.5854 39.3302 76.2564 39.7164C74.1593 41.9883 71.5861 43.8273 68.7271 45.0083C66.3045 46.0698 63.681 46.527 61.1113 47.088C59.7069 47.4361 58.228 47.3859 56.8617 47.8933C56.6037 47.9054 56.3457 47.9175 56.0877 47.9331C55.3587 47.9175 54.6314 47.8621 53.9023 47.8378C55.0556 47.095 56.4877 47.4569 57.7743 47.2266C59.3536 47.2231 60.8255 46.6032 62.3823 46.4439C63.5061 46.2153 64.5902 45.817 65.7244 45.6265C67.0266 45.1711 68.3842 44.8403 69.5981 44.1598C70.5419 43.7598 71.3142 43.0706 72.2251 42.6134C73.3991 42.0558 74.1195 40.9129 75.1879 40.2047C76.2286 39.4999 76.7101 38.2773 77.6365 37.4617C78.2131 36.9422 78.795 36.4279 79.3283 35.8634C80.2444 34.8694 81.3336 34.059 82.2358 33.0529Z" fill="#F46127"/>
<path d="M76.2559 39.7153C76.585 39.3292 76.985 39.014 77.4265 38.7646C77.3469 39.0746 77.3036 39.4227 77.0594 39.6565C76.3373 40.382 75.6048 41.1093 74.7459 41.6738C73.9199 42.2124 73.3416 43.054 72.4688 43.5285C71.6982 43.9735 70.9103 44.3891 70.1813 44.9017C69.3068 45.5095 68.2228 45.5874 67.253 45.9632C66.3526 46.2956 65.4382 46.5952 64.5135 46.8498C63.6304 47.1009 62.6936 47.0351 61.8104 47.2827C60.2138 47.7676 58.5272 47.984 56.8613 47.8922C58.2276 47.3849 59.7065 47.4351 61.1108 47.087C63.6806 46.526 66.3041 46.0688 68.7267 45.0073C71.5856 43.8263 74.1589 41.9873 76.2559 39.7153Z" fill="#F09113"/>
<path d="M47.1688 48.2473C47.6103 48.0291 48.0883 47.8716 48.587 47.9062C50.3585 47.9408 52.1369 48.0447 53.9015 47.8369C54.6305 47.8612 55.3578 47.9166 56.0868 47.9322C54.3084 48.4239 52.4555 48.4482 50.6234 48.488C49.9844 48.4967 49.3593 48.3339 48.7238 48.3218C48.1385 48.3408 47.593 48.5833 47.0527 48.7859C47.0908 48.6058 47.1307 48.4257 47.1688 48.2473Z" fill="#EE7D1B"/>
<path d="M35.5913 48.9778C37.6815 48.654 39.7993 48.583 41.9032 48.3856C43.6557 48.2453 45.4185 48.4185 47.1692 48.2471C47.1311 48.4254 47.0913 48.6055 47.0532 48.7856C46.8212 48.9432 46.5908 49.1042 46.3657 49.2722C46.3259 49.0679 46.2861 48.867 46.2462 48.6661C45.4254 48.4912 44.5804 48.6454 43.7509 48.6419C42.3587 48.6956 40.9595 48.5778 39.5759 48.7752C38.3412 48.9674 37.0823 48.9605 35.858 49.2133C34.1506 49.4887 32.4172 49.5718 30.7236 49.9268C29.2829 50.2264 27.8144 50.3493 26.3702 50.6298C25.6932 50.7424 25.0369 50.9814 24.3477 51.0056C25.1356 50.4532 26.1243 50.4463 27.0335 50.261C28.0448 50.0705 29.0457 49.8038 30.0777 49.7363C30.7583 49.6913 31.4336 49.5926 32.0986 49.4419C33.2449 49.1666 34.4294 49.1493 35.5913 48.9778Z" fill="#FDDEBE"/>
<path d="M43.9668 68.2671C44.7651 69.3563 45.2534 70.6377 46.1019 71.6958C47.4007 73.4621 49.0648 74.9963 51.0528 75.947C52.7117 76.8475 54.4208 77.7029 56.2564 78.1809C56.6841 78.3038 57.0911 78.4891 57.4876 78.6934C56.4209 78.7679 55.4477 78.2345 54.4676 77.8934C52.9853 77.3774 51.6034 76.6276 50.225 75.8847C49.1652 75.315 48.3098 74.4543 47.3903 73.6941C46.3773 72.546 45.3642 71.372 44.6491 70.0057C44.3755 69.4481 43.9772 68.913 43.9668 68.2671Z" fill="#E4BE65"/>
</svg>
