<svg width="153" height="100" viewBox="0 0 153 100" fill="none" xmlns="http://www.w3.org/2000/svg">
<rect x="14" y="52" width="112" height="48" rx="8" fill="#222C45"/>
<mask id="mask0" mask-type="alpha" maskUnits="userSpaceOnUse" x="-45" y="-10" width="216" height="110">
<path d="M-43.0047 2.02315C-46.1077 -3.31014 -42.2602 -10 -36.0899 -10H162.679C168.471 -10 172.343 -4.0357 169.986 1.25527L128.114 95.2553C126.828 98.141 123.965 100 120.806 100H18.601C15.7524 100 13.1187 98.4853 11.6862 96.0231L-43.0047 2.02315Z" fill="#222C45"/>
</mask>
<g mask="url(#mask0)">
<path d="M105.371 1.06948C105.347 0.304391 106.238 -0.294262 106.904 0.154056C107.597 1.47216 107.127 3.03188 106.66 4.3473C105.548 3.67348 105.32 2.26679 105.371 1.06948Z" fill="#63DDCB"/>
<path d="M108.251 4.18592C109.092 4.08122 110.101 4.00337 110.759 4.65034C110.939 5.31879 110.257 5.68657 109.698 5.77785C108.973 5.9067 108.222 5.87986 107.51 5.70268C107.202 5.06107 107.476 4.24766 108.251 4.18592Z" fill="#63DDCB"/>
<path d="M102.004 4.53574C102.933 4.33171 104.047 4.26728 104.829 4.91157C105.027 5.40553 104.429 5.51828 104.093 5.65519C103.277 5.80284 102.305 5.89411 101.61 5.35721C101.54 4.98674 101.672 4.71023 102.004 4.53574Z" fill="#63DDCB"/>
<path d="M106.335 5.9667C106.823 5.78684 107.248 6.28885 107.32 6.73717C107.535 7.75192 107.546 8.97875 106.783 9.77875C105.999 9.87539 105.76 8.91433 105.634 8.31836C105.551 7.52911 105.559 6.39086 106.335 5.9667Z" fill="#63DDCB"/>
<path d="M22.6523 6.03623C24.1584 5.74361 24.5879 7.68453 25.0362 8.74224C26.0617 8.73956 27.0738 8.88989 28.0912 9.00801C28.0536 9.52076 28.102 10.055 27.9382 10.5516C27.5543 11.1744 27.0228 11.6952 26.6604 12.3341C27.2912 13.1046 28.2308 13.8617 27.8926 14.9811C26.5718 15.4455 25.3503 14.6294 24.1235 14.259C23.6268 15.0831 23.0953 16.4576 21.8738 15.9583C21.4175 15.0214 21.6268 13.9529 21.5893 12.9516C20.6604 12.7449 19.302 12.6348 19.0846 11.4832C18.902 10.1543 20.6712 10.1275 21.5678 9.84827C21.9168 8.59728 21.651 7.00266 22.6523 6.03623Z" fill="#FD5138"/>
<path d="M121.07 20.4349C121.709 19.0309 123.008 17.9356 124.498 17.5625C126.385 17.4283 128.28 17.5679 130.17 17.6054C133.98 18.1397 137.582 19.6081 141.357 20.3276C142.543 20.5638 143.596 21.1839 144.656 21.7369C145.907 22.3759 147.069 23.2564 147.883 24.4161C148.457 25.1893 148.35 26.2013 148.366 27.1114C148.315 28.3677 148.299 29.6241 148.253 30.8832C148.004 33.6992 147.306 36.4831 146.106 39.0495C145.241 40.7864 144.374 42.5716 142.973 43.9542C141.096 46.1958 138.618 47.8709 135.934 48.9904C133.365 50.1447 130.578 50.9554 127.743 50.8937C124.879 50.9313 122.012 50.8669 119.147 50.9044C116.38 51.0118 113.62 51.3984 110.927 52.0588C109.961 52.3165 109.024 52.6897 108.036 52.8695C107.961 52.9527 107.805 53.1192 107.727 53.2024C106.554 53.5648 105.467 54.1393 104.353 54.6413C102.756 54.8319 101.013 54.6708 99.6094 55.6051C97.2309 57.1191 95.1182 59.0091 92.8471 60.6708C90.2645 62.4077 87.6901 64.166 84.9867 65.7097C83.5317 66.5392 82.0713 67.3929 80.4633 67.8949C79.4593 68.2331 78.3962 68.4237 77.4593 68.9338C77.1935 70.2895 77.7009 71.6586 77.6231 73.0277C77.6123 75.076 76.611 77.3176 74.6835 78.2142C72.8553 78.9068 71.054 77.6827 69.7144 76.5498C69.2151 76.2277 68.6782 75.5404 68.0258 75.8304C66.9279 76.6116 66.246 77.8921 65.0084 78.4988C64.042 79.0411 62.7507 78.8934 61.9266 78.1659C61.3843 77.5834 61.3897 76.7163 61.4058 75.9726C61.5668 73.8223 62.1789 71.7284 62.987 69.7365C61.9615 69.1754 60.9064 68.6734 59.8809 68.115C57.5239 66.7996 55.5964 64.8748 53.3656 63.3741C51.2609 61.9325 49.4998 60.0292 48.0475 57.9433C47.0059 56.5044 46.7401 54.7004 46.5844 52.9769C46.7911 52.0803 47.5213 51.2534 48.3374 50.8883C49.7978 50.7487 51.2958 50.9984 52.5387 51.8064C56.0823 53.9433 59.736 55.8896 63.3118 57.9675C65.5695 59.2292 68.1601 59.6077 70.6191 60.3003C71.5748 60.5741 72.662 60.7218 73.5399 60.1366C74.9117 59.2963 76.109 58.1956 77.4888 57.3607C79.3197 56.048 81.4002 55.1084 83.1183 53.6346C85.2901 51.9514 86.9277 49.7206 88.5921 47.5649C89.4109 46.5018 90.4041 45.5434 90.9303 44.2871C91.6712 42.6065 91.7249 40.7435 91.9343 38.9475C92.9706 37.7905 94.1571 36.7757 95.3276 35.7583C97.2416 34.5234 99.0269 33.0549 101.161 32.204C102.369 31.7422 103.542 31.1731 104.793 30.8241C106.769 30.3275 108.809 30.1583 110.833 29.9597C112.302 29.9275 113.8 29.8093 115.188 29.2859C116.38 28.8 117.268 27.804 118.052 26.8161C119.494 24.9154 120.036 22.5477 121.07 20.4349Z" fill="#FD5138"/>
<path d="M65.0915 8.26769C67.5022 7.91334 69.972 7.65025 72.3988 8.03414C74.6055 8.58984 76.3934 10.0905 78.0712 11.5536C80.1007 13.2582 82.1329 14.9951 83.7839 17.0837C85.8832 19.7602 87.0966 22.9682 88.6026 25.9856C89.4912 28.297 90.455 30.6514 90.5919 33.1534C90.659 33.156 90.7905 33.1668 90.855 33.1695C91.1529 35.1077 91.5798 37.0245 91.9341 38.9493C91.7247 40.7452 91.6711 42.6083 90.9301 44.2888C90.404 45.5452 89.4107 46.5036 88.5919 47.5666C86.9275 49.7223 85.2899 51.9532 83.1181 53.6364C81.4 55.1102 79.3195 56.0498 77.4887 57.3625C76.1088 58.1974 74.9115 59.2981 73.5397 60.1383C72.6619 60.7235 71.5746 60.5759 70.6189 60.3021C68.1599 59.6095 65.5693 59.2309 63.3116 57.9692C59.7358 55.8914 56.0822 53.9451 52.5386 51.8082C51.2956 51.0001 49.7977 50.7505 48.3373 50.8901C48.9789 50.8015 49.6232 50.7344 50.2621 50.6243C50.6621 48.627 50.5064 46.5868 50.5332 44.5626C50.5493 40.9815 50.5252 37.4003 50.5842 33.8191C50.6218 31.5936 51.2956 29.4406 51.4299 27.2259C51.5265 27.1588 51.7198 27.0299 51.8164 26.9655C51.9265 24.5816 52.9547 22.3964 53.6822 20.1629C54.3936 18.0233 56.0902 16.4502 57.1533 14.5012C58.8096 11.6287 61.6365 9.56164 64.8015 8.64353C64.874 8.54957 65.019 8.36165 65.0915 8.26769ZM74.9222 21.4917C74.0954 21.9535 73.5988 23.1212 74.2323 23.94C74.8363 25.4004 77.0511 24.7695 77.4269 23.4783C77.8054 22.1333 76.1437 20.8313 74.9222 21.4917ZM60.9626 22.8206C59.9291 23.3494 59.2365 24.74 60.1197 25.7252C61.011 27.0541 63.2311 26.5172 63.4727 24.9763C63.8566 23.6152 62.219 22.2407 60.9626 22.8206ZM69.0297 30.5708C68.3908 30.0688 67.7679 29.5319 67.0431 29.1614C66.4525 28.995 65.9451 29.5239 65.8673 30.0715C66.3237 31.5748 67.6955 32.5896 69.035 33.2768C69.5317 33.6124 70.0337 33.1775 70.4659 32.9386C71.5343 32.2809 72.4632 31.1238 72.3478 29.8057C72.3397 29.1883 71.6901 28.697 71.0914 28.8151C70.0337 28.7319 69.5397 29.8433 69.0297 30.5708Z" fill="#E5A101"/>
<path d="M33.9053 51.4431C36.6892 50.278 39.8891 50.2861 42.7482 51.1881C44.0824 51.6606 45.2877 52.4149 46.5844 52.9787C46.7401 54.7021 47.0059 56.5061 48.0475 57.9451C49.4998 60.0309 51.2608 61.9343 53.3655 63.3759C55.5964 64.8765 57.5239 66.8013 59.8809 68.1168C60.9064 68.6751 61.9614 69.1772 62.9869 69.7382C62.1789 71.7302 61.5668 73.8241 61.4057 75.9744C61.3896 76.718 61.3842 77.5851 61.9265 78.1677C62.7507 78.8952 64.0419 79.0428 65.0084 78.5006C66.2459 77.8939 66.9278 76.6133 68.0258 75.8321C68.6781 75.5422 69.215 76.2294 69.7143 76.5516C71.0539 77.6845 72.8553 78.9086 74.6834 78.216C76.6109 77.3194 77.6123 75.0778 77.623 73.0295C77.7008 71.6604 77.1935 70.2912 77.4592 68.9356C78.3961 68.4255 79.4592 68.2349 80.4632 67.8966C82.0713 67.3946 83.5317 66.5409 84.9867 65.7114C87.69 64.1678 90.2645 62.4094 92.847 60.6725C95.1181 59.0108 97.2309 57.1209 99.6094 55.6068C101.013 54.6726 102.756 54.8337 104.353 54.6431C105.607 55.1719 107.027 55.2632 108.184 56.0363C110.538 57.2981 112.64 59.4752 113.064 62.192C113.182 62.0685 113.306 61.9477 113.432 61.8296C113.794 63.9289 113.792 66.0873 113.617 68.2054C112.777 71.8349 110.117 74.7342 107.148 76.8308C105.357 77.9341 103.574 79.1771 101.486 79.6334C101.526 80.173 101.534 80.726 101.738 81.2334C102.595 83.5341 103.867 85.6763 104.415 88.087C105.679 91.5877 105.529 95.4051 104.992 99.0319C104.791 99.9956 104.294 100.876 104.165 101.861C104.103 101.864 103.977 101.864 103.913 101.864C103.14 103.714 101.886 105.3 100.573 106.793C97.9933 109.327 94.5436 110.621 91.1987 111.794C87.5316 112.857 83.7625 113.577 79.9639 113.958C74.3237 114.041 68.6835 113.982 63.0433 113.944C61.148 113.961 59.3037 113.389 57.4057 113.456C55.5105 113.515 53.634 113.244 51.7629 112.975C47.881 112.302 44.4206 110.248 41.3039 107.926C40.3052 106.779 39.32 105.614 38.461 104.361C37.6314 103.163 37.1268 101.789 36.5549 100.463C36.4878 100.6 36.4234 100.739 36.3617 100.879C36.4019 99.2306 35.4194 97.7594 35.4919 96.1031C35.4623 93.0105 35.3174 89.8857 35.908 86.8334C36.214 85.3246 36.4127 83.7918 36.9174 82.3314C37.1992 81.5905 37.2019 80.7932 37.1697 80.0173C35.1697 78.3717 33.3335 76.4711 32.0476 74.2053C30.1201 71.3033 28.504 68.1114 27.8034 64.6806C27.6423 62.0766 27.4222 59.2739 28.6705 56.8793C29.7094 54.5384 31.6073 52.5706 33.9053 51.4431ZM37.9053 60.4524C37.3872 60.7531 37.4113 61.4725 37.363 62.0014C37.3361 63.8 37.218 65.655 37.8167 67.3839C38.4207 69.2282 39.21 71.0456 40.324 72.6429C40.4099 72.6429 40.5791 72.6456 40.665 72.6456C41.72 70.9973 42.5495 69.2094 43.5374 67.5181C43.9884 66.5275 44.7938 65.5718 44.6784 64.4282C43.5025 62.8766 41.9428 61.6443 40.2704 60.6699C39.5777 60.2511 38.6462 60.0712 37.9053 60.4524ZM99.9664 64.8792C99.9637 64.9383 99.9583 65.0618 99.9557 65.1208C98.9651 65.5074 97.9503 65.8644 97.0268 66.3933C96.753 67.7195 97.3194 69.0054 97.7248 70.2429C98.0443 71.1154 98.2671 72.0416 98.7637 72.8416C99.212 73.0187 99.5959 72.5838 99.9718 72.4013C101.515 71.2899 103.123 70.0765 103.942 68.302C104.503 67.1987 104.283 65.902 104.015 64.7504C102.68 64.3289 101.298 64.6349 99.9664 64.8792Z" fill="#E5A101"/>
<path d="M74.9227 21.4917C76.1442 20.8313 77.8059 22.1333 77.4274 23.4782C77.0515 24.7695 74.8368 25.4004 74.2328 23.94C73.5992 23.1212 74.0959 21.9534 74.9227 21.4917Z" fill="#1F293F"/>
<path d="M60.9631 22.8208C62.2195 22.241 63.8571 23.6155 63.4732 24.9765C63.2316 26.5174 61.0114 27.0543 60.1202 25.7255C59.237 24.7403 59.9296 23.3497 60.9631 22.8208Z" fill="#1F293F"/>
<path d="M69.0304 30.5701C69.5404 29.8426 70.0344 28.7312 71.0921 28.8144C71.6908 28.6963 72.3404 29.1876 72.3485 29.805C72.4639 31.1231 71.535 32.2802 70.4666 32.9379C70.0344 33.1768 69.5324 33.6117 69.0357 33.2761C67.6962 32.5889 66.3244 31.5741 65.868 30.0708C65.9458 29.5232 66.4532 28.9943 67.0438 29.1607C67.7686 29.5312 68.3914 30.0681 69.0304 30.5701Z" fill="#1F293F"/>
<path d="M4.37312 66.6773C5.63754 65.1445 7.90866 64.8277 9.7234 65.421C12.6791 66.5485 13.726 70.7095 11.9892 73.2464C10.8348 74.9887 7.86033 75.0316 6.76772 73.1981C6.1637 72.1618 6.37578 70.8035 6.93953 69.7968C7.45497 68.8733 9.01737 68.6263 9.61871 69.5686C10.0643 70.4088 9.24018 71.1712 9.012 71.9444C9.19723 72.3337 9.58112 72.586 9.97038 72.2827C10.9153 71.5149 10.8939 70.1189 10.6442 69.0344C10.3033 67.4505 8.46972 66.6934 6.99054 66.8948C5.7127 66.9887 5.09526 68.28 4.03487 68.8223C4.01339 68.1028 3.87111 67.2787 4.37312 66.6773Z" fill="#F8A6D2"/>
<path d="M128.122 99.9688C128.885 99.8856 129.196 100.635 129.561 101.161C130.034 100.64 130.571 100.189 131.161 99.8077C131.102 100.495 131.03 101.185 130.928 101.869C131.61 101.934 132.305 101.979 132.971 102.178C133.054 102.5 133.121 102.86 132.944 103.169C132.257 103.491 131.505 103.641 130.769 103.797C130.944 104.583 130.971 105.402 130.686 106.173C130.079 105.802 129.483 105.383 129.124 104.755C128.557 105.443 127.854 106.063 126.914 106.092C127.016 105.069 127.556 104.186 128.01 103.292C127.113 103.061 125.921 103.091 125.526 102.071C126.423 101.928 127.357 101.966 128.232 101.684C128.238 101.11 128.173 100.538 128.122 99.9688Z" fill="#F8A6D2"/>
</g>
</svg>
