<svg width="125" height="72" viewBox="0 0 125 72" fill="none" xmlns="http://www.w3.org/2000/svg">
<rect y="24" width="48" height="48" rx="8" fill="#222C45"/>
<path d="M71.3719 0.0872323C71.4897 -0.0305789 71.669 -0.00659996 71.8171 0.0298902C72.0225 0.353089 71.913 0.759694 71.938 1.12147C72.0402 3.55901 70.8527 6.00803 68.8854 7.44991C68.5893 7.61568 68.314 7.81898 68.0086 7.96807C67.1099 8.31421 66.2049 8.83758 65.203 8.66451C64.5191 8.49457 63.8341 8.30065 63.1251 8.26833C62.6351 8.25686 62.1493 8.407 61.6582 8.3288C60.722 8.22872 59.7378 7.82837 59.2144 7.00681C58.9308 6.59604 58.6087 6.18631 58.4909 5.69213C58.397 5.0082 58.4085 4.26484 58.7776 3.65702C58.9736 3.3015 59.4719 3.16179 59.8254 3.36614C60.0464 3.45684 60.0683 3.72374 60.1381 3.92079C60.2674 4.4671 60.526 5.00298 60.9628 5.36789C61.0744 5.48048 61.2391 5.46276 61.383 5.44608C61.4518 4.90498 61.3329 4.3399 61.53 3.81757C61.6937 3.38803 61.9116 2.96057 62.2598 2.65197C62.7008 2.28603 63.3034 2.19845 63.8601 2.22869C64.1552 2.37986 64.4669 2.53416 64.6869 2.78959C64.8714 3.06796 64.9986 3.37969 65.1446 3.67995C65.327 4.03234 65.2176 4.4525 65.3771 4.81323C65.7045 5.06137 66.159 4.83826 66.4885 4.68708C66.8513 4.4108 67.2819 4.24294 67.651 3.97813C68.2233 3.40367 68.8718 2.91366 69.4421 2.33607C69.9165 2.03372 70.1156 1.48637 70.5128 1.10687C70.8287 0.792014 71.0372 0.383324 71.3719 0.0872323Z" fill="#E4A102"/>
<path d="M120.282 42.954C120.848 42.463 121.613 42.2826 122.347 42.269C123.048 42.3545 123.688 42.9154 123.84 43.6077C123.897 44.1509 123.885 44.7201 123.69 45.2373C123.347 45.7533 122.598 46.0692 122.03 45.7325C121.804 45.4854 121.755 45.1361 121.614 44.8421C121.274 44.8463 121.007 45.1017 120.778 45.3248C120.338 45.8148 119.948 46.3601 119.691 46.97C119.636 47.2098 119.27 47.2734 119.144 47.0597C118.789 46.6354 118.829 46.0505 118.824 45.5334C118.839 45.1997 118.797 44.84 118.965 44.5377C119.315 43.9445 119.717 43.3658 120.282 42.954Z" fill="#E4A102"/>
<path d="M113.358 42.5075C113.462 42.4627 113.6 42.4157 113.707 42.4835C113.911 43.1257 113.483 43.7284 113.405 44.356C113.303 45.0305 112.944 45.6728 113.019 46.3661C113.692 46.8728 114.359 47.4535 114.703 48.2438C114.925 49.0059 114.905 49.8128 114.86 50.5989C114.742 51.1442 114.33 51.5623 113.949 51.9449C113.341 52.4787 112.398 52.266 111.85 51.751C111.356 51.2516 111.023 50.626 110.633 50.0495C110.46 50.1152 110.319 50.2497 110.248 50.4217C109.934 51.1442 109.722 51.9074 109.4 52.6257C109.263 52.9281 108.911 52.9228 108.631 52.8728C108.294 52.6288 108.176 52.192 108.202 51.7937C108.133 50.6313 108.634 49.5376 109.221 48.5649C109.507 48.0394 109.98 47.5994 110.064 46.9812C110.272 45.6446 111.118 44.5186 112.068 43.6022C112.477 43.2164 112.838 42.7525 113.358 42.5075Z" fill="#E4A102"/>
<path d="M119.009 52.1901C119.46 52.0848 119.904 51.9503 120.357 51.8586C121.242 51.7981 122.216 51.77 122.979 52.2986C123.611 52.7698 124.217 53.3547 124.451 54.1314C124.518 54.5286 124.483 54.9352 124.492 55.3377C124.546 56.1165 123.977 56.8452 123.264 57.1101C122.52 57.526 121.466 57.1007 121.178 56.3114C121.104 55.8683 121.081 55.3033 121.505 55.0239C121.754 54.8623 121.873 54.5505 121.756 54.2701C121.428 53.8864 120.914 53.7498 120.438 53.6633C119.724 53.5132 118.973 53.7175 118.276 53.4735C118.117 53.3839 118.064 53.1983 118.016 53.0377C118.146 52.5874 118.568 52.2913 119.009 52.1901Z" fill="#E4A102"/>
<path d="M105.762 55.7995C106.88 55.8391 107.979 55.5336 109.099 55.5816C109.602 55.6139 110.189 55.4627 110.617 55.8005C111.175 56.3302 111.126 57.1382 111.223 57.8398C111.251 58.358 111.344 58.8699 111.39 59.387C111.424 60.5026 111.627 61.6046 111.657 62.7212C111.687 63.2831 111.906 63.9285 111.509 64.4153C110.195 64.6968 108.845 64.7886 107.522 65.0253C105.759 65.3276 103.976 65.5111 102.227 65.8833C101.323 66.0074 100.419 66.1273 99.5244 66.3055C98.5787 66.4849 97.6196 66.5839 96.6813 66.8008C95.9504 66.9728 95.1914 66.9269 94.4595 67.0896C93.5441 67.2918 92.609 67.3669 91.6884 67.5379C90.7626 67.7068 89.8159 67.7057 88.8901 67.8746C87.9549 68.0487 87.0061 68.128 86.0678 68.2843C83.3373 68.6034 80.6329 69.1226 77.8951 69.3884C76.9922 69.5167 76.0872 69.6261 75.1917 69.7992C74.2231 69.9118 73.2525 70.0108 72.2881 70.1568C71.9847 70.1902 71.6177 70.2684 71.3779 70.0234C70.9129 69.5667 70.891 68.8703 70.8295 68.2635C70.7211 66.6934 70.4302 65.1441 70.2749 63.5802C70.2248 62.7378 69.9746 61.909 70.0705 61.0614C70.1279 60.9655 70.2061 60.8904 70.3051 60.8383C70.9619 60.6516 71.6469 60.6277 72.3194 60.5453C72.3225 60.4984 72.3277 60.4035 72.3308 60.3566C73.5506 60.2356 74.783 60.1835 75.9799 59.8968C77.5072 59.7613 79.0429 59.6935 80.562 59.4662C81.983 59.388 83.3874 59.1576 84.7813 58.873C85.6623 58.6749 86.5724 58.6593 87.4503 58.4403C88.9266 58.2141 90.431 58.1317 91.8781 57.7408C92.4776 57.6052 93.1031 57.7137 93.7026 57.574C95.2957 57.1767 96.9304 56.9557 98.5735 56.9296C99.2804 56.9317 99.9476 56.6471 100.652 56.619C102.381 56.522 104.039 55.9413 105.762 55.7995Z" fill="#E4A102"/>
<path d="M62.7028 2.26072C63.075 2.15855 63.5046 1.99278 63.8611 2.22945C63.3044 2.19921 62.7018 2.28679 62.2608 2.65273C61.9125 2.96134 61.6946 3.38879 61.531 3.81833C61.3339 4.34066 61.4528 4.90574 61.384 5.44684C61.2401 5.46352 61.0754 5.48124 60.9638 5.36865C60.527 5.00374 60.2684 4.46786 60.1391 3.92155C60.0693 3.7245 60.0474 3.4576 59.8264 3.3669C59.4729 3.16255 58.9746 3.30226 58.7786 3.65778C58.4095 4.2656 58.398 5.00896 58.4919 5.69289C58.6097 6.18707 58.9318 6.5968 59.2154 7.00758C59.7388 7.82913 60.723 8.22948 61.6592 8.32957C62.1503 8.40776 62.6361 8.25763 63.1261 8.26909C63.8351 8.30141 64.52 8.49533 65.204 8.66527C66.2059 8.83834 67.1108 8.31497 68.0095 7.96883C68.315 7.81974 68.5903 7.61644 68.8863 7.45067C69.1897 7.98551 69.8424 8.08039 70.2886 8.45155C70.7463 8.82896 71.2426 9.15841 71.6951 9.54312C72.2257 10.0571 72.7731 10.5628 73.2016 11.1685C73.8918 11.9723 74.3515 12.9336 74.9385 13.8083C75.4734 14.6267 75.9175 15.4994 76.3335 16.3835C76.6254 17.0101 76.9528 17.6283 77.13 18.3008C77.6367 20.3025 78.2299 22.3001 78.3644 24.3717C78.3967 24.7898 78.4979 25.1985 78.5271 25.6165C78.5959 26.975 78.7251 28.3293 78.7846 29.6878C78.8065 30.9389 78.8065 32.19 78.7929 33.4411C78.7491 34.591 78.6136 35.7347 78.526 36.8816C78.5114 37.1318 78.4603 37.3904 78.5208 37.6385C78.7679 37.8887 79.163 37.8772 79.4914 37.9012C80.4162 37.8793 81.3451 37.7292 82.2146 37.4102C84.0913 36.7763 85.994 36.1559 87.977 35.9745C89.1363 35.8004 90.3103 35.8056 91.479 35.8025C91.7177 35.8453 91.847 35.6034 91.8814 35.4053C92.0149 34.6056 91.8241 33.783 91.9794 32.9886C92.1994 32.5757 92.5872 32.2536 93.0105 32.0628C93.6444 31.7646 94.5264 32.1201 94.6985 32.8197C95.0738 34.0541 95.177 35.3542 95.5304 36.5928C96.4729 37.1203 97.4519 37.6114 98.2745 38.3255C99.3411 39.144 100.105 40.4149 100.116 41.7817C100.102 42.6178 99.903 43.4832 99.3786 44.1536C99.1503 44.5028 98.7812 44.7739 98.6811 45.1951C99.1826 45.2503 99.7091 45.1044 100.19 45.3066C99.5319 45.4745 98.8458 45.3452 98.1786 45.4453C97.6312 45.4766 97.086 45.6257 96.5376 45.5621C95.5951 45.3765 94.9445 44.5622 94.5494 43.7397C94.3304 43.1714 93.9812 42.621 94.0135 41.9912C94.0343 41.1666 94.32 40.345 94.8173 39.6871C95.0394 39.3806 95.3657 39.1659 95.5742 38.8489C95.6514 38.2057 95.3605 37.5926 95.3115 36.9577C95.2364 36.0027 95.0394 35.0654 94.8611 34.126C94.7454 33.562 94.6599 32.9604 94.3158 32.4809C93.9833 31.9877 93.2243 31.9992 92.7947 32.3537C92.4965 32.5924 92.1035 32.8374 92.0618 33.2545C92.0003 33.9415 92.0764 34.6317 92.0368 35.3208C91.896 36.6595 91.9388 38.0096 91.9669 39.3525C92.1097 40.4357 91.9857 41.5304 92.1087 42.6137C92.1775 43.4133 92.1254 44.2161 92.1535 45.0168C91.7428 44.5873 91.2382 44.2213 90.6512 44.0889C89.8244 43.9158 88.9591 43.9617 88.149 44.19C85.6093 44.7353 83.1644 45.7779 80.5392 45.8665C79.7166 45.9082 78.8774 45.9259 78.0735 45.7132C77.6659 45.6184 77.2655 45.4463 76.8402 45.4672C76.5993 45.927 76.4909 46.441 76.3001 46.9216C76.1656 47.2552 76.0999 47.6128 76.1135 47.9736C76.052 47.9819 75.9279 47.9986 75.8654 48.0069C75.881 48.0862 75.9039 48.1654 75.9352 48.2425C76.787 48.5272 77.6909 48.5762 78.5708 48.7284C80.1847 48.9974 81.8258 48.9046 83.4543 48.9192C84.2049 48.9233 84.9587 48.94 85.7052 48.8368C86.4454 48.7367 87.1898 48.6835 87.9374 48.6992C88.9559 48.7221 90.0131 48.5824 90.9879 48.9577C91.8835 49.2288 92.7155 49.9273 92.899 50.8782C93.0376 51.5715 93.095 52.3711 92.6613 52.9779C92.3464 53.4137 91.9982 53.8422 91.5468 54.1435C90.573 54.7795 89.5294 55.3112 88.4367 55.7084C87.0188 56.1859 85.5384 56.4476 84.0569 56.6311C82.7182 56.8438 81.3566 56.7489 80.0127 56.6447C78.9483 56.6874 77.9255 56.3434 76.8714 56.262C75.368 56.1526 73.947 55.6052 72.4676 55.3602C72.0078 55.2883 71.5522 55.11 71.0831 55.1736C70.9569 55.4311 71.0414 55.7241 71.0664 55.9951C71.1498 56.8261 71.4511 57.6132 71.5825 58.4369C71.693 59.1198 71.9109 59.7985 72.3331 60.3573C72.33 60.4042 72.3248 60.4991 72.3216 60.546C71.6492 60.6284 70.9642 60.6523 70.3074 60.839C70.7557 60.4105 71.4876 60.7107 71.9599 60.3187C71.7993 59.5451 71.3281 58.8518 71.2999 58.0469C71.253 57.6893 71.3187 57.2098 70.9632 56.9919C70.2167 57.7529 69.5254 58.5661 68.8134 59.3585C64.4262 63.4871 59.4145 67.0798 53.7419 69.2098C52.0508 69.8969 50.293 70.4067 48.53 70.8769C47.5 71.0927 46.4907 71.4034 45.4461 71.5494C44.3535 71.6943 43.2723 71.9497 42.1651 71.9528C41.2643 72.0196 40.3614 72.0133 39.4617 71.9518C38.4087 71.9466 37.3828 71.6734 36.334 71.6234C35.3852 71.5431 34.4302 71.5045 33.4909 71.3377C32.4889 71.2679 31.5204 70.9926 30.532 70.8289C29.3289 70.5631 28.1518 70.1909 26.9841 69.802C25.8509 69.4517 24.7885 68.9221 23.6833 68.5009C20.6755 67.1184 17.7698 65.4982 15.0967 63.5403C13.3524 62.2141 11.6426 60.816 10.183 59.1719C7.86745 56.7427 5.93138 53.8829 4.92634 50.6582C4.09228 48.3958 3.76491 45.9134 4.17881 43.5259C4.51869 41.2667 5.63216 39.1846 7.04277 37.4123C8.27718 35.7639 9.90777 34.4576 11.6218 33.3379C12.4433 32.7707 13.3577 32.361 14.2272 31.8751C15.1248 31.4873 16.0037 31.0504 16.9233 30.7116C18.0232 30.2466 19.1815 29.938 20.2866 29.4835C20.566 29.3677 20.8548 29.2781 21.1447 29.1926C21.7796 29.0185 22.3499 28.6515 23.0088 28.5608C23.9023 28.42 24.7885 28.2344 25.6548 27.9728C26.4347 27.8216 27.1562 27.488 27.8849 27.1846C29.5697 26.3912 31.2514 25.5613 32.7496 24.4447C33.7265 23.693 34.6929 22.9152 35.5166 21.9946C36.2339 21.1168 37.1107 20.3859 37.8415 19.5195C38.6871 18.4957 39.6452 17.572 40.5387 16.5909C41.0933 16.1197 41.4082 15.4514 41.8815 14.9114C42.6843 14.0126 43.4099 13.0431 44.2513 12.1808C44.8331 11.7982 45.346 11.3291 45.8433 10.8443C47.0996 9.7777 48.4435 8.80289 49.8875 8.00428C50.3848 7.72591 50.9123 7.5101 51.4128 7.23694C52.5033 6.65206 53.7283 6.41122 54.895 6.02443C56.022 5.78672 57.1615 5.59384 58.3073 5.46144C58.4303 4.85048 58.251 4.16447 58.6409 3.62129C58.8943 3.07289 59.7096 2.94465 60.0922 3.42007C60.3581 4.07481 60.4509 4.99749 61.2057 5.2842C61.287 4.65552 61.2557 3.98932 61.556 3.41069C61.8073 2.92902 62.1377 2.40043 62.7028 2.26072ZM72.5416 18.0089C71.9359 18.1162 71.3239 18.1965 70.74 18.3977C69.956 18.5593 69.2585 18.9764 68.6028 19.4174C68.3786 19.5779 68.0992 19.7312 68.0429 20.0273C67.9157 20.5308 67.7374 21.0334 67.7583 21.5599C67.7479 21.7746 67.7937 22.0228 67.6269 22.1917C66.8564 22.3418 66.062 22.3731 65.2801 22.3209C65.2332 21.956 65.3061 21.5661 65.1331 21.2262C64.8672 20.6841 64.4596 20.167 63.8747 19.9543C63.4285 19.7885 62.9989 19.5446 62.5141 19.5122C61.9595 19.4288 61.3954 19.3569 60.8377 19.4497C60.3372 19.5466 59.8243 19.5039 59.3238 19.5977C58.5409 19.6186 57.7933 19.8751 57.0333 20.0398C56.2993 20.3265 55.4965 20.2744 54.7344 20.4318C53.892 20.6059 53.0267 20.6236 52.1863 20.805C51.5003 20.9468 50.7997 20.9948 50.1158 21.1428C49.1869 21.4035 48.1891 21.2408 47.2737 21.5745C46.2781 21.7465 45.2939 22.0123 44.3681 22.421C43.4589 22.8339 42.5998 23.5866 42.4539 24.624C42.4132 25.1098 42.3288 25.6718 42.6405 26.0899C42.8813 26.0961 43.2629 26.1899 43.3411 25.8751C43.5517 25.2902 43.6633 24.6021 44.2065 24.2164C44.9675 23.7128 45.8443 23.3979 46.7253 23.1769C47.4374 23.0841 48.1255 22.8756 48.8355 22.7776C49.6258 22.7526 50.4119 22.6567 51.1886 22.5149C51.7996 22.3887 52.4261 22.4398 53.0454 22.4179C53.6053 22.371 54.1745 22.2563 54.7344 22.3303C54.7584 22.371 54.8053 22.4513 54.8293 22.4919C54.8668 23.0163 54.7917 23.547 54.8991 24.0673C54.9575 24.9681 55.2974 25.8146 55.5184 26.6831C55.5966 27.0052 55.7488 27.3138 55.9813 27.5526C56.6298 28.0874 57.4858 28.2324 58.3 28.296C59.1028 28.4325 59.9191 28.3658 60.7292 28.3867C61.5112 28.3856 62.3254 28.4961 63.0719 28.2C63.442 28.0791 63.712 27.782 63.9664 27.5015C64.3605 27.0542 64.4919 26.4548 64.6827 25.9064C64.8495 25.4278 64.9214 24.9243 64.9829 24.4238C64.9902 24.3029 65.1216 24.2299 65.2332 24.233C65.5418 24.2122 65.8556 24.1965 66.1465 24.0756C66.6062 23.8765 67.1129 23.9015 67.5977 23.8129C67.6863 23.8723 67.7604 23.9599 67.752 24.0756C67.7625 24.7887 68.0398 25.4664 68.3682 26.0888C68.5214 26.3828 68.6278 26.7217 68.8989 26.9354C69.1658 27.1439 69.4566 27.3462 69.785 27.4431C70.1343 27.4838 70.4877 27.4577 70.8391 27.4525C71.3781 27.4588 71.8577 27.1762 72.38 27.0876C73.0348 26.9802 73.654 26.7321 74.3036 26.6049C74.8853 26.4224 75.5255 26.1618 75.8299 25.5957C76.2198 24.9451 76.1083 24.1528 76.0728 23.4323C75.9237 22.7338 76.102 22.0061 75.8956 21.318C75.6725 20.4057 75.5307 19.3965 74.8488 18.6917C74.2056 18.2007 73.3663 17.7982 72.5416 18.0089ZM68.1492 30.3978C67.7062 30.5479 67.3527 30.8617 67.0108 31.1683C66.7605 31.3726 66.4988 31.6374 66.1496 31.6155C65.5616 31.6072 64.9298 31.7125 64.3897 31.4247C63.9466 31.2298 63.687 30.7971 63.2929 30.5365C63.0854 30.3707 62.6934 30.4385 62.6517 30.7325C62.5026 31.6385 63.0802 32.4809 63.7496 33.0293C64.4783 33.561 65.3531 33.8894 66.2465 34.0041C67.6603 34.1271 69.2221 33.2545 69.5911 31.8303C69.8247 31.0223 68.9781 30.0996 68.1492 30.3978Z" fill="#F76149"/>
<path d="M111.393 59.3884C111.616 59.7356 111.584 60.162 111.619 60.5551C111.659 61.6654 111.785 62.7685 111.871 63.8757C111.847 64.1968 111.695 64.6086 111.319 64.6295C110.062 64.7963 108.793 64.887 107.546 65.1257C106.304 65.2988 105.076 65.5605 103.827 65.6783C101.672 66.1318 99.4813 66.3872 97.3169 66.7876C96.5444 67.0086 95.7332 66.9784 94.9492 67.1275C94.4154 67.1994 93.8962 67.3558 93.3582 67.3954C92.6535 67.4455 91.9727 67.6529 91.2689 67.703C90.0157 67.801 88.7834 68.0564 87.5323 68.1648C86.3584 68.4015 85.1605 68.4787 83.9803 68.6726C81.9952 68.9447 80.0205 69.271 78.0303 69.5035C75.967 69.735 73.9256 70.1186 71.8572 70.3021C71.436 70.3522 71.0669 70.0092 70.9345 69.6338C70.7437 69.1688 70.7937 68.659 70.7301 68.1721C70.5863 67.1535 70.5894 66.1141 70.3475 65.1111C70.2182 64.5961 70.2579 64.0613 70.163 63.5421C70.0587 62.9593 70.0504 62.3639 69.9169 61.7874C69.8481 61.533 69.8575 61.2432 70.0733 61.0628C69.9774 61.9104 70.2276 62.7393 70.2777 63.5817C70.433 65.1455 70.7239 66.6948 70.8323 68.2649C70.8938 68.8717 70.9157 69.5682 71.3807 70.0248C71.6205 70.2698 71.9875 70.1916 72.2909 70.1582C73.2553 70.0123 74.2259 69.9132 75.1945 69.8006C76.09 69.6276 76.995 69.5181 77.8979 69.3899C80.6357 69.124 83.3401 68.6048 86.0706 68.2858C87.0089 68.1294 87.9577 68.0502 88.8929 67.876C89.8187 67.7072 90.7653 67.7082 91.6912 67.5393C92.6118 67.3683 93.5469 67.2932 94.4623 67.091C95.1942 66.9283 95.9532 66.9742 96.6841 66.8022C97.6224 66.5853 98.5815 66.4863 99.5272 66.307C100.422 66.1287 101.326 66.0088 102.23 65.8847C103.979 65.5125 105.762 65.329 107.525 65.0267C108.848 64.79 110.198 64.6983 111.512 64.4168C111.909 63.9299 111.69 63.2845 111.66 62.7226C111.629 61.606 111.427 60.504 111.393 59.3884Z" fill="#FFA0D8"/>
<path d="M72.5416 18.0082C73.3663 17.7976 74.2056 18.2 74.8489 18.6911C75.5307 19.3959 75.6725 20.4051 75.8956 21.3173C76.102 22.0054 75.9238 22.7332 76.0728 23.4317C76.1083 24.1521 76.2199 24.9445 75.8299 25.595C75.5255 26.1611 74.8854 26.4218 74.3036 26.6042C73.6541 26.7314 73.0348 26.9796 72.38 27.087C71.8577 27.1756 71.3781 27.4581 70.8391 27.4519C70.4878 27.4571 70.1343 27.4831 69.7851 27.4425C69.4567 27.3455 69.1658 27.1433 68.8989 26.9347C68.6278 26.721 68.5215 26.3822 68.3682 26.0882C68.0398 25.4657 67.7625 24.7881 67.752 24.0749C67.7604 23.9592 67.6864 23.8716 67.5977 23.8122C67.1129 23.9008 66.6063 23.8758 66.1465 24.0749C65.8556 24.1959 65.5418 24.2115 65.2332 24.2324C65.1216 24.2292 64.9903 24.3022 64.983 24.4232C64.9215 24.9236 64.8495 25.4272 64.6827 25.9057C64.4919 26.4541 64.3605 27.0536 63.9665 27.5009C63.7121 27.7813 63.442 28.0784 63.0719 28.1994C62.3254 28.4955 61.5112 28.385 60.7293 28.386C59.9192 28.3651 59.1028 28.4319 58.3 28.2953C57.4858 28.2317 56.6298 28.0868 55.9814 27.5519C55.7489 27.3132 55.5966 27.0046 55.5184 26.6824C55.2974 25.814 54.9575 24.9674 54.8992 24.0666C54.7918 23.5464 54.8668 23.0157 54.8293 22.4913C54.8053 22.4506 54.7584 22.3703 54.7344 22.3297C54.1746 22.2556 53.6053 22.3703 53.0455 22.4172C52.4262 22.4391 51.7996 22.3881 51.1886 22.5142C50.4119 22.656 49.6258 22.7519 48.8355 22.7769C48.1255 22.8749 47.4374 23.0835 46.7254 23.1762C45.8444 23.3973 44.9676 23.7121 44.2065 24.2157C43.6633 24.6014 43.5518 25.2895 43.3412 25.8744C43.263 26.1893 42.8814 26.0955 42.6405 26.0892C42.3288 25.6711 42.4133 25.1092 42.4539 24.6233C42.5999 23.586 43.459 22.8332 44.3681 22.4204C45.2939 22.0117 46.2781 21.7458 47.2738 21.5738C48.1891 21.2402 49.1869 21.4028 50.1158 21.1422C50.7997 20.9941 51.5004 20.9462 52.1864 20.8044C53.0267 20.623 53.892 20.6053 54.7344 20.4311C55.4966 20.2737 56.2993 20.3258 57.0333 20.0391C57.7934 19.8744 58.5409 19.6179 59.3239 19.5971C59.8243 19.5032 60.3372 19.546 60.8377 19.449C61.3955 19.3562 61.9595 19.4282 62.5141 19.5116C62.9989 19.5439 63.4285 19.7879 63.8747 19.9536C64.4596 20.1663 64.8672 20.6834 65.1331 21.2256C65.3062 21.5655 65.2332 21.9554 65.2801 22.3203C66.062 22.3724 66.8565 22.3411 67.6269 22.191C67.7937 22.0221 67.7479 21.774 67.7583 21.5592C67.7375 21.0327 67.9157 20.5302 68.0429 20.0266C68.0992 19.7305 68.3786 19.5773 68.6028 19.4167C69.2586 18.9757 69.9561 18.5587 70.7401 18.3971C71.3239 18.1959 71.9359 18.1156 72.5416 18.0082ZM71.0904 22.8708C70.3835 22.9969 70.0843 23.8685 70.322 24.4857C70.519 24.8694 70.9204 25.1717 71.3646 25.1561C71.815 25.2082 72.1955 24.8621 72.4134 24.5034C72.4947 24.0531 72.5489 23.4859 72.1538 23.1606C71.8932 22.8541 71.4636 22.8124 71.0904 22.8708ZM60.6604 23.5881C59.9817 23.8352 59.6116 24.761 60.0422 25.3719C60.4561 25.8922 61.2026 25.9724 61.8146 25.8578C62.0763 25.6909 62.3192 25.4856 62.5162 25.2447C62.5631 24.9121 62.5746 24.565 62.5141 24.2345C62.3025 24.003 62.0742 23.7841 61.8198 23.6027C61.4518 23.4588 61.0316 23.4588 60.6604 23.5881Z" fill="#F6F4FF"/>
<path d="M71.091 22.8711C71.4642 22.8127 71.8937 22.8544 72.1544 23.1609C72.5495 23.4862 72.4953 24.0534 72.414 24.5038C72.1961 24.8624 71.8155 25.2086 71.3652 25.1564C70.921 25.1721 70.5196 24.8697 70.3226 24.4861C70.0849 23.8688 70.3841 22.9973 71.091 22.8711Z" fill="#1D2943"/>
<path d="M60.6603 23.5872C61.0315 23.4579 61.4516 23.4579 61.8197 23.6017C62.0741 23.7832 62.3024 24.0021 62.514 24.2335C62.5745 24.564 62.563 24.9112 62.5161 25.2438C62.3191 25.4846 62.0761 25.69 61.8145 25.8568C61.2025 25.9715 60.456 25.8912 60.0421 25.371C59.6115 24.76 59.9816 23.8342 60.6603 23.5872Z" fill="#1D2943"/>
<path d="M101.27 27.5999C101.202 27.431 101.131 27.1704 101.286 27.0359C101.714 26.9535 102.168 26.9952 102.575 27.1537C103.4 27.4634 104.163 27.9523 104.754 28.6081C104.897 28.8093 104.981 29.1357 104.838 29.3463C104.269 29.07 103.819 28.6029 103.245 28.3381C102.617 28.0138 101.952 27.7772 101.27 27.5999Z" fill="#1D2943"/>
<path d="M100.584 29.4834C100.688 29.2603 100.905 29.0476 101.174 29.107C101.735 29.1967 102.157 29.6106 102.586 29.9505C102.991 30.2737 103.316 30.7741 103.215 31.3142C102.965 31.3319 102.858 31.0337 102.659 30.9253C102.235 30.6563 101.823 30.3738 101.433 30.0589C101.169 29.8379 100.835 29.7159 100.584 29.4834Z" fill="#1D2943"/>
<path d="M68.1481 30.3977C68.977 30.0995 69.8236 31.0222 69.59 31.8302C69.221 33.2543 67.6592 34.127 66.2454 34.0039C65.352 33.8893 64.4772 33.5608 63.7485 33.0291C63.0791 32.4807 62.5015 31.6383 62.6506 30.7323C62.6923 30.4383 63.0843 30.3706 63.2918 30.5363C63.6859 30.797 63.9455 31.2296 64.3886 31.4246C64.9287 31.7124 65.5605 31.6071 66.1485 31.6154C66.4977 31.6373 66.7594 31.3725 67.0097 31.1681C67.3516 30.8616 67.705 30.5478 68.1481 30.3977Z" fill="#1D2943"/>
<path d="M92.7949 32.3529C93.2244 31.9984 93.9834 31.987 94.316 32.4801C94.66 32.9597 94.7455 33.5613 94.8613 34.1253C95.0395 35.0647 95.2366 36.0019 95.3116 36.9569C95.3606 37.5919 95.6515 38.2049 95.5744 38.8482C95.3659 39.1651 95.0395 39.3799 94.8175 39.6864C94.3202 40.3443 94.0345 41.1658 94.0136 41.9905C93.9813 42.6202 94.3306 43.1707 94.5495 43.7389C94.9447 44.5615 95.5952 45.3757 96.5377 45.5613C97.0861 45.6249 97.6314 45.4758 98.1787 45.4446C98.846 45.3445 99.532 45.4737 100.19 45.3059C101.182 45.2579 102.162 45.0369 103.159 45.063C103.575 45.0671 103.993 45.0265 104.408 45.0724C104.82 45.3163 105.349 45.5832 105.351 46.1368C105.404 46.9302 105.54 47.7236 105.484 48.5212C105.531 48.4795 105.579 48.4368 105.629 48.3961C105.511 49.7379 105.745 51.0745 105.716 52.4163C105.681 53.5422 105.987 54.688 105.765 55.7994C104.041 55.9412 102.383 56.5219 100.655 56.6189C99.9501 56.647 99.2828 56.9317 98.576 56.9296C96.9329 56.9556 95.2981 57.1767 93.705 57.5739C93.1056 57.7136 92.48 57.6052 91.8805 57.7407C90.4334 58.1317 88.929 58.214 87.4527 58.4403C86.5749 58.6592 85.6647 58.6749 84.7837 58.8729C83.3898 59.1576 81.9854 59.388 80.5644 59.4662C79.0454 59.6935 77.5097 59.7612 75.9823 59.8968C74.7854 60.1835 73.5531 60.2356 72.3333 60.3565C71.911 59.7977 71.6931 59.119 71.5826 58.4361C71.4512 57.6125 71.1499 56.8253 71.0665 55.9944C71.0415 55.7233 70.9571 55.4304 71.0832 55.1728C71.5524 55.1092 72.008 55.2875 72.4677 55.3595C73.9472 55.6045 75.3682 56.1518 76.8716 56.2613C77.9256 56.3426 78.9484 56.6867 80.0129 56.6439C81.3568 56.7482 82.7184 56.843 84.057 56.6304C85.5385 56.4469 87.019 56.1852 88.4369 55.7077C89.5295 55.3105 90.5731 54.7787 91.5469 54.1428C91.9983 53.8415 92.3466 53.413 92.6614 52.9772C93.0951 52.3704 93.0378 51.5707 92.8991 50.8774C92.7156 49.9266 91.8837 49.2281 90.9881 48.957C90.0133 48.5817 88.9561 48.7214 87.9375 48.6984C87.19 48.6828 86.4456 48.736 85.7053 48.8361C84.9589 48.9393 84.2051 48.9226 83.4544 48.9184C81.8259 48.9038 80.1849 48.9966 78.571 48.7276C77.6911 48.5754 76.7871 48.5264 75.9354 48.2418C75.9041 48.1646 75.8811 48.0854 75.8655 48.0062C75.9281 47.9978 76.0521 47.9811 76.1136 47.9728C76.9279 48.0489 77.6379 47.5203 78.4501 47.561C79.6991 47.415 80.9345 47.1585 82.1752 46.9469C82.8341 46.7332 83.5253 46.73 84.2092 46.6915C84.1967 46.6289 84.1853 46.5664 84.1748 46.5059C84.8244 46.5622 85.476 46.5142 86.1224 46.4371C86.7323 46.4121 87.3193 46.1994 87.9323 46.2098C88.8081 46.1858 89.6911 46.2578 90.5617 46.1347C90.5523 46.0826 90.5429 46.0326 90.5356 45.9825C91.0558 46.0086 91.5886 46.0607 92.1016 45.9408C92.1797 45.6395 92.1589 45.3236 92.1537 45.0161C92.1255 44.2154 92.1777 43.4126 92.1089 42.6129C91.9858 41.5297 92.1099 40.435 91.9671 39.3517C91.9389 38.0089 91.8962 36.6588 92.0369 35.3201C92.0765 34.6309 92.0004 33.9408 92.0619 33.2537C92.1036 32.8367 92.4967 32.5917 92.7949 32.3529Z" fill="#222C45"/>
</svg>
