<svg width="98" height="94" viewBox="0 0 98 94" fill="none" xmlns="http://www.w3.org/2000/svg">
<rect y="46" width="48" height="48" rx="8" fill="#222C45"/>
<path d="M34.6374 93.8353C33.9658 93.7498 33.1598 93.6277 32.8546 93.5545C32.5493 93.4812 31.8411 93.3346 31.2671 93.237C30.7054 93.1393 29.582 92.9439 28.7761 92.7974C26.3095 92.3578 24.1726 91.674 22.0478 90.6482C20.3139 89.8057 19.0562 88.8776 17.7862 87.5222C16.675 86.3377 15.9668 85.1411 15.3318 83.4193C14.6114 81.4412 14.5137 80.8062 14.5869 78.4006C14.6602 75.9706 14.9533 74.2733 15.7103 71.9898C16.2843 70.2681 17.7984 66.8124 18.1525 66.4216C18.3479 66.214 20.8267 61.3541 20.9489 60.9755C21.071 60.5848 20.7657 60.365 19.8987 60.2062C19.2271 60.0841 17.371 59.5102 15.7958 58.9241C13.3292 57.996 9.16525 55.2119 7.30918 53.2338C5.79502 51.6097 4.92804 50.2543 4.3297 48.5081C4.04884 47.6778 4 47.3603 4 46.0293C4 44.0267 4.2198 43.4283 5.31879 42.4026C5.95376 41.8165 6.23461 41.6455 6.99169 41.4135C8.15174 41.0594 8.57912 41.0716 9.75138 41.4868C10.8748 41.8775 12.1447 42.7445 12.8652 43.6237C13.7566 44.6861 19.0439 49.9124 19.5934 50.2665C19.8743 50.4619 20.1674 50.6694 20.2284 50.7549C20.4604 51.0358 22.4752 52.4278 23.1468 52.7697C23.965 53.1849 23.965 53.1849 24.7465 48.1662C24.9174 47.0916 25.1372 45.7728 25.2349 45.2356C25.3326 44.6983 25.528 43.5749 25.6623 42.7323C25.7966 41.902 26.0775 40.5221 26.2728 39.6796C26.456 38.837 26.7124 37.6892 26.8223 37.1152C26.9322 36.5413 27.1276 35.8331 27.2497 35.5278C27.384 35.2225 27.6283 34.5998 27.7992 34.1236C29.1424 30.5091 32.2074 26.3451 34.6496 24.8066C36.7499 23.5 39.3142 22.572 41.2924 22.401C42.9042 22.2667 45.4685 22.5231 46.7873 22.9627C48.2526 23.4389 50.6094 24.7211 51.6351 25.5881C51.7816 25.7224 52.3677 26.1986 52.9172 26.6748C54.1994 27.7494 56.5195 30.448 57.2521 31.7302C57.4353 32.0355 57.7162 32.4751 57.8871 32.7071C58.2779 33.2199 60.0118 36.1384 60.3537 36.8588C60.5003 37.1519 60.8788 37.8601 61.2085 38.4218C61.526 38.9835 61.8313 39.5697 61.8801 39.7162C61.9167 39.8627 62.1121 40.229 62.2953 40.5343C62.4907 40.8396 62.8692 41.6333 63.1623 42.3049C63.4431 42.9765 63.7484 43.6359 63.8339 43.7702C63.9193 43.9046 64.0781 44.2587 64.188 44.5639C64.7131 45.956 65.3847 47.5679 65.4946 47.7022C65.6655 47.9098 66.215 47.8976 66.6424 47.6778C66.8378 47.5801 67.1064 47.4946 67.2407 47.4946C67.546 47.4946 68.9991 46.6154 69.9638 45.8461C70.3423 45.5408 71.2093 44.7105 71.8809 43.99C75.7274 39.8749 76.2158 39.4109 77.7422 38.3608C78.6702 37.7258 79.6593 37.4205 80.4164 37.5304C80.6606 37.567 81.0514 37.6281 81.2834 37.6647C81.6131 37.7258 81.7108 37.6892 81.7108 37.5426C81.7108 37.2618 82.0649 37.3228 82.187 37.6403C82.248 37.7991 82.3824 37.9944 82.48 38.0799C82.7365 38.2875 83.4203 39.4964 83.4203 39.7406C83.4203 39.8383 83.347 39.9238 83.2493 39.9238C83.115 39.9238 83.0906 40.1069 83.1394 40.8762C83.2249 42.0485 83.0173 43.3551 82.6388 44.0145C82.4923 44.2831 82.2725 44.7471 82.1626 45.0524C82.0527 45.3577 81.7474 45.8827 81.491 46.2246C81.2223 46.5666 80.7339 47.2626 80.392 47.7754C79.6837 48.8134 77.5102 51.0602 76.4112 51.8905C75.6663 52.4523 73.6271 53.8321 72.8944 54.2717C72.6746 54.406 72.0396 54.7845 71.4779 55.1265C70.9285 55.4562 70.0493 55.9934 69.5242 56.2987C68.1932 57.1046 68.2054 57.0802 68.3886 58.2769C68.474 58.8264 68.6328 59.8521 68.7305 60.5603C68.9991 62.2699 69.0358 71.3915 68.7915 73.0766C68.3153 76.3003 67.143 79.5607 65.3724 82.5279C64.8107 83.456 63.3943 85.1899 62.7349 85.7394C62.4662 85.9592 61.9412 86.4232 61.5626 86.7529C60.3659 87.8031 59.4501 88.4869 58.693 88.8898C58.2901 89.1096 57.6551 89.4638 57.2888 89.6836C56.6538 90.0499 54.9443 90.8314 53.2958 91.503C51.0612 92.431 48.3503 93.0782 45.0778 93.469C44.2352 93.5789 43.0263 93.7376 42.3914 93.8353C40.9505 94.0551 36.3713 94.0551 34.6374 93.8353ZM46.0302 50.8038C46.5797 50.5229 46.9461 50.12 47.5322 49.1431C48.1427 48.1418 48.2038 47.9098 47.8863 47.7388C47.5932 47.5801 47.117 47.8731 46.9094 48.3494C46.7385 48.7401 46.1523 49.3873 45.8104 49.5705C45.6151 49.6681 45.2487 49.6926 44.6138 49.6315C43.8933 49.5705 43.6491 49.485 43.4415 49.2652C43.3072 49.1187 43.0141 48.9111 42.7943 48.8012C41.8174 48.3005 42.5135 49.5949 43.7224 50.5107C44.4062 51.0358 45.3464 51.1579 46.0302 50.8038ZM33.7704 45.956C33.9414 45.7728 34.1611 45.4676 34.271 45.2722C34.4176 44.9547 34.4298 44.857 34.2833 44.5029C34.1856 44.2709 33.9414 44.0022 33.7216 43.8923C33.343 43.697 33.2942 43.697 32.9034 43.9168C31.9754 44.4052 31.7556 45.2356 32.3661 45.8949C32.8179 46.3834 33.3186 46.3956 33.7704 45.956ZM54.4192 43.0254C54.6512 42.7811 54.8832 42.4514 54.9198 42.2927C55.0297 41.8409 54.7367 41.2792 54.2238 40.9495C53.772 40.6686 53.7354 40.6686 53.3446 40.8518C52.8806 41.0716 52.4044 41.7066 52.4044 42.1095C52.4044 42.4637 52.7707 43.0986 52.9783 43.0986C53.0638 43.0986 53.137 43.1475 53.137 43.2085C53.137 43.3306 53.4057 43.4283 53.7842 43.4527C53.8941 43.4527 54.1872 43.2696 54.4192 43.0254Z" fill="#F76149"/>
<path d="M82.7368 39.3496C82.5536 39.0321 82.2849 38.6291 82.1262 38.4582C81.9797 38.2872 81.8209 38.0308 81.7721 37.872C81.6744 37.5423 81.8942 35.2222 82.1384 34.0011C82.4559 32.3527 82.4681 32.1695 82.1873 31.8154C82.0529 31.6444 81.8576 31.4979 81.7721 31.4979C81.6744 31.4979 81.5523 31.4124 81.4912 31.3025C81.3813 31.1071 80.38 30.3501 79.513 29.825C79.2078 29.6418 78.9391 29.4586 78.9025 29.422C78.8414 29.3365 77.9378 28.5428 77.2662 27.9811C77.0831 27.8224 76.7412 27.6148 76.5091 27.5049C76.0329 27.2729 75.9963 27.1386 76.3138 26.7234C76.4359 26.5646 76.5702 26.3326 76.619 26.2227C76.7412 25.8686 77.2662 25.6244 78.121 25.5023C78.5728 25.4412 79.3177 25.2825 79.7817 25.1482C80.2335 25.0138 80.9906 24.7941 81.4546 24.6597C81.9186 24.5254 82.4803 24.4155 82.7123 24.4155C83.3229 24.4155 83.4328 24.2812 83.5549 23.3654C83.6037 22.9013 83.7381 22.0099 83.8357 21.375C83.9334 20.7522 83.9945 20.1294 83.9701 19.9951C83.9456 19.873 83.9945 19.7387 84.08 19.7021C84.1777 19.6654 84.312 19.3846 84.3852 19.0915C84.5806 18.31 85.0324 17.9193 85.6063 18.0169C85.8506 18.0658 86.168 18.2123 86.3268 18.3466C86.4484 18.4581 86.612 18.6873 86.6642 18.7202C86.663 18.7083 86.6683 18.7054 86.6809 18.713C86.6809 18.7254 86.6749 18.7269 86.6642 18.7202C86.669 18.7659 86.7702 18.9446 86.9251 19.177C87.1327 19.4701 87.499 20.105 87.731 20.5935C87.9753 21.0697 88.2439 21.4849 88.3172 21.5093C88.3904 21.5337 88.4759 21.7413 88.4881 21.9733C88.5492 22.5594 88.8667 23.2799 89.1475 23.4264C89.3063 23.5241 89.7825 23.4997 90.7105 23.3776C91.431 23.2799 92.5544 23.1334 93.1894 23.0479C93.861 22.9624 94.386 22.8403 94.4471 22.7426C94.5814 22.535 95.021 22.535 95.021 22.7548C95.021 22.9624 95.3751 23.0601 95.6926 22.938C96.1566 22.7548 96.9259 22.8159 97.1335 23.0479C97.622 23.5852 97.3167 24.3667 96.0712 25.7587L94.4349 27.8956L93.7022 28.6161L92.9818 29.3243L93.0428 29.9593C93.0917 30.5943 93.1649 30.7408 93.922 31.852L94.3494 32.487L94.4105 32.084L94.4837 31.6811L94.7035 32.084C94.8501 32.3771 94.8989 32.6335 94.8378 32.951C94.7646 33.3662 94.8256 33.4883 95.3507 34.1721C96.4015 35.5369 96.401 35.5398 96.2472 36.4378L96.2421 36.4678C96.2299 36.6021 95.4362 36.8707 95.0821 36.8707C94.7402 36.8707 94.6547 36.9196 94.6547 37.1149C94.6547 37.4202 94.2029 37.4569 94.1418 37.1638C94.093 36.8951 92.591 36.3579 91.7118 36.2968C91.1379 36.248 91.0036 36.1869 90.8937 35.9549C90.7472 35.6374 89.5627 34.917 89.1842 34.917C89.0376 34.917 88.8789 34.8315 88.8178 34.7216C88.7446 34.5995 88.5858 34.5506 88.3538 34.5751C88.0852 34.5995 87.9142 34.7582 87.5723 35.2955C86.9495 36.309 85.9605 37.5912 85.2278 38.3483C85.0446 38.5436 84.8615 38.7634 84.8004 38.8489C84.6295 39.1298 83.7014 39.7892 83.3839 39.8624C83.1153 39.9357 83.042 39.8746 82.7368 39.3496Z" fill="#D9A43A"/>
<path d="M44.0155 51.2554C43.5271 51.1333 42.2083 49.8756 41.9763 49.3139C41.7687 48.8132 41.9275 48.2515 42.3182 48.1538C42.6235 48.0806 43.4294 48.4835 43.7469 48.8743C43.9911 49.1673 45.1267 49.3749 45.4809 49.1795C45.7984 49.0208 46.2502 48.5079 46.4944 48.0561C46.7386 47.6165 47.1171 47.2746 47.4713 47.1769C47.7765 47.1037 48.4359 47.3967 48.5336 47.6654C48.7046 48.0928 47.9475 49.6802 47.1538 50.5838C46.4944 51.3409 45.2977 51.5973 44.0155 51.2554Z" fill="#1F2A45"/>
<path d="M32.6223 46.6398C31.6577 46.4078 31.2425 45.0524 31.853 44.1121C32.0606 43.8068 33.0009 43.2207 33.2939 43.2207C33.4038 43.2207 33.7091 43.3306 33.9778 43.4771C35.1378 44.0633 35.0645 45.7117 33.8434 46.5543C33.5259 46.7741 33.2939 46.7985 32.6223 46.6398Z" fill="#1F2A45"/>
<path d="M53.1133 43.7946C52.9179 43.7213 52.7714 43.6236 52.7714 43.5626C52.7714 43.5137 52.6981 43.4649 52.6126 43.4649C52.344 43.4649 52.0143 42.7322 52.0021 42.1217C51.9899 41.1204 52.7836 40.29 53.7605 40.29C54.3222 40.29 55.0304 40.8029 55.2624 41.3768C55.5189 42.0362 55.5066 42.3415 55.2014 42.8543C54.603 43.8434 53.9681 44.1365 53.1133 43.7946Z" fill="#1F2A45"/>
<path d="M68.6208 19.7874C68.1446 19.6287 67.0578 19.0182 67.0578 18.896C67.0578 18.8472 66.9845 18.7984 66.899 18.7984C66.7281 18.7984 65.3849 17.4674 65.0552 16.9667C64.64 16.3317 64.9331 15.7456 65.6657 15.7456C66.0443 15.7456 67.1066 16.1852 67.473 16.4905C67.6439 16.637 68.4254 17.2109 69.1336 17.7238C69.4389 17.9436 69.7808 18.2122 69.9029 18.3221C70.1838 18.5786 70.2326 19.3478 69.9762 19.5921C69.7442 19.8241 69.0604 19.9218 68.6208 19.7874Z" fill="#1F2A45"/>
<path d="M76.3743 8.91982C75.7271 8.51686 74.8601 7.06375 74.3106 5.43969C74.1519 4.97567 74.0176 4.47502 74.0176 4.3407C74.0176 3.98658 74.506 3.43709 74.8968 3.3394C75.5562 3.19287 76.6307 4.65819 77.6076 7.07596C78.0106 8.05284 78.0106 8.54128 77.6442 8.88319C77.2901 9.21289 76.8872 9.2251 76.3743 8.91982Z" fill="#1F2A45"/>
<path d="M89.574 5.61075C89.0611 5.40316 88.8535 4.8903 88.8657 3.82794C88.8902 2.24051 89.5496 0.543185 90.2944 0.189066C90.9416 -0.116209 91.3324 -0.0551536 91.772 0.396653C92.1139 0.738561 92.1749 0.885092 92.1993 1.48343C92.2238 2.30157 92.0284 3.03423 91.4667 4.18206C90.8317 5.50085 90.2944 5.90381 89.574 5.61075Z" fill="#1F2A45"/>
</svg>
