<svg width="50" height="41" viewBox="0 0 50 41" fill="none" xmlns="http://www.w3.org/2000/svg">
<path d="M10.6105 0.0243751C3.59415 0.547551 -0.631946 8.12779 0.0772474 14.5687C0.501601 18.4111 6.57044 18.4518 6.14609 14.5687C5.81474 11.5342 6.71578 7.41278 10.0874 6.34899C13.3427 5.32008 17.749 9.21483 17.6792 12.5108C17.5978 16.4172 23.6667 16.4172 23.7481 12.5108C23.8818 6.14554 17.0514 -0.452296 10.6105 0.0243751Z" fill="#F4F3F6"/>
<path d="M39.4077 1.72818C33.1994 1.2457 27.1305 6.61696 27.2177 12.866C27.27 16.7666 33.3389 16.7782 33.2866 12.866C33.2459 10.0757 36.5942 7.05294 39.4949 7.85515C42.6223 8.71548 42.8374 13.2729 43.0525 15.8481C43.378 19.7138 49.4469 19.7487 49.1213 15.8481C48.6214 9.7909 46.7264 2.30367 39.4077 1.72818Z" fill="#F4F3F6"/>
<path d="M23.0799 35.6885C22.237 30.4218 18.1272 26.2422 12.8199 25.504C7.93108 24.8297 1.93783 27.2711 1.10075 32.6482C0.507817 36.4674 6.35576 38.1183 6.95451 34.2643C7.37886 31.5321 10.762 30.9624 13.0408 31.7181C15.5811 32.561 16.8309 34.7816 17.232 37.3045C17.8424 41.1469 23.6903 39.5135 23.0799 35.6885Z" fill="#F4F3F6"/>
<path d="M38.4902 25.2648C32.869 25.1544 26.1549 30.6652 26.2014 36.4608C26.2363 40.3672 32.3051 40.373 32.2703 36.4608C32.247 33.9844 36.2115 31.3104 38.4554 31.3976C41.7049 31.5197 42.9082 35.0831 43.1407 37.8094C43.4662 41.6751 49.5409 41.71 49.2095 37.8094C48.7038 31.7987 45.309 25.3985 38.4902 25.2648Z" fill="#F4F3F6"/>
</svg>
