<svg width="135" height="87" viewBox="0 0 135 87" fill="none" xmlns="http://www.w3.org/2000/svg">
<path d="M16.0224 1.42414C9.9536 1.20324 2.90818 5.79557 3.39067 12.4399C3.6697 16.3114 9.74435 16.3405 9.45951 12.4399C8.97121 5.66187 21.0914 6.08622 21.5855 13.0503C21.8588 16.9218 27.9334 16.9566 27.6544 13.0503C27.201 6.77216 22.4749 1.66248 16.0224 1.42414Z" fill="#F4F3F6"/>
<path d="M52.779 11.1796C51.3257 8.45904 50.7212 5.34324 48.5064 3.06452C46.4602 0.965999 43.5653 0.0475354 40.7285 0.925308C34.7759 2.76224 32.1542 9.50539 33.1541 15.1906C33.8284 19.033 39.6822 17.4053 39.0079 13.5745C38.6242 11.4121 40.0542 6.36634 43.0654 6.62211C45.4371 6.81976 46.6346 12.5398 47.5414 14.243C49.3784 17.6902 54.6217 14.6267 52.779 11.1796Z" fill="#F4F3F6"/>
<path d="M78.3912 6.51119C76.4671 1.34919 70.8575 -1.29575 65.6141 0.628374C60.5683 2.48274 56.0284 8.41788 57.5688 13.9228C58.621 17.6781 64.4806 16.0853 63.4226 12.3068C62.2542 8.13304 70.6599 3.08149 72.5433 8.12141C73.8977 11.7488 79.7631 10.1792 78.3912 6.51119Z" fill="#F4F3F6"/>
<path d="M105.346 12.5463C102.91 6.77976 97.9106 1.21084 91.028 2.18163C85.0986 3.01289 81.8259 8.87246 82.9304 14.4588C83.6861 18.2896 89.5398 16.6678 88.7841 12.8428C88.1214 9.48864 91.3012 7.44245 94.2833 8.51205C97.3526 9.61653 98.9163 12.7905 100.102 15.6098C101.619 19.1965 106.845 16.1039 105.346 12.5463Z" fill="#F4F3F6"/>
<path d="M120.588 1.8254C112.944 1.07552 106.916 7.70241 107.48 15.1257C107.776 18.9972 113.845 19.0263 113.549 15.1257C113.241 11.0798 116.13 6.95834 120.647 7.95237C123.78 8.64412 125.692 11.6611 125.716 14.7246C125.745 18.631 131.813 18.6368 131.784 14.7246C131.744 8.35929 127.116 2.46484 120.588 1.8254Z" fill="#F4F3F6"/>
<path d="M28.0037 34.5294C25.6204 28.106 21.5687 23.5485 14.1512 24.3624C8.55327 24.9786 1.16484 28.7164 4.50154 35.3898C6.24546 38.8834 11.483 35.8141 9.74493 32.3263C9.09968 31.03 16.3311 30.2394 17.052 30.3731C20.0806 30.9486 21.1734 33.4889 22.1558 36.1396C23.4986 39.7728 29.3698 38.2033 28.0037 34.5294Z" fill="#F4F3F6"/>
<path d="M54.9981 31.4775C52.5217 26.3795 47.7085 22.7928 41.8547 24.1705C37.0008 25.3157 31.025 29.1 32.1295 34.727C32.8794 38.5578 38.7331 36.936 37.9833 33.111C37.7275 31.803 43.4998 29.9952 44.1509 29.9661C47.0865 29.8324 48.6154 32.1809 49.7605 34.5352C51.4638 38.0521 56.7013 34.977 54.9981 31.4775Z" fill="#F4F3F6"/>
<path d="M79.5245 28.9902C76.9376 24.7932 72.1186 22.3285 67.1892 23.4794C62.2655 24.6304 58.3417 29.1995 58.7195 34.3441C59.0044 38.2156 65.079 38.2446 64.7884 34.3441C64.3698 28.7112 71.7117 27.8799 74.2869 32.0479C76.3273 35.373 81.5823 32.3269 79.5245 28.9902Z" fill="#F4F3F6"/>
<path d="M106.352 32.4435C105.038 29.9264 104.561 27.0722 102.312 25.1307C99.7306 22.8984 95.673 22.7299 92.4584 23.1658C86.407 23.9855 81.4601 29.7346 84.7038 35.7337C86.564 39.1692 91.8015 36.1115 89.9472 32.6702C88.116 29.287 95.0162 28.8045 96.7717 29.2056C99.6434 29.8683 99.8991 33.1701 101.114 35.5012C102.916 38.9774 108.154 35.9081 106.352 32.4435Z" fill="#F4F3F6"/>
<path d="M134.336 36.5645C133.197 30.0771 127.54 25.1999 120.879 25.4441C115.019 25.6592 108.363 30.3096 110.177 36.8319C111.223 40.5871 117.077 38.9943 116.031 35.2158C115.095 31.8559 121.227 31.2106 123.181 31.7222C126.302 32.5418 127.959 35.1577 128.488 38.1747C129.162 42.0171 135.01 40.3895 134.336 36.5645Z" fill="#F4F3F6"/>
<path d="M10.6105 46.0739C3.59415 46.5971 -0.631946 54.1773 0.0772474 60.6182C0.501601 64.4607 6.57044 64.5013 6.14609 60.6182C5.81474 57.5838 6.71578 53.4623 10.0874 52.3986C13.3427 51.3696 17.749 55.2644 17.6792 58.5604C17.5978 62.4668 23.6667 62.4668 23.7481 58.5604C23.8818 52.1951 17.0514 45.5973 10.6105 46.0739Z" fill="#F4F3F6"/>
<path d="M39.4077 47.778C33.1994 47.2955 27.1305 52.6668 27.2177 58.9158C27.27 62.8164 33.3389 62.828 33.2866 58.9158C33.2459 56.1255 36.5942 53.1027 39.4949 53.905C42.6223 54.7653 42.8374 59.3227 43.0525 61.8979C43.378 65.7636 49.4469 65.7985 49.1213 61.8979C48.6214 55.8407 46.7264 48.3535 39.4077 47.778Z" fill="#F4F3F6"/>
<path d="M23.0799 81.7383C22.237 76.4716 18.1272 72.292 12.8199 71.5538C7.93108 70.8795 1.93783 73.3209 1.10075 78.698C0.507817 82.5172 6.35576 84.1681 6.95451 80.3141C7.37886 77.5819 10.762 77.0122 13.0408 77.7679C15.5811 78.6108 16.8309 80.8314 17.232 83.3543C17.8424 87.1967 23.6903 85.5633 23.0799 81.7383Z" fill="#F4F3F6"/>
<path d="M38.4902 71.3144C32.869 71.2039 26.1549 76.7147 26.2014 82.5103C26.2363 86.4167 32.3051 86.4225 32.2703 82.5103C32.247 80.034 36.2115 77.36 38.4554 77.4472C41.7049 77.5692 42.9082 81.1326 43.1407 83.859C43.4662 87.7247 49.5409 87.7595 49.2095 83.859C48.7038 77.8483 45.309 71.4481 38.4902 71.3144Z" fill="#F4F3F6"/>
</svg>
