<svg width="219" height="365" viewBox="0 0 219 365" fill="none" xmlns="http://www.w3.org/2000/svg">
<path d="M196.738 357.412C200.108 353.512 202.638 349.172 204.838 344.522C205.898 342.282 206.878 340.012 207.908 337.752C208.688 336.042 209.508 333.492 210.798 331.702C211.848 331.912 212.988 331.472 213.288 330.112L213.608 328.672C214.038 326.732 212.038 325.092 210.248 326.082C206.098 328.382 204.568 334.072 202.738 338.142C200.188 343.802 197.598 349.412 193.508 354.152C191.578 356.392 194.808 359.642 196.738 357.412Z" fill="#F76149"/>
<path d="M188.219 363.702C198.559 352.312 206.279 338.002 212.259 323.892C213.399 321.212 209.449 318.872 208.299 321.582C202.489 335.292 195.029 349.402 184.979 360.462C183.009 362.642 186.239 365.892 188.219 363.702Z" fill="#F76149"/>
<path d="M156.519 330.702C154.859 330.582 153.229 332.932 154.639 334.712C156.069 336.522 162.869 345.612 165.049 339.312C165.789 337.182 163.709 334.082 162.749 332.372C161.549 330.232 160.169 328.252 159.529 326.022C162.479 328.192 165.399 332.972 166.889 334.972C169.389 338.322 171.659 341.832 173.779 345.432C174.889 347.312 177.239 346.582 177.859 345.022C178.919 346.152 180.069 347.212 181.349 348.192C183.689 349.982 185.969 346.002 183.659 344.232C174.519 337.242 171.799 324.872 163.929 316.692C161.879 314.562 158.649 317.802 160.689 319.932C162.199 321.502 163.509 323.192 164.729 324.952C162.629 322.542 160.219 320.472 156.909 320.312C155.579 320.252 154.739 321.422 154.619 322.602C154.349 325.212 154.949 327.522 156.079 329.882C156.209 330.162 156.359 330.432 156.519 330.702Z" fill="#F76149"/>
<path d="M118.078 355.861C121.038 353.961 123.718 351.691 126.018 349.061C124.598 351.221 122.868 353.191 120.798 354.931C118.538 356.831 121.798 360.061 124.038 358.171C129.648 353.441 133.338 346.961 134.528 339.721C134.788 338.151 133.598 337.081 132.388 336.881C132.508 335.031 131.838 333.421 129.528 332.791C126.678 332.001 125.468 336.421 128.308 337.211C128.078 337.151 123.698 344.751 123.068 345.511C120.988 348.041 118.518 350.141 115.768 351.901C113.298 353.491 115.588 357.451 118.078 355.861Z" fill="#F76149"/>
<path d="M199.789 301.582C199.799 302.062 199.779 302.542 199.719 303.022C199.719 303.042 199.709 303.062 199.709 303.072C199.689 303.272 199.659 303.482 199.629 303.682C199.339 306.232 203.619 306.812 204.129 304.292C205.749 296.232 207.069 288.132 208.139 279.982C208.519 277.072 203.939 277.092 203.559 279.982C203.169 282.962 202.729 285.942 202.259 288.912C202.509 284.222 202.229 279.522 201.389 274.802C200.869 271.902 196.459 273.132 196.969 276.022C198.359 283.792 198.049 291.512 196.119 299.162C195.529 301.482 198.329 302.722 199.789 301.582Z" fill="#F76149"/>
<path d="M143.188 292.882C144.218 295.612 148.649 294.432 147.609 291.662C147.409 291.132 147.259 290.642 147.159 290.162C152.029 293.672 155.459 299.092 161.079 301.682C163.009 302.572 165.529 300.652 164.209 298.552C163.949 298.132 163.679 297.732 163.399 297.332C164.819 297.022 165.949 295.572 164.889 294.072C160.159 287.432 155.019 280.792 146.889 278.372C144.879 277.772 143.419 280.022 144.299 281.732C144.729 282.572 145.219 283.372 145.729 284.142C144.529 283.852 143.238 284.332 142.878 285.682C142.208 288.212 142.258 290.422 143.188 292.882Z" fill="#F76149"/>
<path d="M107.518 308.622C108.308 308.242 109.078 307.842 109.848 307.432C109.788 307.892 109.768 308.352 109.799 308.792C109.528 309.742 109.948 310.812 110.698 311.392C111.488 312.362 112.818 312.842 114.838 312.372C118.598 311.502 122.008 308.252 122.538 304.422C126.198 301.252 129.568 297.752 132.598 293.892C134.398 291.602 131.179 288.332 129.359 290.652C128.529 291.712 127.668 292.732 126.788 293.732C127.248 291.922 125.378 289.722 123.518 291.072C121.118 292.812 118.858 294.732 116.788 296.842C115.138 296.732 113.408 297.252 111.998 298.492C111.098 299.292 111.108 300.292 111.578 301.072C109.538 302.382 107.418 303.582 105.198 304.642C102.548 305.942 104.868 309.892 107.518 308.622Z" fill="#F76149"/>
<path d="M78.1385 327.542C75.7085 328.202 75.0085 331.112 74.9685 333.332C74.9185 336.062 76.0385 338.542 77.8685 340.522C78.9185 341.652 80.2985 341.302 81.0985 340.402C81.4085 341.502 81.7185 342.602 82.0385 343.692C82.6385 345.752 85.9885 345.992 86.4585 343.692C86.4985 343.492 86.5285 343.292 86.5685 343.092C87.7385 343.142 88.9485 342.342 88.9985 340.862C89.0585 338.982 88.6985 337.642 87.8285 336.002C87.7385 335.822 87.6285 335.672 87.5085 335.542C85.7785 329.762 84.0485 323.992 82.3185 318.212C81.4785 315.392 77.0485 316.592 77.8985 319.432C78.7285 322.202 79.5585 324.962 80.3785 327.732C79.7185 327.412 78.9785 327.312 78.1385 327.542Z" fill="#F76149"/>
<path d="M47.5679 340.381C49.4879 343.781 50.8079 347.231 51.7079 351.021C52.2879 353.481 55.5779 352.931 56.1079 350.921C57.4179 353.811 58.9679 356.581 61.0379 359.131C62.8979 361.421 66.1179 358.161 64.2779 355.891C58.2179 348.451 56.9079 338.411 52.5079 330.041C51.5879 328.301 48.7879 328.721 48.3179 330.591C47.7079 333.011 47.7279 335.331 48.0579 337.591C47.3179 338.241 46.9479 339.281 47.5679 340.381Z" fill="#F76149"/>
<path d="M46.8483 298.451C47.2083 299.771 48.4383 300.231 49.6683 300.051C50.1483 299.981 50.6183 299.911 51.0983 299.851L51.0883 299.861C49.6883 301.161 50.5583 302.971 51.9283 303.541C50.6683 304.151 50.6582 305.771 51.4582 306.831C51.0782 306.941 50.7082 307.061 50.3282 307.171C47.4982 307.991 48.7083 312.411 51.5483 311.591C54.2883 310.801 56.9682 309.861 59.5882 308.731C61.3882 307.961 63.5982 307.181 65.1282 305.801C66.7182 305.531 68.2982 305.251 69.8882 304.981C72.7882 304.481 71.5583 300.061 68.6683 300.561C68.0083 300.671 67.3582 300.791 66.6982 300.901C66.5182 300.281 66.2283 299.691 65.7983 299.151C64.1883 297.121 61.6483 296.821 59.2183 296.771C58.9883 296.771 58.7883 296.801 58.5983 296.841C58.6183 295.441 57.2382 294.391 55.7082 294.611C53.2882 294.961 50.8682 295.301 48.4482 295.651C47.2282 295.811 46.5583 297.371 46.8483 298.451ZM61.3683 301.521C61.4283 301.621 61.4782 301.711 61.5182 301.801C59.1482 302.211 56.7783 302.621 54.4083 303.031C55.4383 302.061 56.3482 300.991 57.1482 299.831C57.4182 300.651 58.1083 301.321 59.2283 301.351C59.9383 301.321 60.6583 301.381 61.3683 301.521Z" fill="#F76149"/>
<path d="M89.9884 266.652C90.0884 266.632 90.1884 266.612 90.2884 266.582C89.3784 267.602 88.4783 268.632 87.6283 269.722C86.2283 271.502 87.4884 274.022 89.8584 273.552C92.7384 272.972 95.5184 272.162 98.2384 271.042C100.778 269.992 103.598 267.722 106.378 267.762C109.328 267.812 109.328 263.232 106.378 263.182C103.398 263.132 101.198 264.632 98.5984 265.892C97.8684 266.242 97.1283 266.562 96.3783 266.862C97.3383 265.942 98.3083 265.032 99.3383 264.162C101.198 262.592 99.1684 259.862 97.1084 260.332L88.7783 262.232C85.8983 262.892 87.1084 267.312 89.9884 266.652Z" fill="#F76149"/>
<path d="M177.438 234.531C179.408 239.731 181.378 244.921 183.358 250.121C184.138 252.161 186.458 252.111 187.408 250.761C188.508 251.951 190.888 251.421 191.268 249.751C191.828 247.281 191.848 244.821 191.688 242.371C192.818 245.761 193.878 249.171 194.828 252.621C195.608 255.461 200.028 254.251 199.248 251.401C197.078 243.511 194.428 235.801 191.298 228.251C190.558 226.451 187.278 225.731 186.878 228.251C186.408 231.211 186.638 234.181 186.908 237.141C186.138 234.411 185.518 231.621 185.078 228.771C184.718 226.451 181.208 226.731 180.658 228.771C180.578 229.081 180.518 229.381 180.468 229.691C180.218 229.031 179.968 228.361 179.708 227.701C178.968 225.741 176.748 225.561 175.518 227.151C174.178 228.891 173.688 230.591 173.688 232.781C173.708 234.921 176.118 235.501 177.438 234.531Z" fill="#F76149"/>
<path d="M136.548 255.412C136.718 254.882 136.858 254.342 137.018 253.812C137.128 255.362 137.228 256.902 137.338 258.452C137.538 261.372 142.118 261.402 141.918 258.452C141.178 247.752 140.438 237.052 139.698 226.352C139.498 223.432 134.918 223.402 135.118 226.352C135.218 227.772 135.318 229.182 135.408 230.602C134.338 230.932 133.408 231.942 133.668 233.352C134.938 240.432 134.368 247.362 132.138 254.202C131.208 257.002 135.638 258.212 136.548 255.412Z" fill="#F76149"/>
<path d="M65.5486 238.682C71.4986 238.512 77.3985 237.712 83.1285 236.212C82.9585 237.732 84.0686 239.352 85.8486 238.632C93.5786 235.492 101.129 232.012 108.519 228.132C111.129 226.762 108.819 222.802 106.209 224.172C103.799 225.432 101.369 226.642 98.9286 227.832C98.9286 227.822 98.9385 227.822 98.9385 227.812C99.0485 227.732 99.1485 227.652 99.2585 227.552C100.679 226.122 102.099 224.682 103.519 223.252C105.659 221.102 102.539 218.242 100.279 220.012C99.5185 220.612 98.7286 221.152 97.9186 221.672C96.6186 221.172 94.8685 221.962 94.7085 223.482C90.9185 225.342 86.7985 226.442 82.5085 226.712C79.5785 226.892 79.5585 231.482 82.5085 231.292C83.1385 231.252 83.7585 231.202 84.3785 231.132C83.2385 231.482 82.0786 231.802 80.9186 232.082C75.8786 233.342 70.7585 233.952 65.5585 234.102C62.5985 234.192 62.5886 238.772 65.5486 238.682Z" fill="#F76149"/>
<path d="M34.6582 260.472C40.7082 265.422 46.1982 270.932 51.1282 277.002C52.9882 279.292 56.2082 276.032 54.3682 273.762C52.7482 271.772 51.0582 269.852 49.3182 267.972C49.4282 268.092 49.5482 268.212 49.6582 268.332C49.9482 268.632 50.2582 268.822 50.5682 268.922C52.9282 270.852 55.1982 272.892 57.4782 274.832C59.7082 276.732 62.9682 273.502 60.7182 271.592C57.9882 269.272 55.2882 266.862 52.4682 264.632C48.6182 260.442 43.8982 253.592 37.6382 254.032C36.0082 254.152 35.2782 255.622 35.4682 256.872C34.0482 257.442 33.1582 259.242 34.6582 260.472Z" fill="#F76149"/>
<path d="M201.848 206.951C202.178 207.721 202.838 208.031 203.538 208.051C204.258 209.511 206.198 209.821 207.288 208.611C207.478 210.991 211.298 211.691 211.768 209.101C212.808 203.421 213.848 197.731 214.888 192.051C215.328 189.631 212.298 188.381 210.998 189.761C210.098 189.701 209.208 190.141 208.878 191.221C208.468 190.531 207.638 190.221 206.818 190.261C206.148 188.761 203.798 188.061 202.728 189.911C199.658 195.291 199.448 201.281 201.848 206.951Z" fill="#F76149"/>
<path d="M170.979 209.991C171.959 211.891 174.309 211.191 175.009 209.671C175.539 210.311 176.159 210.851 176.969 211.171C180.209 212.451 184.019 208.101 180.959 205.551C179.899 204.671 178.619 204.921 177.799 205.631C177.419 204.991 177.049 204.341 176.679 203.701C175.809 202.201 174.939 200.711 174.069 199.211C173.149 197.621 171.079 197.851 170.109 199.211C167.729 202.561 169.279 206.711 170.979 209.991Z" fill="#F76149"/>
<path d="M162.839 263.262C164.219 267.042 165.479 270.862 166.609 274.722C167.279 277.012 170.689 276.792 171.069 274.582C171.189 274.642 171.309 274.702 171.429 274.742C171.539 275.312 171.509 275.932 171.299 276.572C170.359 279.372 174.779 280.572 175.719 277.792C176.679 274.922 175.759 271.622 173.589 269.582C172.719 267.152 171.729 264.772 170.609 262.442C169.929 261.022 168.209 261.062 167.169 261.902C166.059 259.362 161.839 260.542 162.839 263.262Z" fill="#F76149"/>
<path d="M127.478 202.122C128.148 201.862 128.798 201.582 129.438 201.282C128.578 202.762 127.728 204.252 126.898 205.752C125.728 207.862 128.018 209.832 130.028 208.882C133.468 207.272 135.278 203.372 137.298 200.352C139.688 196.772 142.078 193.202 144.468 189.622C145.458 188.942 145.828 188.232 145.828 186.902C145.828 184.582 142.908 183.942 141.638 185.642C140.688 185.222 139.478 185.362 138.728 186.472C138.208 187.242 137.698 188.032 137.188 188.802C135.368 191.362 133.218 193.622 130.658 195.372C130.898 194.602 131.128 193.832 131.368 193.072C132.238 190.252 127.818 189.042 126.948 191.852C126.188 194.332 125.428 196.822 124.658 199.302C124.188 200.872 125.838 202.752 127.478 202.122Z" fill="#F76149"/>
<path d="M38.6083 218.942C38.8183 220.382 39.0482 221.822 39.3082 223.252C39.7382 225.612 43.0883 225.242 43.7283 223.252C44.4983 220.832 44.8883 218.362 45.1183 215.872C45.2783 218.292 45.3683 220.722 45.3683 223.172C45.3683 226.122 49.9482 226.122 49.9482 223.172C49.9382 214.392 48.9383 205.742 46.9683 197.192C46.4483 194.932 43.1583 195.102 42.5483 197.192C42.1083 198.682 41.8183 200.192 41.6083 201.712C40.4983 200.222 37.5582 200.692 37.4482 203.072L36.8383 216.772C36.7883 218.052 37.6283 218.782 38.6083 218.942Z" fill="#F76149"/>
<path d="M211.678 260.701C211.668 260.961 211.678 261.221 211.668 261.491C211.648 262.171 211.868 262.681 212.208 263.051L212.068 264.861C211.848 267.801 216.428 267.791 216.648 264.861L218.518 240.321C218.728 237.551 214.818 237.441 214.048 239.791C212.918 239.631 211.668 240.172 211.458 241.402C210.558 246.891 209.658 252.382 208.748 257.872C208.458 259.772 210.278 260.951 211.678 260.701Z" fill="#F76149"/>
<path d="M9.41832 354.232C10.3883 353.832 11.3284 353.402 12.2584 352.952C11.9184 353.472 11.5784 353.992 11.2384 354.512C9.80839 356.712 13.0284 359.132 14.8384 357.292C19.0784 352.962 23.5784 348.912 28.3884 345.222C30.2184 343.812 29.1484 341.012 27.4584 340.832C28.1784 339.932 28.8683 339.002 29.5283 338.042C31.0283 335.852 27.7483 333.482 25.9283 335.262C23.5383 337.622 21.3784 340.162 19.3384 342.802C16.0684 345.742 12.3183 348.122 8.18834 349.822C5.50834 350.922 6.68832 355.352 9.41832 354.232Z" fill="#F76149"/>
<path d="M5.9584 295.802C6.1484 297.492 6.46841 299.042 6.96841 300.562C6.32841 301.192 6.07845 302.152 6.76846 303.122C8.32845 305.352 9.60845 307.682 10.6384 310.122C10.6384 310.152 10.6384 310.172 10.6384 310.202C10.8384 312.572 11.4884 314.692 12.8384 316.672C14.2784 318.782 17.6383 317.512 17.0283 314.912C16.4383 312.412 15.6184 310.002 14.5984 307.672C15.2084 308.692 15.8084 309.732 16.3584 310.802C16.5284 311.132 16.7585 311.362 17.0185 311.542C18.1285 313.742 19.2384 315.932 20.3484 318.132C21.4984 320.412 25.4384 318.822 24.5384 316.372C24.0884 315.152 23.6084 313.952 23.0984 312.762C24.4584 312.382 25.4584 311.002 24.3884 309.592C22.3184 306.852 20.0684 304.352 17.5584 302.032C16.5384 299.922 15.4284 297.852 14.2084 295.822C13.3684 294.422 11.8585 294.472 10.8884 295.232C10.5584 294.882 10.2285 294.532 9.88845 294.182C8.57845 292.882 5.7284 293.752 5.9584 295.802Z" fill="#F76149"/>
<path d="M11.7886 268.042C14.6186 269.092 16.8386 271.152 18.2786 273.772C19.6986 276.362 23.6487 274.052 22.2387 271.462C22.1987 271.382 22.1386 271.302 22.0986 271.222C23.7786 270.762 24.6887 268.162 22.7487 267.002C20.9287 265.912 19.1086 264.832 17.2786 263.742C16.1686 263.082 15.1086 263.462 14.4786 264.222C14.0086 264.002 13.5187 263.792 13.0187 263.612C10.2387 262.602 9.03858 267.022 11.7886 268.042Z" fill="#F76149"/>
<path d="M2.5285 248.202C2.9485 249.922 5.14858 250.362 6.35858 249.212C14.0286 241.942 19.2486 232.742 21.5186 222.412C21.9186 220.592 20.2886 219.432 18.8786 219.562C17.8386 218.862 16.2386 218.882 15.5186 220.182C13.6686 223.532 11.8186 226.882 9.96857 230.232C8.82857 231.682 7.57855 233.052 6.19855 234.362C5.20855 235.302 5.36851 236.492 6.03851 237.302C4.04851 240.682 1.5585 244.202 2.5285 248.202Z" fill="#F76149"/>
<path d="M3.36829 204.821C5.50829 203.901 7.20829 202.501 8.61829 200.831C12.4383 197.931 16.2683 195.021 20.0883 192.121C21.1283 191.331 21.8382 189.541 20.5482 188.521C18.9682 187.261 17.4482 187.201 15.9082 188.561C15.3682 189.041 15.1582 189.601 15.1782 190.141C14.6782 190.521 14.1882 190.891 13.6882 191.271C13.7282 189.811 12.5683 188.541 10.8783 188.931C10.2683 189.071 9.65822 189.211 9.04822 189.361C7.09823 189.811 7.03827 191.991 8.09827 193.141C7.31827 194.751 6.43824 196.301 5.31824 197.631C3.89824 198.711 2.47823 199.791 1.05823 200.861C-1.30177 202.651 0.648292 205.991 3.36829 204.821Z" fill="#F76149"/>
<path d="M19.6882 4.32137C16.3182 8.22136 13.7883 12.5613 11.5883 17.2113C10.5283 19.4513 9.54831 21.7214 8.51831 23.9814C7.73831 25.6914 6.91829 28.2414 5.62829 30.0314C4.57829 29.8214 3.4383 30.2614 3.1383 31.6214L2.81823 33.0614C2.38823 35.0014 4.38822 36.6414 6.17822 35.6514C10.3282 33.3514 11.8582 27.6614 13.6882 23.5914C16.2382 17.9314 18.8282 12.3214 22.9182 7.58138C24.8482 5.34138 21.6182 2.09137 19.6882 4.32137Z" fill="#F76149"/>
<path d="M30.3179 0.721481C19.9779 12.1115 12.2579 26.4215 6.27789 40.5315C5.13789 43.2115 9.08798 45.5515 10.238 42.8415C16.048 29.1315 23.5079 15.0215 33.5579 3.96147C35.5379 1.79147 32.2979 -1.45852 30.3179 0.721481Z" fill="#F76149"/>
<path d="M62.0288 37.3914C63.6888 37.5114 65.3188 35.1613 63.9088 33.3813C62.4788 31.5713 55.6787 22.4813 53.4987 28.7813C52.7587 30.9113 54.8388 34.0113 55.7988 35.7213C56.9988 37.8613 58.3788 39.8413 59.0188 42.0713C56.0688 39.9013 53.1488 35.1213 51.6588 33.1213C49.1588 29.7713 46.8888 26.2613 44.7688 22.6613C43.6588 20.7813 41.3087 21.5113 40.6887 23.0713C39.6287 21.9413 38.4787 20.8813 37.1987 19.9013C34.8587 18.1113 32.5787 22.0913 34.8887 23.8614C44.0287 30.8514 46.7488 43.2213 54.6188 51.4013C56.6688 53.5313 59.8988 50.2913 57.8588 48.1613C56.3488 46.5913 55.0387 44.9014 53.8187 43.1413C55.9187 45.5513 58.3287 47.6213 61.6387 47.7813C62.9687 47.8413 63.8088 46.6713 63.9288 45.4913C64.1988 42.8813 63.5988 40.5713 62.4688 38.2113C62.3288 37.9313 62.1788 37.6614 62.0288 37.3914Z" fill="#F76149"/>
<path d="M100.459 12.2416C97.4985 14.1416 94.8185 16.4117 92.5185 19.0416C93.9385 16.8817 95.6685 14.9117 97.7385 13.1717C99.9985 11.2717 96.7385 8.04163 94.4985 9.93163C88.8885 14.6616 85.1985 21.1416 84.0085 28.3816C83.7485 29.9516 84.9385 31.0216 86.1485 31.2216C86.0285 33.0716 86.6985 34.6816 89.0085 35.3116C91.8585 36.1016 93.0685 31.6817 90.2285 30.8917C90.4585 30.9517 94.8385 23.3516 95.4685 22.5916C97.5485 20.0616 100.019 17.9617 102.769 16.2017C105.249 14.6117 102.949 10.6416 100.459 12.2416Z" fill="#F76149"/>
<path d="M18.748 66.5116C18.738 66.0316 18.758 65.5516 18.808 65.0716C18.808 65.0516 18.818 65.0315 18.818 65.0215C18.838 64.8215 18.8681 64.6116 18.8981 64.4116C19.1881 61.8616 14.9081 61.2816 14.3981 63.8016C12.7881 71.8616 11.4581 79.9616 10.3881 88.1116C10.0081 91.0216 14.588 91.0016 14.968 88.1116C15.358 85.1316 15.7981 82.1516 16.2681 79.1816C16.0181 83.8716 16.2981 88.5716 17.1381 93.2916C17.6581 96.1916 22.068 94.9616 21.558 92.0716C20.168 84.3016 20.478 76.5816 22.408 68.9316C23.008 66.6116 20.218 65.3716 18.748 66.5116Z" fill="#F76149"/>
<path d="M75.3487 75.2117C74.3187 72.4817 69.8887 73.6617 70.9287 76.4317C71.1287 76.9617 71.2787 77.4517 71.3787 77.9317C66.5087 74.4217 63.0787 69.0017 57.4587 66.4117C55.5287 65.5217 53.0087 67.4417 54.3287 69.5417C54.5887 69.9617 54.8587 70.3617 55.1387 70.7617C53.7187 71.0717 52.5887 72.5217 53.6487 74.0217C58.3787 80.6617 63.5187 87.3017 71.6487 89.7217C73.6587 90.3217 75.1187 88.0717 74.2387 86.3617C73.8087 85.5217 73.3187 84.7317 72.8087 83.9517C74.0087 84.2417 75.2987 83.7617 75.6587 82.4117C76.3287 79.8817 76.2787 77.6717 75.3487 75.2117Z" fill="#F76149"/>
<path d="M111.018 59.4818C110.228 59.8618 109.458 60.2618 108.688 60.6718C108.748 60.2118 108.768 59.7517 108.738 59.3117C109.008 58.3617 108.588 57.2917 107.838 56.7117C107.048 55.7417 105.718 55.2618 103.698 55.7318C99.9379 56.6018 96.5279 59.8517 95.9979 63.6817C92.3379 66.8517 88.9679 70.3517 85.9379 74.2117C84.1379 76.5017 87.3579 79.7718 89.1779 77.4518C90.0079 76.3918 90.8679 75.3717 91.7479 74.3717C91.2879 76.1817 93.1579 78.3817 95.0179 77.0317C97.4179 75.2917 99.6779 73.3718 101.748 71.2618C103.398 71.3718 105.128 70.8518 106.538 69.6118C107.438 68.8118 107.428 67.8117 106.958 67.0317C108.998 65.7217 111.118 64.5217 113.338 63.4617C115.988 62.1517 113.668 58.2018 111.018 59.4818Z" fill="#F76149"/>
<path d="M140.399 40.5515C142.829 39.8915 143.529 36.9815 143.569 34.7615C143.619 32.0315 142.499 29.5515 140.669 27.5715C139.619 26.4415 138.239 26.7915 137.439 27.6915C137.129 26.5915 136.819 25.4915 136.499 24.4015C135.899 22.3415 132.549 22.1015 132.079 24.4015C132.039 24.6015 132.009 24.8015 131.969 25.0015C130.799 24.9515 129.589 25.7515 129.539 27.2315C129.479 29.1115 129.839 30.4515 130.709 32.0915C130.799 32.2715 130.909 32.4215 131.029 32.5515C132.759 38.3315 134.489 44.1015 136.219 49.8815C137.059 52.7015 141.489 51.5015 140.639 48.6615C139.809 45.8915 138.979 43.1315 138.159 40.3615C138.819 40.6915 139.569 40.7815 140.399 40.5515Z" fill="#F76149"/>
<path d="M170.968 27.7113C169.048 24.3113 167.728 20.8613 166.828 17.0713C166.248 14.6113 162.958 15.1613 162.428 17.1713C161.118 14.2813 159.568 11.5113 157.498 8.9613C155.638 6.6713 152.408 9.93132 154.258 12.2013C160.318 19.6413 161.628 29.6813 166.028 38.0513C166.948 39.7913 169.748 39.3713 170.218 37.5013C170.828 35.0813 170.808 32.7613 170.478 30.5013C171.218 29.8513 171.588 28.8113 170.968 27.7113Z" fill="#F76149"/>
<path d="M171.688 69.6415C171.328 68.3215 170.098 67.8615 168.868 68.0415C168.388 68.1115 167.908 68.1815 167.438 68.2415L167.448 68.2315C168.848 66.9315 167.978 65.1215 166.608 64.5515C167.868 63.9415 167.878 62.3215 167.078 61.2615C167.458 61.1515 167.828 61.0315 168.208 60.9215C171.038 60.1015 169.828 55.6815 166.988 56.5015C164.248 57.2915 161.568 58.2315 158.948 59.3615C157.148 60.1315 154.938 60.9115 153.408 62.2915C151.818 62.5615 150.238 62.8415 148.648 63.1115C145.748 63.6115 146.978 68.0315 149.868 67.5315C150.528 67.4215 151.178 67.3015 151.838 67.1915C152.018 67.8115 152.308 68.4015 152.738 68.9415C154.348 70.9715 156.888 71.2715 159.318 71.3215C159.548 71.3215 159.748 71.2915 159.938 71.2515C159.918 72.6515 161.298 73.7015 162.828 73.4815C165.248 73.1315 167.668 72.7915 170.088 72.4415C171.308 72.2815 171.988 70.7215 171.688 69.6415ZM157.168 66.5815C157.108 66.4815 157.058 66.3915 157.018 66.3015C159.388 65.8915 161.758 65.4815 164.128 65.0715C163.098 66.0415 162.188 67.1115 161.388 68.2715C161.118 67.4515 160.428 66.7815 159.308 66.7515C158.598 66.7715 157.878 66.7115 157.168 66.5815Z" fill="#F76149"/>
<path d="M128.548 101.441C128.448 101.461 128.348 101.481 128.248 101.511C129.158 100.491 130.058 99.4613 130.908 98.3713C132.308 96.5913 131.048 94.0713 128.678 94.5413C125.798 95.1213 123.018 95.9313 120.298 97.0513C117.758 98.1013 114.938 100.371 112.158 100.331C109.208 100.281 109.208 104.861 112.158 104.911C115.138 104.961 117.338 103.461 119.938 102.201C120.668 101.851 121.408 101.531 122.158 101.231C121.198 102.151 120.228 103.061 119.198 103.931C117.338 105.501 119.368 108.231 121.428 107.761L129.758 105.861C132.638 105.201 131.428 100.791 128.548 101.441Z" fill="#F76149"/>
<path d="M41.0986 133.561C39.1286 128.361 37.1587 123.171 35.1787 117.971C34.3987 115.931 32.0786 115.981 31.1286 117.331C30.0286 116.141 27.6487 116.671 27.2687 118.341C26.7087 120.811 26.6886 123.271 26.8486 125.721C25.7186 122.331 24.6586 118.921 23.7086 115.471C22.9286 112.631 18.5086 113.841 19.2886 116.691C21.4586 124.581 24.1086 132.291 27.2386 139.841C27.9786 141.641 31.2586 142.361 31.6586 139.841C32.1286 136.881 31.8986 133.911 31.6286 130.951C32.3986 133.681 33.0186 136.471 33.4586 139.321C33.8186 141.641 37.3286 141.361 37.8786 139.321C37.9586 139.011 38.0186 138.711 38.0686 138.401C38.3186 139.061 38.5686 139.731 38.8286 140.391C39.5686 142.351 41.7886 142.531 43.0186 140.941C44.3586 139.201 44.8486 137.501 44.8486 135.311C44.8286 133.171 42.4186 132.591 41.0986 133.561Z" fill="#F76149"/>
<path d="M81.9886 125.952C81.8186 126.482 81.6786 127.022 81.5186 127.552C81.4086 126.002 81.3086 124.462 81.1986 122.912C80.9986 119.992 76.4186 119.962 76.6186 122.912C77.3586 133.612 78.0986 144.312 78.8386 155.012C79.0386 157.932 83.6186 157.962 83.4186 155.012C83.3186 153.592 83.2186 152.182 83.1286 150.762C84.1986 150.432 85.1286 149.422 84.8686 148.012C83.5986 140.932 84.1686 134.002 86.3986 127.172C87.3286 124.362 82.9086 123.152 81.9886 125.952Z" fill="#F76149"/>
<path d="M148.518 125.731C142.568 125.901 136.668 126.701 130.938 128.201C131.108 126.681 129.998 125.061 128.218 125.781C120.488 128.921 112.938 132.401 105.548 136.281C102.938 137.651 105.248 141.611 107.858 140.241C110.268 138.981 112.698 137.771 115.138 136.581C115.138 136.591 115.128 136.591 115.128 136.601C115.018 136.681 114.918 136.761 114.808 136.861C113.388 138.291 111.968 139.731 110.548 141.161C108.408 143.311 111.528 146.171 113.788 144.401C114.548 143.801 115.338 143.261 116.148 142.741C117.448 143.241 119.198 142.451 119.358 140.931C123.148 139.071 127.268 137.971 131.558 137.701C134.488 137.521 134.508 132.931 131.558 133.121C130.928 133.161 130.308 133.211 129.688 133.281C130.838 132.931 131.988 132.611 133.148 132.331C138.188 131.071 143.308 130.461 148.508 130.311C151.458 130.221 151.468 125.641 148.518 125.731Z" fill="#F76149"/>
<path d="M183.888 107.621C177.838 102.671 172.348 97.1613 167.418 91.0913C165.558 88.8013 162.338 92.0614 164.178 94.3314C165.798 96.3214 167.488 98.2413 169.228 100.121C169.118 100.001 168.998 99.8814 168.888 99.7614C168.598 99.4614 168.288 99.2714 167.978 99.1714C165.618 97.2414 163.348 95.2014 161.068 93.2614C158.838 91.3614 155.578 94.5913 157.828 96.5013C160.558 98.8213 163.258 101.231 166.078 103.461C169.928 107.651 174.648 114.501 180.908 114.061C182.538 113.951 183.268 112.471 183.078 111.221C184.488 110.651 185.378 108.851 183.888 107.621Z" fill="#F76149"/>
<path d="M16.6883 161.151C16.3583 160.381 15.6983 160.071 14.9983 160.051C14.2783 158.591 12.3383 158.281 11.2483 159.491C11.0583 157.111 7.23834 156.411 6.76834 159.001C5.72834 164.681 4.68834 170.371 3.64834 176.051C3.20834 178.471 6.23823 179.721 7.53823 178.341C8.43823 178.401 9.32823 177.961 9.65823 176.881C10.0682 177.571 10.8983 177.881 11.7183 177.841C12.3883 179.341 14.7383 180.041 15.8083 178.191C18.8883 172.801 19.0883 166.821 16.6883 161.151Z" fill="#F76149"/>
<path d="M47.5581 158.101C46.5681 156.201 44.2281 156.901 43.5281 158.421C42.9981 157.781 42.3781 157.241 41.5681 156.921C38.3281 155.641 34.5181 159.991 37.5781 162.541C38.6381 163.421 39.9181 163.171 40.7481 162.461C41.1281 163.101 41.4982 163.751 41.8682 164.391C42.7382 165.891 43.6081 167.381 44.4781 168.881C45.3981 170.471 47.4681 170.241 48.4381 168.881C50.8181 165.531 49.2581 161.381 47.5581 158.101Z" fill="#F76149"/>
<path d="M64.5178 115.482C63.1378 111.702 61.8778 107.881 60.7478 104.021C60.0778 101.731 56.6678 101.951 56.2878 104.161C56.1678 104.101 56.0478 104.041 55.9278 104.001C55.8178 103.431 55.8478 102.812 56.0578 102.172C56.9978 99.3715 52.5778 98.1715 51.6378 100.952C50.6778 103.822 51.5978 107.121 53.7678 109.161C54.6378 111.591 55.6278 113.972 56.7478 116.302C57.4278 117.722 59.1478 117.681 60.1878 116.841C61.2878 119.381 65.5078 118.192 64.5178 115.482Z" fill="#F76149"/>
<path d="M89.2987 183.582C88.6287 183.842 87.9786 184.122 87.3386 184.422C88.1986 182.942 89.0486 181.452 89.8786 179.952C91.0486 177.842 88.7586 175.872 86.7486 176.822C83.3086 178.432 81.4986 182.332 79.4786 185.352C77.0886 188.932 74.6986 192.502 72.3086 196.082C71.3186 196.762 70.9486 197.472 70.9486 198.802C70.9486 201.122 73.8686 201.762 75.1386 200.062C76.0886 200.482 77.2987 200.342 78.0487 199.232C78.5687 198.462 79.0786 197.672 79.5886 196.902C81.4086 194.342 83.5587 192.082 86.1187 190.332C85.8787 191.102 85.6486 191.872 85.4086 192.632C84.5386 195.452 88.9586 196.662 89.8286 193.852C90.5886 191.372 91.3487 188.882 92.1187 186.402C92.5987 184.832 90.9487 182.952 89.2987 183.582Z" fill="#F76149"/>
<path d="M134.668 162.871C131.648 163.761 128.988 163.781 125.978 162.931C124.328 162.471 122.788 164.071 123.118 165.621C119.688 166.341 116.338 166.021 112.938 164.451C110.278 163.221 107.948 167.171 110.628 168.411C116.018 170.901 121.548 171.291 127.148 169.241C127.758 169.021 128.258 168.571 128.558 168.041C130.998 168.251 133.418 168.011 135.888 167.291C138.708 166.461 137.508 162.031 134.668 162.871Z" fill="#F76149"/>
<path d="M172.008 148.742C171.798 147.302 171.568 145.862 171.308 144.432C170.878 142.072 167.528 142.442 166.888 144.432C166.118 146.852 165.728 149.322 165.498 151.812C165.338 149.392 165.248 146.962 165.248 144.512C165.248 141.562 160.668 141.562 160.668 144.512C160.678 153.292 161.678 161.942 163.648 170.492C164.168 172.752 167.458 172.582 168.068 170.492C168.508 169.002 168.798 167.492 169.008 165.972C170.118 167.462 173.068 166.992 173.168 164.612L173.778 150.912C173.838 149.632 172.988 148.902 172.008 148.742Z" fill="#F76149"/>
<path d="M6.85849 107.391C6.86849 107.131 6.8585 106.871 6.8685 106.601C6.8885 105.921 6.66846 105.411 6.32846 105.041L6.46848 103.231C6.68848 100.291 2.10852 100.301 1.88852 103.231L0.0185234 127.771C-0.191477 130.541 3.71849 130.651 4.48849 128.301C5.61849 128.461 6.86846 127.921 7.07846 126.691C7.97846 121.201 8.87842 115.711 9.78842 110.221C10.0784 108.321 8.26849 107.141 6.85849 107.391Z" fill="#F76149"/>
<path d="M209.118 13.8614C208.148 14.2614 207.208 14.6914 206.278 15.1414C206.618 14.6214 206.958 14.1014 207.298 13.5814C208.728 11.3814 205.508 8.96138 203.698 10.8014C199.458 15.1314 194.958 19.1814 190.148 22.8714C188.318 24.2814 189.388 27.0814 191.078 27.2614C190.358 28.1614 189.668 29.0914 189.008 30.0514C187.508 32.2414 190.788 34.6114 192.608 32.8314C194.998 30.4714 197.158 27.9314 199.198 25.2914C202.468 22.3514 206.218 19.9713 210.348 18.2713C213.028 17.1814 211.848 12.7414 209.118 13.8614Z" fill="#F76149"/>
<path d="M212.589 72.2916C212.399 70.6016 212.079 69.0516 211.579 67.5316C212.219 66.9016 212.469 65.9416 211.779 64.9716C210.219 62.7416 208.939 60.4116 207.909 57.9716C207.909 57.9416 207.909 57.9216 207.909 57.8916C207.709 55.5216 207.059 53.4016 205.709 51.4216C204.269 49.3116 200.909 50.5816 201.519 53.1816C202.109 55.6816 202.929 58.0916 203.949 60.4116C203.339 59.3916 202.739 58.3516 202.189 57.2816C202.019 56.9516 201.789 56.7216 201.529 56.5416C200.419 54.3416 199.309 52.1516 198.199 49.9516C197.049 47.6716 193.109 49.2616 194.009 51.7116C194.459 52.9316 194.939 54.1316 195.449 55.3216C194.089 55.7016 193.089 57.0816 194.159 58.4916C196.229 61.2316 198.479 63.7316 200.989 66.0516C202.009 68.1616 203.119 70.2316 204.339 72.2616C205.179 73.6616 206.689 73.6116 207.659 72.8516C207.989 73.2016 208.319 73.5516 208.659 73.9016C209.959 75.2216 212.809 74.3416 212.589 72.2916Z" fill="#F76149"/>
<path d="M206.758 100.052C203.928 99.0017 201.708 96.9417 200.268 94.3217C198.848 91.7317 194.898 94.0417 196.308 96.6317C196.348 96.7117 196.408 96.7917 196.448 96.8717C194.768 97.3317 193.858 99.9317 195.798 101.092C197.618 102.182 199.438 103.262 201.268 104.352C202.378 105.012 203.438 104.632 204.068 103.872C204.538 104.092 205.028 104.302 205.528 104.482C208.308 105.492 209.498 101.072 206.758 100.052Z" fill="#F76149"/>
<path d="M216.008 119.892C215.588 118.172 213.388 117.732 212.178 118.882C204.508 126.152 199.288 135.352 197.018 145.682C196.618 147.502 198.248 148.662 199.658 148.532C200.698 149.232 202.298 149.212 203.018 147.912C204.868 144.562 206.718 141.212 208.568 137.862C209.708 136.412 210.958 135.042 212.338 133.732C213.328 132.792 213.168 131.602 212.498 130.792C214.488 127.422 216.978 123.892 216.008 119.892Z" fill="#F76149"/>
<path d="M215.168 163.272C213.028 164.192 211.328 165.592 209.918 167.262C206.098 170.162 202.268 173.072 198.448 175.972C197.408 176.762 196.698 178.552 197.988 179.572C199.568 180.832 201.088 180.892 202.628 179.532C203.168 179.052 203.378 178.492 203.358 177.952C203.858 177.572 204.348 177.202 204.848 176.822C204.808 178.282 205.968 179.552 207.658 179.162C208.268 179.022 208.878 178.882 209.488 178.732C211.438 178.282 211.498 176.102 210.438 174.952C211.218 173.342 212.098 171.792 213.218 170.462C214.638 169.382 216.058 168.302 217.478 167.232C219.838 165.442 217.888 162.102 215.168 163.272Z" fill="#F76149"/>
</svg>
