<svg width="124" height="107" viewBox="0 0 124 107" fill="none" xmlns="http://www.w3.org/2000/svg">
<path d="M90.1643 1.37196C91.3958 0.523976 93.1082 0.513489 94.4087 1.21315C95.5188 1.84839 95.9548 3.18778 95.9593 4.40132C96.0043 5.52347 95.7675 6.63064 95.4859 7.70935C95.0724 9.48921 94.2933 11.1552 93.4768 12.7808C92.6797 14.1052 91.9741 15.5225 90.8834 16.6356C90.0923 17.5241 88.6451 17.614 87.6757 16.9757C85.788 15.8041 84.4396 14.0018 82.9384 12.4062C82.2583 11.5897 81.5496 10.7986 80.8365 10.0121C79.7922 8.65321 78.9697 7.03666 78.8828 5.30024C78.9742 4.15412 79.4162 2.90462 80.4784 2.31882C81.1586 1.80044 82.0335 1.74351 82.8485 1.64014C83.758 1.73902 84.6958 1.88135 85.5049 2.3353C86.1191 2.69936 86.6794 3.14882 87.2008 3.63724C87.436 3.82601 87.6847 4.11666 88.0248 4.03876C88.6346 3.07841 89.1934 2.02817 90.1643 1.37196Z" fill="#02DDB9"/>
<path d="M43.6826 20.0907C44.4796 19.806 45.4924 19.809 46.1202 20.4517C46.682 20.8457 46.8753 21.5814 46.7974 22.2361C46.7105 22.9327 46.3659 23.559 46.2176 24.2407C46.0647 24.9418 45.7621 25.5965 45.5374 26.2752C45.3261 26.8401 45.1448 27.4318 44.7913 27.9277C44.5261 28.2064 44.2204 28.4431 43.9358 28.6993C43.326 28.927 42.5979 28.9435 42.0346 28.5855C40.9963 27.9382 40.3296 26.879 39.624 25.9112C39.0801 24.7785 38.5108 23.5215 38.803 22.2361C38.9887 21.3776 39.8936 20.7978 40.7596 20.9731C41.3364 20.9281 41.6226 21.6728 42.1889 21.5829C42.5574 20.9791 42.9979 20.3633 43.6826 20.0907Z" fill="#FE5138"/>
<path d="M80.5757 42.1697C78.219 40.6506 77.5598 37.1852 78.9337 34.8091C78.8288 35.9073 78.3014 36.9665 78.4782 38.0856C78.6325 38.9876 78.9262 39.8745 79.3831 40.67C80.1996 41.7937 81.4566 42.6432 82.8455 42.8364C83.6934 42.9653 84.3347 42.1772 85.1602 42.2551C85.2935 42.4229 85.4194 42.6012 85.5632 42.766C86.7393 41.3457 87.6038 39.6618 88.8982 38.3299C89.3791 37.6587 90.0473 37.1628 90.693 36.6639C91.4047 36.0751 92.2961 35.7515 93.183 35.5372C94.1838 35.4473 95.2206 35.4548 96.1944 35.7215C97.3525 36.3283 98.5017 36.9665 99.5714 37.7231C100.196 38.2879 100.852 38.8422 101.35 39.5299C101.637 40.0753 102.133 40.4723 102.395 41.0356C103.019 42.0903 103.575 43.1945 103.828 44.4036C104.43 46.0006 104.313 47.7326 104.349 49.4076C103.807 49.9229 103.17 50.4069 102.926 51.147C102.112 52.9523 102.366 55.0153 102.897 56.8596C103.193 57.9952 103.994 59.0005 105.067 59.492C106.231 60.1062 107.593 60.295 108.89 60.1107C109.194 60.0718 109.479 59.9309 109.701 59.7182C110.361 59.1039 111.03 58.4867 111.566 57.7555C112.483 56.6154 113.232 55.3494 113.717 53.9666C114.276 52.8384 114.525 51.5979 114.886 50.4009C115.273 48.5761 115.947 46.7992 116.925 45.2096C117.4 44.8455 117.67 44.2073 118.3 44.08C119.285 43.7788 120.429 43.7249 121.358 44.2328C121.987 44.5024 122.396 45.0793 122.865 45.5512C123.934 47.4809 124.031 49.7387 123.989 51.8961C124.07 53.8213 123.712 55.7569 122.988 57.5413C122.549 58.6455 122.058 59.7257 121.523 60.7834C121.101 61.2418 120.993 61.8846 120.603 62.364C120.073 63.2704 119.478 64.1394 118.862 64.9918C118.631 65.3439 118.164 65.6451 118.284 66.1245C118.542 66.6593 119.018 67.0489 119.309 67.5672C120.239 68.9231 120.769 70.4902 121.493 71.954C122.103 73.7159 122.838 75.4568 123.101 77.313C123.414 78.4996 123.373 79.7431 123.39 80.9612C123.382 83.3598 123.459 85.8034 122.832 88.139C122.274 89.4725 122.232 90.9722 121.625 92.2921C121.417 92.8928 121.138 93.4682 120.981 94.0869C120.494 94.6427 120.476 95.4338 120.116 96.06C119.595 96.7822 119.13 97.5508 118.54 98.2234C117.105 99.7666 115.416 101.064 113.601 102.129C112.492 102.94 111.229 103.493 109.967 104.014C108.271 104.582 106.483 104.732 104.724 104.985C102.691 105.287 100.628 105.147 98.5811 105.16C96.1825 105.199 93.8123 104.697 91.5245 104.015C90.0803 103.4 88.5566 102.926 87.2442 102.041C85.6546 101.202 84.2643 100.048 82.9743 98.8077C81.951 97.8339 80.9083 96.8736 79.9869 95.7994C79.058 94.8105 78.4617 93.5775 77.7156 92.4584C77.1118 91.5624 76.6459 90.5856 76.1275 89.6418C75.0668 87.3855 74.3581 84.9479 74.1829 82.4549C73.7514 78.0217 74.3072 73.5541 75.305 69.2347C75.7095 67.5568 76.0571 65.8638 76.589 64.2203C76.9575 62.7056 77.4175 61.2149 77.807 59.7062C78.4647 57.6851 79.3202 55.73 80.321 53.8542C80.9937 52.4399 81.4686 50.9402 82.1278 49.5199C83.1736 47.3715 84.2283 45.2231 85.4658 43.1795C85.4358 42.8574 85.1991 42.5907 84.9489 42.4095C84.4995 42.5653 84.089 42.8589 83.6006 42.8724C83.1466 42.9009 82.6911 42.8964 82.2387 42.8769C81.6109 42.8724 81.0941 42.4709 80.5757 42.1697ZM83.9332 51.8991C83.4358 52.2032 83.2709 52.9193 83.5766 53.4182C83.8538 53.6505 84.2403 53.6729 84.5864 53.6235C84.8935 53.4003 85.1377 53.0332 85.1482 52.6452C85.1871 52.0504 84.4351 51.6294 83.9332 51.8991ZM96.0821 53.4167C95.3015 53.5156 95.1337 54.7786 95.8648 55.0827C96.3832 55.3329 96.9211 54.8865 97.0664 54.3951C97.3301 53.8317 96.6499 53.1426 96.0821 53.4167ZM86.1909 57.342C85.9422 57.7166 85.3924 58.1121 85.7085 58.6095C86.1999 59.0425 86.8172 58.2275 87.2966 58.6934C88.0487 59.2627 88.9491 59.6313 89.8855 59.7421C90.5013 59.8231 91.0541 59.444 91.6564 59.4335C92.0369 59.5923 92.2512 60.1272 92.7276 60.0523C92.8939 59.9699 93.0183 59.8455 93.1036 59.6777C92.8969 59.2148 92.5823 58.7938 92.5373 58.2724C92.4399 57.8604 92.4534 57.1458 91.8586 57.1832C91.4706 57.3555 91.4287 57.8274 91.174 58.1136C90.0443 58.181 88.8622 58.1556 87.8045 57.7106C87.4719 57.6267 87.5888 57.2387 87.5513 56.9915C87.5483 56.6004 87.3685 56.0221 86.8981 56.0221C86.3932 56.2693 86.5071 56.9435 86.1909 57.342Z" fill="#FE5138"/>
<path d="M51.5174 38.857C52.217 38.1708 53.3107 38.0944 54.2261 38.2577C55.2778 38.9829 56.4869 39.7559 56.812 41.0848C57.3019 42.3418 56.9334 43.7217 56.415 44.9067C56.2127 45.506 55.7303 45.9345 55.3348 46.4049C54.4868 47.3863 53.1354 47.9571 51.8395 47.7054C51.1233 47.235 50.3667 46.7286 49.9967 45.924C49.2101 44.3869 49.5038 42.5666 50.0776 41.0129C50.3458 40.1694 50.9765 39.5297 51.5174 38.857Z" fill="#FE5138"/>
<path d="M60.4023 28.0725C62.2541 26.8979 64.5523 26.9429 66.6678 26.9519C67.6626 26.8935 68.6139 27.2425 69.6012 27.289C70.4253 27.5931 71.1983 28.0336 72.0433 28.2898C72.325 28.3587 72.5018 28.6299 72.7954 28.6853C73.4172 28.8576 73.9131 29.2876 74.4989 29.5423C74.9948 29.7565 75.3618 30.167 75.7723 30.5056C76.433 31.0989 77.1432 31.6413 77.7515 32.293C78.2713 32.8848 78.9021 33.3882 79.3036 34.0773C79.2212 34.3395 79.0699 34.5732 78.9335 34.8099C77.5597 37.1861 78.2189 40.6514 80.5756 42.1706C81.0939 42.4718 81.6108 42.8733 82.2386 42.8778C82.691 42.8972 83.1465 42.9017 83.6004 42.8733C84.0889 42.8598 84.4994 42.5661 84.9488 42.4103C85.199 42.5916 85.4357 42.8583 85.4657 43.1804C84.2282 45.2239 83.1734 47.3724 82.1277 49.5208C81.4685 50.9411 80.9936 52.4408 80.3209 53.8551C79.3201 55.7308 78.4646 57.686 77.8069 59.7071C77.4174 61.2157 76.9574 62.7065 76.5888 64.2211C76.057 65.8647 75.7094 67.5576 75.3049 69.2356C74.3071 73.5549 73.7513 78.0226 74.1827 82.4557C74.358 84.9487 75.0667 87.3863 76.1274 89.6426C76.6458 90.5865 77.1117 91.5633 77.7155 92.4592C76.9604 92.7109 76.2308 93.036 75.4517 93.2158C74.3236 93.6683 73.107 93.7986 71.913 93.9484C70.253 94.1732 68.5705 94.0608 66.9135 93.8645C65.7898 93.6114 64.5868 93.4705 63.6699 92.7034C63.7987 92.0877 63.9081 91.4584 64.1688 90.8801C64.4519 90.3093 64.386 89.6546 64.4594 89.0418C64.4774 88.4351 64.6901 87.8598 64.7501 87.2605C64.8624 85.0117 64.819 82.7449 64.3501 80.538C63.8107 79.5447 63.8062 78.3522 63.2204 77.3798C63.0151 76.9903 62.9537 76.5468 62.7739 76.1483C61.8226 74.1617 61.072 72.0702 59.9843 70.1585C59.7266 69.3525 59.2067 68.6633 58.964 67.8513C58.7827 67.1501 58.2419 66.6317 57.9932 65.9606C57.5902 65.174 57.304 64.326 56.7602 63.6189C56.2298 62.3933 55.8013 61.1079 55.0612 59.9842C54.838 59.6396 54.8559 59.1827 54.5773 58.8726C54.3136 58.5969 54.3241 58.1954 54.2252 57.8523C54.1443 57.8688 54.0649 57.8867 53.9855 57.9062C53.8432 57.1361 53.3008 56.5459 53.0236 55.8312C52.7899 55.2649 52.4963 54.7195 52.3869 54.1113C52.321 54.1292 52.2566 54.1487 52.1921 54.1682C51.921 53.1195 51.2812 52.1951 51.0625 51.1403C51.2003 49.9762 51.482 48.8226 51.8401 47.7065C53.136 47.9582 54.4874 47.3873 55.3354 46.406C55.7309 45.9356 56.2133 45.5071 56.4156 44.9078C56.934 43.7227 57.3025 42.3429 56.8126 41.0859C56.4875 39.757 55.2784 38.9839 54.2267 38.2588C54.6477 36.1778 55.3234 34.1373 56.3287 32.263C57.2381 30.5161 58.6149 28.949 60.4023 28.0725ZM73.4516 40.0776C72.7235 40.2394 72.4658 41.3091 73.0621 41.7661C73.543 42.229 74.3925 42.0058 74.6307 41.3975C74.9498 40.6814 74.2472 39.7226 73.4516 40.0776ZM61.7507 42.5916C61.1469 42.9272 60.9731 43.8261 61.5814 44.2486C62.0233 44.8179 63.102 44.5632 63.135 43.8096C63.3552 43.0381 62.4908 42.2425 61.7507 42.5916ZM68.3727 44.6202C67.7779 45.1595 66.927 45.0711 66.2198 45.3303C65.9876 45.3932 65.8632 45.7124 66.1284 45.8292C66.8416 46.2307 67.6865 45.8757 68.4371 45.7738C68.115 46.5259 67.2236 46.9693 67.1457 47.8263C67.6401 48.0211 68.1824 47.8308 68.5795 47.5132C69.0799 47.1102 69.5937 46.6442 69.772 46.003C69.9893 45.4142 69.8245 44.6786 69.3421 44.2711C68.981 43.9939 68.6529 44.4344 68.3727 44.6202Z" fill="#E5A101"/>
<path d="M104.349 49.4075C105.32 49.0134 106.383 48.7617 107.423 49.0434C108.261 49.3071 109.085 49.7356 109.63 50.4442C110.423 51.4211 111.459 52.2975 111.792 53.559C112.08 54.4729 112 55.4467 111.957 56.3891C111.805 56.8385 111.578 57.27 111.566 57.7554C111.029 58.4866 110.361 59.1038 109.7 59.7181C109.479 59.9308 109.194 60.0717 108.89 60.1106C107.592 60.2949 106.231 60.1061 105.066 59.4919C103.994 59.0005 103.192 57.9952 102.897 56.8595C102.365 55.0152 102.112 52.9522 102.926 51.1469C103.17 50.4068 103.806 49.9229 104.349 49.4075Z" fill="#E5A101"/>
<path d="M19.0911 50.7285C19.8941 50.5352 20.7391 50.6446 21.5062 50.9307C21.7744 51.0985 21.9481 51.3787 22.1759 51.5959C22.4291 51.8806 22.7752 52.1053 22.9175 52.4739C23.2216 53.2934 23.325 54.1743 23.301 55.0448C23.3265 56.1999 23.3085 57.3895 22.8845 58.4802C22.5414 59.054 22.1384 59.6038 21.6395 60.0518C21.0822 60.5192 20.5803 61.1754 19.7832 61.1874C18.5322 61.2863 16.9936 61.4856 16.0467 60.4698C15.6827 60.1162 15.3546 59.7207 15.1163 59.2727C14.8811 58.7963 14.9021 58.2539 14.8916 57.7371C14.8796 56.9205 14.9186 56.095 15.1119 55.2995C15.4894 54.6912 15.6947 54.0021 16.0258 53.3728C16.7809 52.2596 17.6918 51.0146 19.0911 50.7285Z" fill="#E5A101"/>
<path d="M77.752 32.2935C78.516 32.5377 78.8726 33.3662 79.4494 33.8711C79.7461 33.9025 79.9558 33.6478 80.188 33.5055C81.009 32.8598 82.1237 32.7594 83.1245 32.9077C84.3051 33.1729 85.3224 33.9969 85.9366 35.0262C86.846 36.6712 87.1921 38.7882 86.2992 40.5126C86.0145 41.1598 85.3718 41.5688 85.1606 42.2565C84.3351 42.1786 83.6938 42.9666 82.8458 42.8378C81.457 42.6445 80.2 41.795 79.3835 40.6714C78.9265 39.8759 78.6329 38.9889 78.4786 38.087C78.3018 36.9678 78.8292 35.9086 78.934 34.8104C79.0704 34.5737 79.2217 34.34 79.3041 34.0778C78.9026 33.3886 78.2718 32.8852 77.752 32.2935Z" fill="#FFA0D8"/>
<path d="M27.6188 38.3106C28.8953 37.8312 30.2347 37.4521 31.6115 37.4686C34.2783 37.3203 36.9316 37.975 39.3542 39.0612C41.3798 40.0125 43.3439 41.1707 44.9155 42.7857C46.0632 43.8434 47.046 45.0615 48.0093 46.287C48.8079 47.3582 49.5899 48.4504 50.1877 49.6505C50.4079 50.0505 50.5667 50.5044 50.9158 50.8191C51.0821 49.7883 51.4567 48.7845 51.5166 47.7448C51.0432 47.3657 50.5203 47.0301 50.1667 46.5252C49.3742 45.3866 49.139 43.9139 49.4191 42.5685C49.7532 41.5976 49.9525 40.5489 50.5757 39.7069C50.8289 39.3683 51.0941 38.9938 51.5181 38.8589C50.9773 39.5316 50.3465 40.1714 50.0783 41.0148C49.5045 42.5685 49.2109 44.3888 49.9974 45.9259C50.3675 46.7305 51.1241 47.2369 51.8402 47.7073C51.4822 48.8235 51.2005 49.9771 51.0627 51.1412C51.2814 52.1959 51.9211 53.1203 52.1923 54.169C52.2567 54.1496 52.3211 54.1301 52.3871 54.1121C52.4964 54.7204 52.7901 55.2657 53.0238 55.8321C53.301 56.5467 53.8433 57.137 53.9856 57.9071C54.065 57.8876 54.1445 57.8696 54.2254 57.8531C54.3242 58.1962 54.3137 58.5977 54.5774 58.8734C54.8561 59.1835 54.8381 59.6405 55.0614 59.9851C55.8015 61.1087 56.2299 62.3942 56.7603 63.6197C57.3042 64.3269 57.5903 65.1748 57.9933 65.9614C58.242 66.6326 58.7829 67.151 58.9642 67.8521C59.2069 68.6641 59.7268 69.3533 59.9844 70.1594C61.0721 72.0711 61.8227 74.1625 62.7741 76.1492C62.9539 76.5477 63.0153 76.9911 63.2206 77.3807C63.8064 78.353 63.8109 79.5456 64.3502 80.5389C64.8191 82.7457 64.8626 85.0125 64.7502 87.2613C64.6903 87.8606 64.4775 88.4359 64.4596 89.0427C64.3862 89.6554 64.4521 90.3102 64.1689 90.881C63.9082 91.4593 63.7989 92.0885 63.67 92.7043C63.1891 93.5298 62.9104 94.4542 62.3965 95.2617C60.4938 98.8634 57.3161 101.729 53.6291 103.425C51.3398 104.474 48.9787 105.367 46.577 106.125C45.1642 106.525 43.717 106.796 42.2517 106.891C39.3317 107.036 36.3923 106.888 33.5202 106.324C30.5583 105.667 27.5169 105.231 24.7033 104.04C22.7287 103.135 20.5937 102.526 18.8124 101.243C18.0423 100.664 17.2063 100.176 16.4947 99.5241C15.1433 98.4439 13.72 97.3232 12.9499 95.7307C11.5266 92.6474 11.0382 89.2449 10.6996 85.8965C10.6457 84.4747 10.6352 83.0484 10.7191 81.6281C10.9034 80.2093 11.0202 78.7845 11.1221 77.3582C11.3678 75.7956 11.5821 74.227 11.9626 72.6883C12.084 71.9482 12.436 71.25 12.4465 70.4949C12.2922 70.2732 12.012 70.1938 11.7933 70.0545C9.55799 68.7975 7.16087 67.7278 5.26864 65.9554C3.03033 63.7411 0.98079 61.1537 0.129811 58.0704C-0.0379871 57.164 -0.0484745 56.2126 0.129811 55.3077C0.236184 54.638 0.739578 54.1481 1.22649 53.7256C1.97559 53.0948 3.0543 53.0814 3.95622 53.3331C5.7226 53.763 7.15637 54.9601 8.4688 56.1587C9.13999 56.6875 9.60593 57.4171 10.2157 58.0074C10.9318 58.6921 11.5086 59.5101 12.2727 60.1454C12.9799 60.7342 13.6016 61.4158 14.2788 62.0361C14.5515 62.2503 14.8451 62.556 15.2242 62.4946C15.6077 61.8758 15.8115 61.1567 16.0467 60.4705C16.9936 61.4863 18.5322 61.287 19.7832 61.1881C20.5803 61.1761 21.0822 60.5199 21.6395 60.0525C22.1384 59.6045 22.5414 59.0547 22.8845 58.4809C23.3085 57.3902 23.3265 56.2006 23.301 55.0455C23.325 54.175 23.2216 53.2941 22.9175 52.4746C22.7751 52.106 22.429 51.8813 22.1758 51.5966C21.9481 51.3794 21.7743 51.0992 21.5061 50.9314C20.7391 50.6453 19.8941 50.5359 19.091 50.7292L19.0731 50.6198C19.2798 50.5689 19.4911 50.5344 19.6978 50.4775C20.0019 49.3718 20.1608 48.2242 20.5608 47.144C21.1121 45.6458 21.6859 44.1476 22.474 42.7558C23.5317 40.6777 25.4614 39.1376 27.6188 38.3106ZM47.7112 53.3345C46.9366 53.6597 46.7194 54.635 47.0445 55.3466C47.5554 56.1707 49.0311 56.0942 49.3442 55.1324C49.4191 54.626 49.5075 53.9923 49.0341 53.6477C48.7135 53.2432 48.1711 53.2641 47.7112 53.3345ZM33.306 55.3901C32.9119 55.6658 32.3786 55.9954 32.3921 56.5377C32.3516 57.0141 32.4026 57.573 32.8101 57.8891C33.2925 58.2546 33.9592 58.5857 34.5525 58.2741C35.1278 58.0524 35.4065 57.4276 35.336 56.8388C35.4409 55.8306 34.2109 54.9826 33.306 55.3901ZM42.9244 57.6464C42.851 58.0104 42.8375 58.382 42.7806 58.7491C42.2203 58.8779 42.0075 58.3071 41.7154 57.9625C41.5161 57.9086 41.3094 57.919 41.1086 57.9355C40.7356 58.9228 41.6315 60.1723 42.6967 60.1079C43.4623 60.2308 44.0091 59.5311 44.3148 58.9243C44.4781 58.4374 44.5799 57.7348 44.0466 57.4411C43.7005 57.086 43.2106 57.3632 42.9244 57.6464Z" fill="#FFA0D8"/>
<path d="M73.4519 40.0788C74.2474 39.7237 74.9501 40.6826 74.6309 41.3987C74.3927 42.007 73.5432 42.2302 73.0623 41.7673C72.466 41.3103 72.7237 40.2406 73.4519 40.0788Z" fill="#202942"/>
<path d="M61.7513 42.5926C62.4914 42.2435 63.3558 43.0391 63.1356 43.8107C63.1027 44.5643 62.0239 44.8189 61.582 44.2496C60.9737 43.8271 61.1475 42.9282 61.7513 42.5926Z" fill="#202942"/>
<path d="M68.3731 44.6209C68.6532 44.4351 68.9813 43.9946 69.3424 44.2718C69.8248 44.6793 69.9896 45.4149 69.7724 46.0037C69.5941 46.645 69.0802 47.1109 68.5798 47.5139C68.1828 47.8315 67.6404 48.0218 67.146 47.827C67.2239 46.9701 68.1154 46.5266 68.4375 45.7745C67.6869 45.8764 66.8419 46.2315 66.1288 45.8299C65.8636 45.7131 65.9879 45.394 66.2202 45.331C66.9273 45.0718 67.7783 45.1602 68.3731 44.6209Z" fill="#202942"/>
<path d="M83.9334 51.9002C84.4353 51.6305 85.1874 52.0515 85.1485 52.6463C85.138 53.0343 84.8938 53.4014 84.5867 53.6246C84.2406 53.6741 83.854 53.6516 83.5769 53.4194C83.2712 52.9205 83.436 52.2043 83.9334 51.9002Z" fill="#202942"/>
<path d="M47.7109 53.3355C48.1708 53.2651 48.7132 53.2441 49.0338 53.6486C49.5072 53.9932 49.4188 54.6269 49.3439 55.1333C49.0308 56.0952 47.5551 56.1716 47.0442 55.3476C46.7191 54.6359 46.9363 53.6606 47.7109 53.3355Z" fill="#202942"/>
<path d="M96.0821 53.4186C96.6499 53.1444 97.3301 53.8336 97.0664 54.3969C96.9211 54.8883 96.3832 55.3348 95.8648 55.0846C95.1337 54.7804 95.3015 53.5174 96.0821 53.4186Z" fill="#202942"/>
<path d="M33.3062 55.3894C34.2111 54.9819 35.4411 55.8298 35.3362 56.8381C35.4067 57.4269 35.128 58.0517 34.5527 58.2734C33.9594 58.585 33.2927 58.2539 32.8103 57.8884C32.4028 57.5723 32.3518 57.0134 32.3923 56.537C32.3788 55.9946 32.9122 55.665 33.3062 55.3894Z" fill="#202942"/>
<path d="M86.1911 57.3441C86.5072 56.9456 86.3934 56.2714 86.8983 56.0242C87.3687 56.0242 87.5485 56.6025 87.5515 56.9935C87.5889 57.2407 87.4721 57.6287 87.8047 57.7126C88.8624 58.1576 90.0445 58.1831 91.1741 58.1157C91.4288 57.8295 91.4708 57.3576 91.8588 57.1853C92.4536 57.1478 92.4401 57.8625 92.5375 58.2745C92.5824 58.7958 92.8971 59.2168 93.1038 59.6798C93.0184 59.8476 92.8941 59.9719 92.7278 60.0543C92.2513 60.1292 92.0371 59.5944 91.6565 59.4356C91.0543 59.4461 90.5014 59.8251 89.8857 59.7442C88.9493 59.6333 88.0489 59.2648 87.2968 58.6955C86.8174 58.2295 86.2001 59.0445 85.7087 58.6116C85.3926 58.1142 85.9424 57.7186 86.1911 57.3441Z" fill="#202942"/>
<path d="M42.9244 57.6462C43.2106 57.3631 43.7005 57.0859 44.0466 57.441C44.5799 57.7346 44.478 58.4373 44.3147 58.9242C44.0091 59.531 43.4623 60.2306 42.6967 60.1078C41.6315 60.1722 40.7355 58.9227 41.1086 57.9354C41.3093 57.9189 41.5161 57.9084 41.7154 57.9623C42.0075 58.3069 42.2203 58.8777 42.7806 58.7489C42.8375 58.3818 42.851 58.0103 42.9244 57.6462Z" fill="#202942"/>
</svg>
