<svg width="20" height="20" viewBox="0 0 20 20" fill="none" xmlns="http://www.w3.org/2000/svg">
<path fill-rule="evenodd" clip-rule="evenodd" d="M10.0013 0.398926C7.39406 0.398926 7.06686 0.410326 6.04285 0.456926C5.02084 0.503727 4.32323 0.665529 3.71283 0.902931C3.08142 1.14813 2.54581 1.47614 2.01221 2.00994C1.4782 2.54355 1.1502 3.07915 0.904196 3.71036C0.666193 4.32097 0.504192 5.01877 0.458191 6.04038C0.412391 7.06439 0.400391 7.3918 0.400391 9.99903C0.400391 12.6063 0.411991 12.9325 0.458391 13.9565C0.505392 14.9785 0.667193 15.6761 0.904396 16.2865C1.1498 16.9179 1.4778 17.4535 2.01161 17.9871C2.54501 18.5211 3.08062 18.8499 3.71163 19.0951C4.32243 19.3325 5.02024 19.4943 6.04205 19.5411C7.06606 19.5877 7.39306 19.5991 10.0001 19.5991C12.6075 19.5991 12.9337 19.5877 13.9577 19.5411C14.9797 19.4943 15.6781 19.3325 16.289 19.0951C16.9202 18.8499 17.455 18.5211 17.9884 17.9871C18.5224 17.4535 18.8504 16.9179 19.0964 16.2867C19.3324 15.6761 19.4944 14.9783 19.5424 13.9567C19.5884 12.9327 19.6004 12.6063 19.6004 9.99903C19.6004 7.3918 19.5884 7.06459 19.5424 6.04058C19.4944 5.01857 19.3324 4.32097 19.0964 3.71056C18.8504 3.07915 18.5224 2.54355 17.9884 2.00994C17.4544 1.47594 16.9204 1.14793 16.2884 0.902931C15.6763 0.665529 14.9783 0.503727 13.9563 0.456926C12.9323 0.410326 12.6063 0.398926 9.99829 0.398926H10.0013ZM9.13959 2.12965C9.30681 2.12938 9.4867 2.12947 9.68083 2.12955L10.0008 2.12965C12.564 2.12965 12.8678 2.13885 13.88 2.18485C14.816 2.22765 15.324 2.38405 15.6625 2.51545C16.1105 2.68945 16.4299 2.89745 16.7657 3.23346C17.1017 3.56946 17.3097 3.88946 17.4841 4.33747C17.6155 4.67547 17.7721 5.18348 17.8147 6.11949C17.8607 7.1315 17.8707 7.4355 17.8707 9.99753C17.8707 12.5596 17.8607 12.8636 17.8147 13.8756C17.7719 14.8116 17.6155 15.3196 17.4841 15.6576C17.3101 16.1056 17.1017 16.4246 16.7657 16.7604C16.4297 17.0964 16.1107 17.3044 15.6625 17.4784C15.3244 17.6104 14.816 17.7664 13.88 17.8092C12.868 17.8552 12.564 17.8652 10.0008 17.8652C7.43737 17.8652 7.13356 17.8552 6.12155 17.8092C5.18554 17.766 4.67754 17.6096 4.33894 17.4782C3.89093 17.3042 3.57093 17.0962 3.23492 16.7602C2.89892 16.4242 2.69092 16.105 2.51652 15.6568C2.38512 15.3188 2.22851 14.8108 2.18591 13.8748C2.13991 12.8628 2.13071 12.5588 2.13071 9.99513C2.13071 7.4315 2.13991 7.1291 2.18591 6.11709C2.22871 5.18108 2.38512 4.67307 2.51652 4.33467C2.69052 3.88666 2.89892 3.56666 3.23492 3.23066C3.57093 2.89465 3.89093 2.68665 4.33894 2.51225C4.67734 2.38025 5.18554 2.22425 6.12155 2.18125C7.00716 2.14125 7.35037 2.12925 9.13959 2.12725V2.12965ZM13.9735 4.87535C13.9735 4.23915 14.4895 3.72374 15.1255 3.72374V3.72334C15.7616 3.72334 16.2776 4.23935 16.2776 4.87535C16.2776 5.51136 15.7616 6.02736 15.1255 6.02736C14.4895 6.02736 13.9735 5.51136 13.9735 4.87535ZM10.0009 5.06982C7.27841 5.06993 5.07109 7.27731 5.07109 9.99988C5.07109 12.7225 7.27852 14.9289 10.0011 14.9289C12.7238 14.9289 14.9304 12.7225 14.9304 9.99988C14.9304 7.27725 12.7236 5.06982 10.0009 5.06982ZM13.2013 9.99955C13.2013 8.23213 11.7685 6.79951 10.0013 6.79951C8.23384 6.79951 6.80122 8.23213 6.80122 9.99955C6.80122 11.7668 8.23384 13.1996 10.0013 13.1996C11.7685 13.1996 13.2013 11.7668 13.2013 9.99955Z" fill="white"/>
</svg>
