<svg width="119" height="134" viewBox="0 0 119 134" fill="none" xmlns="http://www.w3.org/2000/svg">
<rect x="4.2793" y="32.0957" width="108.056" height="99.4973" fill="white"/>
<path d="M55.9236 1.73586C57.0707 1.12962 58.1436 0.296579 59.4303 0C60.8695 0.492845 62.1605 1.32588 63.517 2.00191C80.8276 10.9909 98.0772 20.1107 115.392 29.0997C116.369 29.6885 117.695 29.9894 118.249 31.0885C118.655 32.6499 118.532 34.2855 118.755 35.8774V132.628C115.157 133.334 111.471 132.916 107.829 133.038C73.5178 133.042 39.2149 133.43 4.90326 133.483C3.4509 133.531 1.98544 133.469 0.581053 133.06C0.319365 131.891 0.127461 130.7 0.192883 129.501C0.39351 125.157 0.0969305 120.813 0.171075 116.464C0.15363 92.7683 0.110015 69.0768 0.044593 45.381C0.0227857 41.4906 -0.108058 37.5784 0.21469 33.7054C1.14804 32.2705 2.81412 31.5901 4.23596 30.7483C21.4725 21.0964 38.6959 11.4096 55.9236 1.73586ZM70.7701 37.0681C70.9096 43.4751 70.8224 49.8864 70.8878 56.2978C70.9532 57.3183 70.7003 58.666 71.8037 59.2461C75.6723 59.8523 80.6182 56.132 79.0961 51.9276C78.5902 49.9824 76.5839 49.0665 74.8568 48.4471C77.0113 46.262 79.1833 44.0988 81.3597 41.9398C81.3641 47.6533 81.207 53.3756 81.4818 59.0804C82.4152 60.2798 85.237 59.7215 85.0757 58.0031C85.128 51.7531 84.923 45.5075 85.0102 39.2575C84.9535 38.551 85.1324 37.731 84.6526 37.1291C83.5186 36.4226 82.1491 37.1858 81.3597 38.0625C79.0307 40.518 76.6013 42.8906 74.3334 45.4072C74.1851 42.4632 74.2985 39.5149 74.2723 36.5665C73.0773 36.1696 71.8255 36.4182 70.7701 37.0681ZM93.1836 36.754C92.6079 38.2195 93.393 39.9597 94.7974 40.6139C96.6815 41.6563 99.3725 40.47 99.8872 38.3896C100.04 37.6176 99.4292 36.7235 98.6442 36.693C98.051 37.2731 97.7152 38.045 97.2878 38.7429C96.6161 38.7385 95.9401 38.7341 95.2684 38.7341C94.7799 37.936 94.5008 35.8905 93.1836 36.754ZM54.227 37.6089C53.7865 39.2924 54.0569 41.0675 54.1442 42.7816C56.5386 43.2439 58.9941 42.9822 61.4104 42.9037C61.3406 46.8072 61.6851 50.8547 60.3723 54.6055C59.8882 56.0099 58.6888 57.6106 57.0315 57.375C56.4383 57.0697 55.3218 56.5464 55.5835 55.7482C56.5386 55.3731 57.7031 55.1681 58.2396 54.1737C58.9636 53.1531 58.4925 51.8622 57.7075 51.0378C55.8888 50.6409 53.6077 50.6104 52.2862 52.1326C51.1522 53.7289 51.6407 55.9314 52.5086 57.5364C53.9523 59.7346 56.9399 60.1053 59.3299 59.6299C61.0571 58.9975 62.1038 57.2965 62.7144 55.6523C64.1668 51.5045 63.9226 47.0384 63.783 42.7162C64.4154 42.7162 65.0522 42.7162 65.6846 42.7162C65.6759 47.6795 65.6105 52.6429 65.7239 57.6062C65.6584 58.3956 65.9812 59.1065 66.3693 59.7738C66.7008 59.7738 67.3681 59.7738 67.6996 59.7738C68.6329 58.3476 68.3494 56.59 68.3364 54.985C68.1968 49.4459 68.1663 43.9025 68.1445 38.3634C68.332 37.5871 67.5775 37.0724 66.8796 37.1771C63.3774 37.1466 59.8751 37.1946 56.3729 37.1553C55.6445 37.1902 54.8115 37.0593 54.227 37.6089ZM88.5692 37.0419C87.7274 38.6687 88.2115 40.5572 88.0938 42.3106C88.2115 47.5356 88.1636 52.7606 88.1985 57.9856C87.9499 59.9439 91.5045 59.8611 91.4085 57.9944C91.4739 55.722 91.4085 53.4541 91.4041 51.1818C94.7799 49.7687 98.1993 48.4646 101.558 47.0122C101.553 50.545 101.553 54.0778 101.545 57.6106C101.575 58.3215 101.54 59.233 102.264 59.6474C103.167 59.7782 104.667 59.6037 104.663 58.4087C104.776 55.0809 104.528 51.7488 104.593 48.421C104.48 44.6352 104.846 40.8189 104.371 37.055C103.411 37.164 101.767 36.5752 101.514 37.9404C101.374 39.4887 101.483 41.0501 101.492 42.6028C98.1644 43.8763 94.8192 45.0975 91.4827 46.3536C91.4739 43.5579 91.5873 40.7579 91.4565 37.9665C91.2689 36.597 89.5069 37.2382 88.5692 37.0419ZM11.633 39.9597C13.1944 40.3479 14.8561 40.0033 16.4568 40.0557C16.5484 45.8826 16.5484 51.7095 16.5266 57.5408C16.6094 58.2779 16.3783 59.3028 17.1982 59.7041C18.0225 59.9265 18.8861 59.8 19.7235 59.7738C20.3123 58.2386 20.0506 56.5725 20.0942 54.9719C20.1073 50.0042 20.0942 45.0365 19.9939 40.0688C21.4201 40.0426 22.8987 40.2519 24.29 39.8332C24.966 39.6893 25.3847 39.0089 25.3803 38.346C24.918 37.1204 23.4308 37.3952 22.3927 37.3647C18.9079 37.5042 15.41 37.26 11.9339 37.4824C10.7084 37.5566 10.3943 39.589 11.633 39.9597ZM27.1554 37.9753C27.0464 44.7879 27.1118 51.6135 27.1772 58.4305C27.0813 59.3421 28.2066 59.5732 28.8957 59.5252C31.5169 59.4816 34.1469 59.6474 36.7637 59.3944C36.8423 58.0641 36.8553 56.7295 36.7986 55.3993C34.4783 54.6666 31.9967 55.1943 29.6066 55.0547C29.6546 51.836 29.6066 48.6172 29.6371 45.4028C31.5823 45.4595 33.5319 45.4813 35.4728 45.3636C35.5033 44.609 35.5251 43.8501 35.5425 43.0956C33.5624 42.8252 31.5562 43.052 29.5673 43.0564C29.5499 42.3542 29.5368 41.652 29.5237 40.9454C31.9007 40.8974 34.2864 41.085 36.6547 40.8713C37.1301 39.8071 37.0429 38.6251 36.8466 37.5086C33.7587 37.4693 30.6664 37.4868 27.5829 37.5653C27.4782 37.67 27.2645 37.8749 27.1554 37.9753ZM40.0261 38.7996C40.0654 45.6296 39.9825 52.464 40.2311 59.2897C41.4654 59.6648 43.1838 60.0355 44.1215 58.8841C44.2524 52.7999 44.139 46.7069 44.1084 40.6183C44.6842 40.6139 45.2599 40.6139 45.8356 40.6096C45.7745 46.8421 45.8181 53.0746 45.9446 59.3028C47.1658 59.4947 48.9235 60.1577 49.7914 58.9277C49.9223 51.9363 49.7871 44.9361 49.7042 37.9491C49.6213 37.7964 49.4469 37.4911 49.3596 37.3385C46.4593 37.1684 43.5327 37.212 40.628 37.3167C39.8778 37.4214 40.0697 38.2806 40.0261 38.7996ZM78.516 67.6332C78.2849 75.9069 78.455 84.1893 78.3895 92.4717C78.4419 93.9285 78.3765 95.769 79.698 96.7198C81.2332 97.4002 83.0214 97.1996 84.5872 96.7285C85.743 96.2357 85.8782 94.9098 85.8258 93.8151C85.7081 86.1825 85.5816 78.5499 85.6078 70.9174C88.5692 72.6532 91.4827 74.4676 94.4223 76.2427C95.203 76.7269 96.2977 77.1368 97.1264 76.5088C99.1632 75.0608 100.969 73.3031 102.988 71.8246C103.289 79.1518 103.834 86.4704 104.27 93.7933C104.201 94.9098 104.872 96.0089 106.015 96.2313C107.236 96.1092 107.55 94.7877 107.389 93.7714C107.005 88.1059 106.996 82.4273 106.608 76.7661C106.39 73.7698 106.787 70.6906 105.954 67.7728C105.191 66.3684 103.184 66.6693 102.146 67.5721C99.9701 69.3385 97.8199 71.1442 95.6653 72.9367C92.0889 70.7865 88.4383 68.7497 84.8358 66.6475C83.7716 65.9715 82.5198 65.6051 81.2594 65.8232C80.1821 65.9017 78.4768 66.2332 78.516 67.6332ZM57.8471 66.5036C51.2438 68.1173 45.6088 73.8832 44.863 80.7438C44.3309 84.9046 45.9621 89.1832 48.9584 92.0836C52.9535 95.9914 58.9331 97.8232 64.4154 96.6238C67.8697 95.7821 70.7264 93.3004 72.5757 90.3303C74.6997 86.8629 75.6593 82.7239 75.5023 78.6808C75.2275 73.9224 72.1221 69.561 67.8522 67.5285C64.7949 65.9235 61.1661 65.749 57.8471 66.5036ZM16.7926 67.2843C16.4568 68.6799 16.6705 70.141 16.6225 71.5629C16.5745 77.6646 16.7577 83.7619 16.6967 89.8636C16.7054 90.7053 16.4786 91.5515 16.025 92.2624C15.0611 93.8281 12.9153 92.8686 11.4236 93.3309C11.3713 95.9391 11.319 98.5472 11.4673 101.151C12.4748 101.312 13.4953 101.312 14.5072 101.168C14.7078 99.6289 14.7078 98.0762 14.6555 96.5322C22.9772 96.3665 31.3032 96.4232 39.6249 96.4189C39.59 97.9933 39.6467 99.5722 39.8037 101.147C40.7719 101.182 42.2505 101.757 42.7826 100.593C42.9396 98.3292 42.7956 96.0438 42.7389 93.7714C41.9495 92.6375 40.2442 93.2132 39.0666 93.0518C39.023 84.4379 38.9619 75.824 38.9619 67.2101C38.3033 66.7696 37.5444 66.5472 36.7507 66.5995C30.9368 66.569 25.123 66.7827 19.3092 66.6824C18.4674 66.7914 17.316 66.4033 16.7926 67.2843ZM104.89 107.685C103.529 109.508 104.083 112.02 104.052 114.153C104.899 114.689 104.899 113.538 105.173 113.023C105.618 112.678 106.072 112.343 106.521 112.007C106.538 112.927 106.364 114.004 107.376 114.458C107.733 112.526 107.694 110.537 107.537 108.587L107.044 108.491C106.512 109.242 106.041 110.057 105.217 110.541C105.247 109.865 104.846 108.683 105.819 108.513C106.778 108.374 108.471 107.449 107.323 106.38C106.713 106.468 106.451 107.205 105.858 107.283C105.553 106.83 105.261 106.367 104.977 105.905C104.393 106.398 104.257 107.131 104.89 107.685ZM23.0513 114.331C23.8189 114.423 24.5865 114.493 25.3585 114.558C25.7641 113.956 26.1349 113.32 26.619 112.774C27.5262 112.648 28.4508 112.678 29.3667 112.691C30.6359 112.491 30.9717 114.017 31.687 114.746C31.892 114.624 32.302 114.388 32.5113 114.266C31.0502 111.736 29.7549 109.098 28.0626 106.712C26.0912 109.028 24.6214 111.736 23.0513 114.331ZM48.5615 106.886C48.483 109.342 48.3783 111.806 48.6095 114.257C50.136 114.519 52.2469 114.916 53.2588 113.398C53.9261 112.504 53.4071 111.418 52.9927 110.55C53.285 109.625 53.8083 108.439 53.0058 107.623C51.837 106.45 50.0313 106.969 48.5615 106.886ZM56.905 106.961C54.7722 107.309 53.4027 109.673 54.0831 111.71C54.6414 114.58 58.7979 115.4 60.7431 113.437C61.9686 112.251 61.9643 110.28 61.4627 108.762C60.5948 107.17 58.6103 106.546 56.905 106.961ZM62.2565 107.397C62.1649 109.734 62.3088 112.085 62.3132 114.427C64.1188 114.877 63.7045 112.975 63.7612 111.845C66.2211 111.867 66.9233 107.955 64.664 107.135C63.9226 106.886 62.7014 106.507 62.2565 107.397ZM68.6591 107.288C68.332 108.404 68.066 109.56 67.3987 110.533C67.3681 109.25 67.656 107.911 67.15 106.686L66.5264 107.244C66.3345 109.542 66.3868 111.872 66.4958 114.174C66.6398 114.301 66.9363 114.554 67.0803 114.685C67.9656 113.642 67.8959 112.133 68.7507 111.082C69.0211 112.203 67.97 114.157 69.3918 114.615C70.0504 112.159 69.6623 109.429 69.4529 106.895C69.2523 106.995 68.8554 107.192 68.6591 107.288ZM69.9021 107.266C70.0635 107.876 70.2162 108.487 70.3819 109.098C71.0928 109.128 71.8037 109.15 72.519 109.167C72.567 110.847 72.5365 112.534 72.7981 114.201C73.1776 114.903 74.3116 114.894 74.6474 114.161C74.7477 112.482 74.5776 110.803 74.4948 109.128C75.2929 109.085 76.091 109.045 76.8892 109.002C76.8674 108.299 76.8456 107.602 76.8107 106.904C74.5209 107.043 72.1003 106.463 69.9021 107.266ZM77.43 107.309C77.2817 109.608 77.3646 111.915 77.3908 114.218C78.2325 114.253 79.0743 114.27 79.9204 114.288C79.9684 113.725 80.0207 113.167 80.0687 112.609C79.759 112.513 79.1353 112.329 78.8257 112.234C78.83 111.379 78.9304 110.541 80.0076 110.615C80.0382 109.9 79.5541 109.595 78.9304 109.433C78.9129 108.906 78.8955 108.382 78.8824 107.859C79.1615 107.837 79.7198 107.798 79.9989 107.776C79.9858 107.549 79.9597 107.091 79.9466 106.86C79.1397 107.035 77.9185 106.459 77.43 107.309ZM81.2943 106.921C80.4961 107.235 80.8581 108.265 80.9279 108.901C81.7217 109.063 82.5373 109.05 83.3442 109.093C83.0781 110.554 83.7149 113.241 81.6432 113.498C81.9398 113.11 82.2451 112.731 82.5591 112.356C82.5373 112.081 82.498 111.531 82.4762 111.261C81.6039 111.222 80.4787 111.038 80.1603 112.12C79.6805 113.856 81.9049 115.09 83.2744 114.118C84.6133 112.652 84.151 110.498 84.5828 108.714C84.7791 110.524 84.6657 112.351 84.7965 114.166C85.0015 114.253 85.4202 114.432 85.6252 114.519C85.8346 111.972 85.6208 109.416 85.6208 106.865C84.1772 106.882 82.7336 106.799 81.2943 106.921ZM86.4975 106.873C86.4539 109.351 86.4582 111.828 86.4233 114.305C87.5137 114.253 89.0228 114.637 89.6508 113.45C90.34 112.639 89.4109 111.736 88.6782 111.396C88.6041 109.931 88.8047 108.439 88.5212 106.995C87.8583 106.825 87.1692 106.886 86.4975 106.873ZM90.4533 106.917C89.9736 109.346 90.3181 111.902 90.4054 114.371L90.8284 114.619C91.7661 113.856 91.2428 112.295 91.4085 111.195C92.8958 111.204 94.3787 111.204 95.8659 111.195C96.0317 112.277 95.2946 113.891 96.4983 114.528L97.0043 114.249C97.2529 111.815 97.4186 109.233 96.9694 106.83C95.2379 106.555 95.9924 108.888 95.8659 109.913C94.4179 109.913 92.9743 109.913 91.5263 109.957C91.3256 108.91 91.9799 107.235 90.9418 106.673L90.4533 106.917ZM98.2822 106.882C97.8373 109.394 97.8373 111.981 97.8242 114.532C99.0149 114.545 100.725 114.03 100.515 112.517C100.677 111.562 99.7127 111.174 99.1196 110.663C98.9669 109.32 99.7607 107.562 98.7532 106.507L98.2822 106.882ZM101.54 107.349C101.226 109.66 101.344 112.002 101.309 114.327C102.007 114.349 102.705 114.366 103.407 114.366C103.407 112.159 103.516 109.948 103.416 107.741C103.577 106.729 101.684 106.359 101.54 107.349ZM11.5022 107.314C11.537 109.595 11.367 111.88 11.5152 114.161C12.5794 115.736 14.8518 113.581 14.2281 112.12C14.119 110.916 12.357 110.781 12.5533 109.464C13.5084 109.464 14.4679 109.516 15.4231 109.425C16.2649 109.019 15.7938 107.955 15.9203 107.235C14.4461 107.148 12.972 107.205 11.5022 107.314ZM17.4992 107.327C18.1141 109.39 18.8599 111.671 17.9528 113.769C17.7172 112.678 17.063 112.469 16.1994 112.962C16.2343 113.538 16.278 114.109 16.3172 114.685C17.3858 115.212 18.7378 114.833 19.1434 113.655C19.6755 111.906 19.3441 110.04 19.0431 108.278C19.9416 108.273 20.84 108.273 21.7429 108.269C21.756 110.471 21.3765 112.709 21.8781 114.885C22.0874 114.789 22.5018 114.593 22.7111 114.493C23.0164 112.116 22.999 109.7 22.999 107.301C21.1628 107.296 19.331 107.288 17.4992 107.327ZM32.7556 107.131C32.7425 109.669 32.5985 112.216 32.9213 114.741C33.3662 114.545 34.3431 114.658 34.2559 113.917C34.3431 112.111 34.2559 110.301 34.2603 108.491C34.5438 108.382 35.1064 108.164 35.3899 108.055C35.8653 106.551 33.6104 107.266 32.7556 107.131ZM37.78 107.427C36.3102 108.225 35.2198 109.935 35.5687 111.64C35.97 113.49 37.8846 114.689 39.7121 114.667C42.8567 114.501 44.4181 109.778 41.9713 107.798C40.8417 106.764 39.084 106.694 37.78 107.427ZM43.2056 108.108C43.8293 108.134 44.4574 108.156 45.0811 108.177C45.0636 110.223 45.0941 112.273 45.0374 114.318C45.5434 114.549 46.42 114.772 46.4985 113.934C46.6294 112.046 46.5203 110.153 46.5203 108.265C47.1309 108.116 47.8593 108.173 48.3347 107.68C47.9422 106.712 46.7253 107.104 45.9228 107.004C44.9546 107.109 43.1838 106.603 43.2056 108.108ZM50.3104 118.946C48.374 119.138 46.5858 121.214 47.4362 123.159C47.7895 124.454 49.0718 125.082 50.2886 125.327C50.5242 125.924 50.7466 126.578 51.5055 126.6C51.5535 126.282 51.6407 125.649 51.6887 125.335C53.2937 125.165 54.9118 123.879 54.6894 122.125C54.9816 120.376 53.442 119.05 51.8195 118.898C51.6581 118.627 51.331 118.087 51.1697 117.816C50.8818 118.191 50.5983 118.571 50.3104 118.946ZM63.3469 119.037C63.3818 121.375 63.2945 123.713 63.3992 126.051C63.7089 126.033 64.3282 125.998 64.6378 125.981C64.6989 125.069 64.7164 124.153 64.7076 123.242C66.1077 122.958 65.2485 125.122 65.4883 125.924C66.064 125.833 67.2591 126.116 67.2242 125.191C67.3158 123.15 67.3376 121.1 67.2198 119.059C67.1326 118.279 66.0335 118.54 65.5058 118.326C65.4142 119.33 65.3575 120.337 65.183 121.332C64.3805 120.551 64.8734 119.356 64.4852 118.431C64.0185 118.095 63.216 118.396 63.3469 119.037ZM57.4414 118.832C55.8364 119.661 54.7809 121.532 55.2171 123.338C55.867 125.449 58.4664 126.657 60.4988 125.806C62.54 124.838 63.1942 122.09 62.3176 120.128C61.3973 118.44 59.0813 117.96 57.4414 118.832ZM68.5108 118.54C68.5326 120.546 68.5283 122.553 68.5457 124.563C67.2678 124.668 67.5295 126.107 67.608 127.015C68.5021 127.237 68.6373 126.535 68.7333 125.846C69.3831 125.85 70.0373 125.854 70.6916 125.863C70.9969 126.365 70.8966 127.538 71.8997 126.988C71.9913 126.312 72.0174 125.636 72.0393 124.956C71.7906 124.873 71.2934 124.699 71.0448 124.616C71.1146 122.583 71.1103 120.551 71.0536 118.523C70.2074 118.518 69.3569 118.523 68.5108 118.54Z" fill="#F76149"/>
<path d="M74.015 50.1309C76.8194 50.9988 76.8151 55.8444 73.8362 56.4637C73.8013 54.3528 73.9234 52.2418 74.015 50.1309Z" fill="#F76149"/>
<path d="M20.1651 69.3164C22.6467 69.3774 25.124 69.2771 27.6057 69.2466C27.6275 77.215 27.6275 85.1834 27.6973 93.1518C24.6748 93.2782 21.6436 93.1605 18.6211 93.3044C19.1576 92.3623 19.899 91.4421 19.8467 90.295C19.9383 83.888 19.7464 77.4854 19.7856 71.0784C19.7594 70.4634 19.9601 69.879 20.1651 69.3164Z" fill="#F76149"/>
<path d="M62.7572 75.7673C64.3927 75.2962 65.2868 77.5773 64.3578 78.72C63.7516 79.7144 62.2687 80.0546 61.3921 79.2041C60.1883 78.0745 61.2394 75.9068 62.7572 75.7673Z" fill="#F76149"/>
<path d="M55.6048 75.9386C57.1531 75.6464 58.3568 77.8838 57.4104 79.1181C56.8434 80.2041 55.1119 80.0864 54.5406 79.0658C53.7424 77.9929 54.305 76.2919 55.6048 75.9386Z" fill="#F76149"/>
<path d="M67.4808 85.7418C68.545 84.5947 68.9593 83.029 69.9363 81.8252C70.4291 82.2613 71.3755 82.7062 70.9568 83.5262C69.5394 88.0621 64.8595 90.8185 60.2974 91.1587C56.7821 91.5513 53.2362 90.064 50.7982 87.5649C50.2879 87.1549 50.2617 86.4832 50.1309 85.8988C50.6324 85.7592 51.2736 85.1922 51.7184 85.7723C53.3845 87.4122 55.3821 88.8908 57.7721 89.1873C61.2875 89.6584 65.0994 88.4154 67.4808 85.7418Z" fill="#F76149"/>
<path d="M49.6465 107.737C50.3181 107.728 50.9942 107.715 51.6658 107.702C51.9493 108.16 52.7955 108.666 52.3244 109.272C51.9144 110.371 50.5406 109.861 49.6508 110.057C49.6508 109.281 49.6508 108.509 49.6465 107.737Z" fill="#F76149"/>
<path d="M57.4161 107.85C58.3974 107.392 59.3918 108.496 59.5139 109.429C59.7146 110.707 59.78 112.26 58.8336 113.276C57.8522 114.061 56.6005 113.075 56.3083 112.068C55.8242 110.659 55.9245 108.609 57.4161 107.85Z" fill="#F76149"/>
<path d="M28.3942 109.438C28.9088 110.14 29.3624 110.882 29.7811 111.645C28.8958 111.649 28.0104 111.654 27.125 111.667C27.5611 110.93 27.9755 110.184 28.3942 109.438Z" fill="#F76149"/>
<path d="M39.005 110.381C39.7247 110.132 39.9514 110.368 39.681 111.083C38.9745 111.336 38.7477 111.101 39.005 110.381Z" fill="#F76149"/>
<path d="M49.6387 111.06C50.21 111.082 50.777 111.099 51.3484 111.121C51.3266 111.884 51.3004 112.648 51.2655 113.411C50.8817 113.411 50.1097 113.411 49.7259 113.411C49.691 112.626 49.6648 111.845 49.6387 111.06Z" fill="#F76149"/>
<path d="M69.5056 119.198C69.6365 119.32 69.9025 119.565 70.0334 119.687C70.1511 121.287 70.1468 122.905 70.0334 124.51C69.9025 124.62 69.6365 124.842 69.5013 124.951C69.4489 123.036 69.4446 121.113 69.5056 119.198Z" fill="#F76149"/>
<path d="M48.6757 122.509C48.3312 121.214 49.5262 120.316 50.5424 119.827C50.5599 121.341 50.5599 122.854 50.5468 124.372C49.7399 123.966 48.7499 123.547 48.6757 122.509Z" fill="#F76149"/>
<path d="M51.6364 119.789C52.513 120.268 53.6121 120.918 53.442 122.1C53.6121 123.317 52.5959 124.041 51.6189 124.464C51.5666 122.907 51.5622 121.346 51.6364 119.789Z" fill="#F76149"/>
<path d="M58.6135 121.777C59.3288 121.528 59.5599 121.763 59.3157 122.474C58.6004 122.727 58.3693 122.492 58.6135 121.777Z" fill="#F76149"/>
</svg>
