<svg width="16" height="28" viewBox="0 0 16 28" fill="none" xmlns="http://www.w3.org/2000/svg">
<path d="M7.99996 4.70022C9.57131 4.70022 10.8495 5.97838 10.8495 7.54974C10.8495 9.11977 9.57098 10.3979 7.99996 10.3979C6.42959 10.3979 5.1511 9.11977 5.1511 7.54974C5.15077 5.97805 6.42992 4.70022 7.99996 4.70022ZM7.99996 14.4294C11.7956 14.4294 14.8823 11.3437 14.8823 7.54974C14.8823 3.75378 11.7959 0.666748 7.99996 0.666748C4.20466 0.666748 1.11763 3.75411 1.11763 7.54974C1.11763 11.3437 4.20466 14.4294 7.99996 14.4294ZM10.7843 20.0431C12.2001 19.7207 13.5512 19.1613 14.7805 18.3884C15.2331 18.1037 15.554 17.6509 15.6727 17.1295C15.7913 16.6082 15.698 16.061 15.4133 15.6084C15.2725 15.3841 15.0888 15.1898 14.8728 15.0365C14.6569 14.8832 14.4128 14.774 14.1545 14.7152C13.8963 14.6563 13.629 14.6489 13.3679 14.6934C13.1068 14.738 12.8571 14.8335 12.633 14.9746C9.81344 16.7473 6.1845 16.7459 3.36727 14.9746C3.14318 14.8335 2.89346 14.7379 2.63239 14.6934C2.37133 14.6488 2.10404 14.6562 1.84583 14.7151C1.58762 14.7739 1.34355 14.8831 1.12759 15.0364C0.911627 15.1897 0.728014 15.3841 0.587255 15.6084C0.302438 16.0609 0.208998 16.6079 0.327487 17.1293C0.445976 17.6506 0.766689 18.1036 1.21909 18.3884C2.44832 19.161 3.79917 19.7204 5.21468 20.0431L1.36733 23.8912C0.989244 24.2694 0.776888 24.7823 0.776981 25.3171C0.777074 25.8519 0.989606 26.3647 1.36783 26.7428C1.74604 27.1209 2.25897 27.3333 2.79376 27.3332C3.32855 27.3331 3.8414 27.1205 4.21949 26.7423L7.9993 22.9618L11.7814 26.7426C11.9684 26.9299 12.1905 27.0785 12.435 27.1799C12.6795 27.2812 12.9415 27.3334 13.2062 27.3334C13.4708 27.3334 13.7329 27.2812 13.9774 27.1799C14.2218 27.0785 14.4439 26.9299 14.6309 26.7426C14.8185 26.5557 14.9673 26.3335 15.0688 26.0889C15.1704 25.8443 15.2226 25.5821 15.2226 25.3172C15.2226 25.0524 15.1704 24.7902 15.0688 24.5456C14.9673 24.301 14.8185 24.0788 14.6309 23.8918L10.7843 20.0431Z" fill="white"/>
</svg>
