<svg width="13" height="13" viewBox="0 0 13 13" fill="none" xmlns="http://www.w3.org/2000/svg">
<path fill-rule="evenodd" clip-rule="evenodd" d="M1.85034 12.993C1.66634 12.993 1.48973 12.9374 1.33903 12.8326C0.788597 12.4485 0.71457 12.0212 0.749469 11.73C0.845703 10.9294 1.91009 10.0914 3.91409 9.23768C4.70934 7.61676 5.466 5.61962 5.91703 3.95099C5.38933 2.88283 4.87643 1.49698 5.25026 0.684059C5.38139 0.399316 5.54478 0.180963 5.84987 0.0865402C5.97043 0.0491645 6.275 0.00195312 6.38709 0.00195312C6.62682 0.00195312 6.84045 0.260229 7.0018 0.455305L7.00183 0.455339C7.01984 0.477108 7.03719 0.498089 7.05386 0.517836L7.05736 0.521984C7.21503 0.70869 7.55834 1.11523 6.85663 3.86296C7.5694 5.23209 8.57933 6.62679 9.54696 7.58184C10.2402 7.46528 10.8366 7.40578 11.3225 7.40578C12.1506 7.40578 12.6524 7.58528 12.857 7.9551C13.0262 8.26099 12.9569 8.61852 12.6508 9.01736C12.3563 9.40046 11.9502 9.60308 11.4769 9.60308C10.834 9.60308 10.0852 9.22538 9.25032 8.47935C7.75023 8.77098 5.99846 9.29128 4.58244 9.86716C4.1404 10.7396 3.71686 11.4424 3.32241 11.9577C2.78043 12.6635 2.31301 12.993 1.85034 12.993ZM3.24548 10.3936C2.15808 10.999 1.71487 11.4966 1.68281 11.7768L1.68279 11.777C1.67769 11.8236 1.66431 11.9455 1.90213 12.1257C1.97794 12.102 2.42064 11.9019 3.24548 10.3936ZM10.7156 8.66104L10.7156 8.66103L10.7155 8.66096C10.6405 8.59561 10.5528 8.51921 10.4443 8.43184C10.7964 8.38468 11.129 8.37262 11.3935 8.37207C11.8234 8.37207 11.9292 8.43373 11.9936 8.47125L12.0091 8.48009C11.997 8.51957 11.9666 8.59304 11.8886 8.70764C11.7267 8.94396 11.3773 8.94945 11.2547 8.94945C11.0465 8.94945 10.9356 8.85278 10.7156 8.66104ZM6.54096 4.9082C6.16206 6.1357 5.66181 7.46095 5.12394 8.66116C6.23148 8.25877 7.43548 7.90749 8.56635 7.65891C7.85094 6.88094 7.13607 5.90945 6.54096 4.9082ZM6.08654 0.868223C6.0303 0.883033 5.32328 1.65679 6.14163 2.31161C6.68625 1.36237 6.11122 0.861939 6.08654 0.868223Z" fill="#F76149"/>
</svg>
