<svg width="9" height="11" viewBox="0 0 9 11" fill="none" xmlns="http://www.w3.org/2000/svg">
<path d="M2.05727 9.128H0.797266V7.812H2.05727V6.944H0.797266V5.488H2.05727V0.699999H5.34727C6.52327 0.699999 7.40993 0.984666 8.00727 1.554C8.61393 2.114 8.91727 2.87 8.91727 3.822C8.91727 4.774 8.61393 5.53467 8.00727 6.104C7.40993 6.664 6.52327 6.944 5.34727 6.944H3.73727V7.812H6.95727V9.128H3.73727V10.5H2.05727V9.128ZM5.20727 5.488C5.95393 5.488 6.4766 5.35267 6.77527 5.082C7.08327 4.802 7.23727 4.382 7.23727 3.822C7.23727 3.262 7.08327 2.84667 6.77527 2.576C6.4766 2.296 5.95393 2.156 5.20727 2.156H3.73727V5.488H5.20727Z" fill="#F76149"/>
</svg>
