<svg width="119" height="112" viewBox="0 0 119 112" fill="none" xmlns="http://www.w3.org/2000/svg">
<path fill-rule="evenodd" clip-rule="evenodd" d="M119 82.5884C118.749 83.0151 118.495 83.4395 118.237 83.8616C110.427 96.4156 98.362 106.905 83.7737 110.463C60.6202 115.532 35.3668 107.79 18.4944 91.2723C5.84014 79.0133 -1.04881 60.9289 1.19839 43.3423C3.02947 26.4848 11.8388 11.1911 24.373 0H107C113.627 0 119 5.37258 119 12V82.5884ZM71.0088 36.8349C65.925 32.0603 70.3642 22.8983 76.7742 22.3084C83.6815 20.3175 87.4576 29.9588 83.5342 34.7887C80.9739 38.9917 74.7112 40.4296 71.0088 36.8349ZM42.0716 36.245C38.7008 31.7101 41.0769 24.5206 46.566 23.0274C53.105 21.7923 58.1888 31.2492 54.1917 36.4662C51.7972 41.0564 44.4845 40.5587 42.0716 36.245ZM55.7205 79.0317C70.5667 81.0227 86.6655 75.7688 96.7227 64.4684C99.1319 61.8694 100.753 58.7619 102.373 55.6542C103.776 52.9645 105.179 50.2746 107.093 47.9141C107.492 48.2678 107.962 48.6228 108.448 48.9902C110.496 50.5375 112.832 52.3028 111.403 55.1036C105.417 74.2756 85.6525 85.9263 66.3855 87.3642C51.5393 89.0233 36.5641 82.7371 26.2675 72.174C24.511 70.7617 24.1127 68.6145 23.7263 66.531C23.5805 65.7451 24.0498 64.9469 24.7773 64.6156C24.9059 64.557 25.0356 64.4969 25.1659 64.4365C26.898 63.6336 28.7556 62.7725 30.1541 64.5974C37.1904 71.5288 45.6266 77.7782 55.7205 79.0317Z" fill="#F76149"/>
</svg>
