<svg width="152" height="144" viewBox="0 0 152 144" fill="none" xmlns="http://www.w3.org/2000/svg">
<path opacity="0.2" fill-rule="evenodd" clip-rule="evenodd" d="M152 106.185C151.678 106.734 151.351 107.279 151.019 107.822C140.978 123.963 125.466 137.449 106.71 142.024C76.9408 148.541 44.4722 138.587 22.7791 117.35C6.50931 101.589 -2.34791 78.3372 0.541346 55.7258C2.89559 34.0519 14.2219 14.3886 30.3373 0H140C146.627 0 152 5.37258 152 12V106.185ZM90.2976 47.3591C83.7613 41.2204 89.4687 29.4407 97.7102 28.6823C106.591 26.1225 111.446 38.5184 106.402 44.7283C103.11 50.1322 95.0578 51.981 90.2976 47.3591ZM53.0926 46.6007C48.7587 40.7701 51.8137 31.5265 58.8711 29.6066C67.2783 28.0186 73.8147 40.1776 68.6756 46.8851C65.5969 52.7868 56.195 52.1469 53.0926 46.6007ZM70.6412 101.612C89.7292 104.172 110.428 97.417 123.358 82.8879C126.456 79.5464 128.539 75.551 130.623 71.5554C132.427 68.0972 134.23 64.6388 136.691 61.6039C137.205 62.0586 137.809 62.5151 138.434 62.9874C141.067 64.9767 144.07 67.2465 142.233 70.8475C134.536 95.4972 109.125 110.477 84.3533 112.325C65.2653 114.459 46.0115 106.376 32.7731 92.7952C30.5147 90.9793 30.0026 88.2186 29.5058 85.5399C29.393 84.9321 29.2811 84.3285 29.1497 83.7412C29.846 83.5473 30.5918 83.2015 31.3568 82.8469C33.5836 81.8146 35.9721 80.7074 37.7701 83.0538C46.8167 91.9656 57.6633 100 70.6412 101.612Z" fill="white"/>
</svg>
