<svg width="41" height="41" viewBox="0 0 41 41" fill="none" xmlns="http://www.w3.org/2000/svg">
<path fill-rule="evenodd" clip-rule="evenodd" d="M0.133032 19.4591C1.12721 10.3588 8.63935 2.71111 17.442 0.570616C21.8664 -0.429138 26.7041 -0.198425 30.7796 1.92925C36.472 4.62517 40.6118 10.4101 40.9779 16.7205C41.1873 22.0824 39.9075 27.5725 37.0764 32.1697C34.6114 36.1088 30.8032 39.4029 26.1985 40.518C18.8892 42.1074 10.9176 39.6806 5.59241 34.4981C1.59745 30.6487 -0.576633 24.9748 0.133032 19.4591ZM23.9889 12.8539C26.1695 12.2301 27.3612 15.255 26.1222 16.7717C25.3138 18.0877 23.3372 18.5405 22.1691 17.4126C20.5641 15.913 21.9652 13.0419 23.9889 12.8539ZM17.0802 14.8021C16.9245 14.4176 16.6947 14.063 16.4102 13.7725C15.896 13.247 15.2056 12.9436 14.453 13.0846C12.7213 13.5503 11.9708 15.8062 13.0348 17.2332C13.797 18.5833 16.1053 18.7413 16.8612 17.3015C17.1682 16.9042 17.3056 16.4299 17.3078 15.9386C17.3099 15.5541 17.2283 15.1653 17.0802 14.8021ZM30.2857 26.0857C31.704 24.5647 32.2558 22.4883 33.5592 20.8904C33.6848 21.0015 33.833 21.1126 33.9865 21.2279L34.3709 21.5227L34.5201 21.6509L34.664 21.7919C35.0108 22.155 35.2072 22.5865 34.9195 23.1462C33.0299 29.1618 26.7911 32.8191 20.709 33.2677C16.0227 33.7889 11.2955 31.815 8.04563 28.5039C7.49164 28.0596 7.36603 27.3888 7.24364 26.7394L7.1556 26.295C7.34885 26.2395 7.55714 26.137 7.77079 26.0387C8.29686 25.7994 8.85085 25.5773 9.27279 26.1241C11.493 28.2988 14.1567 30.2599 17.3432 30.6529C22.0285 31.281 27.111 29.6318 30.2857 26.0857Z" fill="#F76149"/>
</svg>
