<svg width="25" height="21" viewBox="0 0 25 21" fill="none" xmlns="http://www.w3.org/2000/svg">
<path d="M21.8008 5.677C21.8008 5.89575 21.8008 6.1145 21.8008 6.302C21.8008 12.7707 16.8633 20.2395 7.86328 20.2395C5.08203 20.2395 2.51953 19.427 0.332031 18.052C0.707031 18.0832 1.11328 18.1145 1.48828 18.1145C3.76953 18.1145 5.89453 17.3332 7.58203 16.0207C5.42578 15.9895 3.61328 14.552 3.01953 12.6145C3.33203 12.677 3.61328 12.7082 3.95703 12.7082C4.39453 12.7082 4.83203 12.6457 5.23828 12.5207C2.98828 12.0832 1.30078 10.1145 1.30078 7.7395C1.30078 7.70825 1.30078 7.70825 1.30078 7.677C1.95703 8.052 2.70703 8.27075 3.51953 8.302C2.20703 7.427 1.33203 5.927 1.33203 4.20825C1.33203 3.302 1.58203 2.45825 1.98828 1.7395C4.39453 4.70825 8.01953 6.64575 12.082 6.8645C11.9883 6.52075 11.957 6.1145 11.957 5.7395C11.957 3.02075 14.1445 0.833252 16.8633 0.833252C18.2695 0.833252 19.5508 1.427 20.4258 2.3645C21.5508 2.14575 22.582 1.7395 23.5508 1.177C23.1758 2.33325 22.3945 3.27075 21.3945 3.89575C22.3945 3.77075 23.332 3.52075 24.207 3.1145C23.582 4.1145 22.7695 4.9895 21.8008 5.677Z" fill="white"/>
</svg>
