<svg width="365" height="219" viewBox="0 0 365 219" fill="none" xmlns="http://www.w3.org/2000/svg">
<path d="M357.413 21.7977C353.513 18.4277 349.173 15.8977 344.523 13.6977C342.283 12.6377 340.013 11.6577 337.753 10.6277C336.043 9.8477 333.493 9.02769 331.703 7.73769C331.913 6.68769 331.473 5.5477 330.113 5.2477L328.673 4.92769C326.733 4.49769 325.093 6.49774 326.083 8.28774C328.383 12.4377 334.073 13.9677 338.143 15.7977C343.803 18.3477 349.413 20.9377 354.153 25.0277C356.393 26.9577 359.643 23.7277 357.413 21.7977Z" fill="#F76149"/>
<path d="M363.703 30.318C352.313 19.978 338.003 12.2581 323.893 6.27806C321.213 5.13806 318.873 9.08802 321.583 10.238C335.293 16.048 349.403 23.508 360.463 33.558C362.643 35.528 365.893 32.298 363.703 30.318Z" fill="#F76149"/>
<path d="M330.702 62.0179C330.582 63.6779 332.932 65.3079 334.712 63.8979C336.522 62.4679 345.612 55.6678 339.312 53.4878C337.182 52.7478 334.082 54.8279 332.372 55.7879C330.232 56.9879 328.252 58.3678 326.022 59.0078C328.192 56.0578 332.972 53.1379 334.972 51.6479C338.322 49.1479 341.832 46.8778 345.432 44.7578C347.312 43.6478 346.582 41.2978 345.022 40.6778C346.152 39.6178 347.212 38.4678 348.192 37.1878C349.982 34.8478 346.002 32.5678 344.232 34.8778C337.242 44.0178 324.872 46.7378 316.692 54.6078C314.562 56.6578 317.802 59.8879 319.932 57.8479C321.502 56.3379 323.192 55.0278 324.952 53.8078C322.542 55.9078 320.472 58.3178 320.312 61.6278C320.252 62.9578 321.422 63.7978 322.602 63.9178C325.212 64.1878 327.522 63.5879 329.882 62.4579C330.162 62.3279 330.432 62.1779 330.702 62.0179Z" fill="#F76149"/>
<path d="M355.863 100.458C353.963 97.4978 351.693 94.8178 349.063 92.5178C351.223 93.9378 353.193 95.6677 354.933 97.7377C356.833 99.9977 360.063 96.7377 358.173 94.4977C353.443 88.8877 346.963 85.1978 339.723 84.0077C338.153 83.7477 337.083 84.9378 336.883 86.1478C335.033 86.0278 333.423 86.6977 332.793 89.0077C332.003 91.8577 336.423 93.0678 337.213 90.2278C337.153 90.4578 344.753 94.8378 345.513 95.4678C348.043 97.5478 350.143 100.018 351.903 102.768C353.493 105.238 357.453 102.948 355.863 100.458Z" fill="#F76149"/>
<path d="M301.583 18.7478C302.063 18.7378 302.543 18.7578 303.023 18.8178C303.043 18.8178 303.063 18.8279 303.073 18.8279C303.273 18.8479 303.483 18.8779 303.683 18.9079C306.233 19.1979 306.813 14.9179 304.293 14.4079C296.233 12.7879 288.133 11.4679 279.983 10.3979C277.073 10.0179 277.093 14.5979 279.983 14.9779C282.963 15.3679 285.943 15.8079 288.913 16.2779C284.223 16.0279 279.523 16.3079 274.803 17.1479C271.903 17.6679 273.133 22.0778 276.023 21.5678C283.793 20.1778 291.513 20.4878 299.163 22.4178C301.483 23.0078 302.723 20.2078 301.583 18.7478Z" fill="#F76149"/>
<path d="M292.883 75.3481C295.613 74.3181 294.433 69.8881 291.663 70.9281C291.133 71.1281 290.643 71.2781 290.163 71.3781C293.673 66.5081 299.093 63.0781 301.683 57.4581C302.573 55.5281 300.653 53.0081 298.553 54.3281C298.133 54.5881 297.733 54.8581 297.333 55.1381C297.023 53.7181 295.573 52.5881 294.073 53.6481C287.433 58.3781 280.793 63.5181 278.373 71.6481C277.773 73.6581 280.023 75.1181 281.733 74.2381C282.573 73.8081 283.373 73.3181 284.143 72.8081C283.853 74.0081 284.333 75.2981 285.683 75.6581C288.213 76.3281 290.423 76.2781 292.883 75.3481Z" fill="#F76149"/>
<path d="M308.623 111.018C308.243 110.228 307.843 109.458 307.433 108.688C307.893 108.748 308.353 108.768 308.793 108.738C309.743 109.008 310.813 108.588 311.393 107.838C312.363 107.048 312.843 105.718 312.373 103.698C311.503 99.9381 308.253 96.5281 304.423 95.9981C301.253 92.3381 297.753 88.9681 293.893 85.9381C291.603 84.1381 288.333 87.3581 290.653 89.1781C291.713 90.0081 292.733 90.8681 293.733 91.7481C291.923 91.2881 289.723 93.1581 291.073 95.0181C292.813 97.4181 294.733 99.6781 296.843 101.748C296.733 103.398 297.253 105.128 298.493 106.538C299.293 107.438 300.293 107.428 301.073 106.958C302.383 108.998 303.583 111.118 304.643 113.338C305.943 115.988 309.893 113.668 308.623 111.018Z" fill="#F76149"/>
<path d="M327.543 140.398C328.203 142.828 331.113 143.528 333.333 143.568C336.063 143.618 338.543 142.498 340.523 140.668C341.653 139.618 341.303 138.238 340.403 137.438C341.503 137.128 342.603 136.818 343.693 136.498C345.753 135.898 345.993 132.548 343.693 132.078C343.493 132.038 343.293 132.008 343.093 131.968C343.143 130.798 342.343 129.588 340.863 129.538C338.983 129.478 337.643 129.838 336.003 130.708C335.823 130.798 335.673 130.908 335.543 131.028C329.763 132.758 323.993 134.488 318.213 136.218C315.393 137.058 316.593 141.488 319.433 140.638C322.203 139.808 324.963 138.978 327.733 138.158C327.413 138.818 327.313 139.558 327.543 140.398Z" fill="#F76149"/>
<path d="M340.383 170.968C343.783 169.048 347.233 167.728 351.023 166.828C353.483 166.248 352.933 162.958 350.923 162.428C353.813 161.118 356.583 159.568 359.133 157.498C361.423 155.638 358.163 152.418 355.893 154.258C348.453 160.318 338.413 161.628 330.043 166.028C328.303 166.948 328.723 169.748 330.593 170.218C333.013 170.828 335.333 170.808 337.593 170.478C338.243 171.218 339.283 171.588 340.383 170.968Z" fill="#F76149"/>
<path d="M298.452 171.688C299.772 171.328 300.232 170.098 300.052 168.868C299.982 168.388 299.912 167.918 299.852 167.438L299.862 167.448C301.162 168.848 302.972 167.978 303.542 166.608C304.152 167.868 305.772 167.878 306.832 167.078C306.942 167.458 307.062 167.828 307.172 168.208C307.992 171.038 312.412 169.828 311.592 166.988C310.802 164.248 309.862 161.568 308.732 158.948C307.962 157.148 307.182 154.938 305.802 153.408C305.532 151.818 305.252 150.238 304.982 148.648C304.482 145.748 300.062 146.978 300.562 149.868C300.672 150.528 300.792 151.178 300.902 151.838C300.282 152.018 299.692 152.308 299.152 152.738C297.122 154.348 296.822 156.888 296.772 159.318C296.772 159.548 296.802 159.748 296.842 159.938C295.442 159.918 294.392 161.298 294.612 162.828C294.962 165.248 295.302 167.668 295.652 170.088C295.812 171.308 297.372 171.978 298.452 171.688ZM301.522 157.168C301.622 157.108 301.712 157.058 301.802 157.018C302.212 159.388 302.622 161.758 303.032 164.128C302.062 163.098 300.992 162.188 299.832 161.388C300.652 161.118 301.322 160.428 301.352 159.308C301.322 158.598 301.382 157.878 301.522 157.168Z" fill="#F76149"/>
<path d="M266.653 128.548C266.633 128.448 266.613 128.348 266.583 128.248C267.603 129.158 268.633 130.058 269.723 130.908C271.503 132.308 274.023 131.048 273.553 128.678C272.973 125.798 272.163 123.018 271.043 120.298C269.993 117.758 267.723 114.938 267.763 112.158C267.813 109.208 263.233 109.208 263.183 112.158C263.133 115.138 264.633 117.338 265.893 119.938C266.243 120.668 266.563 121.408 266.863 122.158C265.943 121.198 265.033 120.228 264.163 119.198C262.593 117.338 259.863 119.368 260.333 121.428L262.233 129.758C262.893 132.638 267.313 131.428 266.653 128.548Z" fill="#F76149"/>
<path d="M234.533 41.0977C239.733 39.1277 244.923 37.1576 250.123 35.1776C252.163 34.3976 252.113 32.0777 250.763 31.1277C251.953 30.0277 251.423 27.6477 249.753 27.2677C247.283 26.7077 244.823 26.6877 242.373 26.8477C245.763 25.7177 249.173 24.6577 252.623 23.7077C255.463 22.9277 254.253 18.5077 251.403 19.2877C243.513 21.4577 235.803 24.1076 228.253 27.2376C226.453 27.9776 225.733 31.2577 228.253 31.6577C231.213 32.1277 234.183 31.8977 237.143 31.6277C234.413 32.3977 231.623 33.0177 228.773 33.4577C226.453 33.8177 226.733 37.3277 228.773 37.8777C229.083 37.9577 229.383 38.0177 229.693 38.0677C229.033 38.3177 228.363 38.5677 227.703 38.8277C225.743 39.5677 225.563 41.7877 227.153 43.0177C228.893 44.3577 230.593 44.8477 232.783 44.8477C234.923 44.8277 235.503 42.4177 234.533 41.0977Z" fill="#F76149"/>
<path d="M255.412 81.9877C254.882 81.8177 254.342 81.6777 253.812 81.5177C255.362 81.4077 256.902 81.3077 258.452 81.1977C261.372 80.9977 261.402 76.4177 258.452 76.6177C247.752 77.3577 237.052 78.0977 226.352 78.8377C223.432 79.0377 223.402 83.6177 226.352 83.4177C227.772 83.3177 229.182 83.2177 230.602 83.1277C230.932 84.1977 231.942 85.1277 233.352 84.8677C240.432 83.5977 247.362 84.1677 254.202 86.3977C257.002 87.3277 258.212 82.8977 255.412 81.9877Z" fill="#F76149"/>
<path d="M238.682 152.988C238.512 147.038 237.712 141.138 236.212 135.408C237.732 135.578 239.352 134.468 238.632 132.688C235.492 124.958 232.012 117.408 228.132 110.018C226.762 107.408 222.802 109.718 224.172 112.328C225.432 114.738 226.642 117.168 227.832 119.608C227.822 119.608 227.822 119.598 227.812 119.598C227.732 119.488 227.652 119.388 227.552 119.278C226.122 117.858 224.682 116.438 223.252 115.018C221.102 112.878 218.242 115.998 220.012 118.258C220.612 119.018 221.152 119.808 221.672 120.618C221.172 121.918 221.962 123.668 223.482 123.828C225.342 127.618 226.442 131.738 226.712 136.028C226.892 138.958 231.482 138.978 231.292 136.028C231.252 135.398 231.202 134.778 231.132 134.158C231.482 135.298 231.802 136.458 232.082 137.618C233.342 142.658 233.952 147.778 234.102 152.978C234.192 155.938 238.772 155.948 238.682 152.988Z" fill="#F76149"/>
<path d="M260.473 183.878C265.423 177.828 270.933 172.338 277.003 167.408C279.293 165.548 276.033 162.328 273.763 164.168C271.773 165.788 269.853 167.478 267.973 169.218C268.093 169.108 268.213 168.988 268.333 168.878C268.633 168.588 268.823 168.278 268.923 167.968C270.853 165.608 272.893 163.338 274.833 161.058C276.733 158.828 273.503 155.568 271.593 157.818C269.273 160.548 266.863 163.248 264.633 166.068C260.443 169.918 253.593 174.638 254.033 180.898C254.153 182.528 255.623 183.258 256.873 183.068C257.443 184.488 259.243 185.378 260.473 183.878Z" fill="#F76149"/>
<path d="M206.953 16.6877C207.723 16.3577 208.033 15.6977 208.053 14.9977C209.513 14.2777 209.823 12.3377 208.613 11.2477C210.993 11.0577 211.693 7.23776 209.103 6.76776C203.423 5.72776 197.733 4.68777 192.053 3.64777C189.633 3.20777 188.383 6.23778 189.763 7.53778C189.703 8.43778 190.143 9.32778 191.223 9.65778C190.533 10.0678 190.223 10.8978 190.263 11.7178C188.763 12.3878 188.063 14.7377 189.913 15.8077C195.293 18.8777 201.283 19.0877 206.953 16.6877Z" fill="#F76149"/>
<path d="M209.993 47.5579C211.893 46.5779 211.193 44.228 209.673 43.528C210.313 42.998 210.853 42.3779 211.173 41.5679C212.453 38.3279 208.103 34.518 205.553 37.578C204.673 38.638 204.923 39.9179 205.633 40.7379C204.993 41.1179 204.343 41.4879 203.703 41.8579C202.203 42.7279 200.713 43.598 199.213 44.468C197.623 45.388 197.853 47.4579 199.213 48.4279C202.563 50.8079 206.713 49.2579 209.993 47.5579Z" fill="#F76149"/>
<path d="M263.262 55.6979C267.042 54.3179 270.862 53.0578 274.722 51.9278C277.012 51.2578 276.792 47.8479 274.582 47.4679C274.642 47.3479 274.702 47.2278 274.742 47.1078C275.312 46.9978 275.932 47.0278 276.572 47.2378C279.372 48.1778 280.572 43.7578 277.792 42.8178C274.922 41.8578 271.622 42.7779 269.582 44.9479C267.152 45.8179 264.772 46.8078 262.442 47.9278C261.022 48.6078 261.062 50.3278 261.902 51.3678C259.362 52.4778 260.542 56.6979 263.262 55.6979Z" fill="#F76149"/>
<path d="M202.123 91.058C201.863 90.388 201.582 89.738 201.282 89.098C202.762 89.958 204.252 90.808 205.752 91.638C207.862 92.808 209.833 90.518 208.883 88.508C207.273 85.068 203.373 83.258 200.353 81.238C196.773 78.848 193.203 76.458 189.623 74.068C188.943 73.078 188.233 72.708 186.903 72.708C184.583 72.708 183.942 75.628 185.642 76.898C185.222 77.848 185.362 79.058 186.472 79.808C187.242 80.328 188.033 80.838 188.803 81.348C191.363 83.168 193.623 85.318 195.373 87.878C194.603 87.638 193.833 87.408 193.073 87.168C190.253 86.298 189.043 90.718 191.853 91.588C194.333 92.348 196.822 93.108 199.302 93.878C200.872 94.348 202.753 92.698 202.123 91.058Z" fill="#F76149"/>
<path d="M218.942 179.928C220.382 179.718 221.822 179.488 223.252 179.228C225.612 178.798 225.242 175.448 223.252 174.808C220.832 174.038 218.362 173.648 215.872 173.418C218.292 173.258 220.722 173.168 223.172 173.168C226.122 173.168 226.122 168.588 223.172 168.588C214.392 168.598 205.742 169.598 197.192 171.568C194.932 172.088 195.102 175.378 197.192 175.988C198.682 176.428 200.192 176.718 201.712 176.928C200.222 178.038 200.692 180.978 203.072 181.088L216.772 181.698C218.052 181.748 218.782 180.908 218.942 179.928Z" fill="#F76149"/>
<path d="M260.702 6.85788C260.962 6.86788 261.222 6.85789 261.492 6.86789C262.172 6.88789 262.682 6.66792 263.052 6.32792L264.862 6.46793C267.802 6.68793 267.792 2.10791 264.862 1.88791L240.322 0.0179168C237.552 -0.192083 237.442 3.71789 239.792 4.48789C239.632 5.61789 240.172 6.86791 241.402 7.07791C246.892 7.97791 252.382 8.87794 257.872 9.78794C259.772 10.0779 260.952 8.25788 260.702 6.85788Z" fill="#F76149"/>
<path d="M354.232 209.118C353.832 208.148 353.402 207.208 352.952 206.278C353.472 206.618 353.992 206.958 354.512 207.298C356.712 208.728 359.132 205.508 357.292 203.698C352.962 199.458 348.912 194.958 345.222 190.148C343.812 188.318 341.012 189.388 340.832 191.078C339.932 190.358 339.002 189.668 338.042 189.008C335.852 187.508 333.482 190.788 335.262 192.608C337.622 194.998 340.162 197.158 342.802 199.198C345.742 202.468 348.122 206.218 349.822 210.348C350.922 213.028 355.352 211.848 354.232 209.118Z" fill="#F76149"/>
<path d="M295.803 212.578C297.493 212.388 299.043 212.068 300.563 211.568C301.193 212.208 302.153 212.458 303.123 211.768C305.353 210.208 307.683 208.928 310.123 207.898C310.153 207.898 310.173 207.898 310.203 207.898C312.573 207.698 314.693 207.048 316.673 205.698C318.783 204.258 317.513 200.898 314.913 201.508C312.413 202.098 310.003 202.918 307.673 203.938C308.693 203.328 309.733 202.728 310.803 202.178C311.133 202.008 311.363 201.778 311.543 201.518C313.743 200.408 315.933 199.298 318.133 198.188C320.413 197.038 318.823 193.098 316.373 193.998C315.153 194.448 313.953 194.928 312.763 195.438C312.383 194.078 311.003 193.078 309.593 194.148C306.853 196.218 304.353 198.468 302.033 200.978C299.923 201.998 297.853 203.108 295.823 204.328C294.423 205.168 294.473 206.678 295.233 207.648C294.883 207.978 294.533 208.308 294.183 208.648C292.883 209.958 293.753 212.808 295.803 212.578Z" fill="#F76149"/>
<path d="M268.043 206.748C269.093 203.918 271.153 201.698 273.773 200.258C276.363 198.838 274.053 194.888 271.463 196.298C271.383 196.338 271.303 196.398 271.223 196.438C270.763 194.758 268.163 193.848 267.003 195.788C265.913 197.608 264.833 199.428 263.743 201.258C263.083 202.368 263.463 203.428 264.223 204.058C264.003 204.528 263.793 205.018 263.613 205.518C262.603 208.298 267.023 209.498 268.043 206.748Z" fill="#F76149"/>
<path d="M248.202 216.008C249.922 215.588 250.362 213.388 249.212 212.178C241.942 204.508 232.742 199.288 222.412 197.018C220.592 196.618 219.432 198.248 219.562 199.658C218.862 200.698 218.882 202.298 220.182 203.018C223.532 204.868 226.882 206.718 230.232 208.568C231.682 209.708 233.052 210.958 234.362 212.338C235.302 213.328 236.492 213.168 237.302 212.498C240.682 214.488 244.202 216.978 248.202 216.008Z" fill="#F76149"/>
<path d="M204.822 215.168C203.902 213.028 202.502 211.328 200.832 209.918C197.932 206.098 195.022 202.268 192.122 198.448C191.332 197.408 189.542 196.698 188.522 197.988C187.262 199.568 187.202 201.088 188.562 202.628C189.042 203.168 189.602 203.378 190.142 203.358C190.522 203.858 190.892 204.348 191.272 204.848C189.812 204.808 188.542 205.968 188.932 207.658C189.072 208.268 189.212 208.878 189.362 209.488C189.812 211.438 191.992 211.498 193.142 210.438C194.752 211.218 196.302 212.098 197.632 213.218C198.712 214.638 199.792 216.058 200.862 217.478C202.652 219.838 205.992 217.888 204.822 215.168Z" fill="#F76149"/>
<path d="M4.32283 198.848C8.22283 202.218 12.5628 204.748 17.2128 206.948C19.4528 208.008 21.7228 208.988 23.9828 210.018C25.6928 210.798 28.2428 211.618 30.0328 212.908C29.8228 213.958 30.2628 215.098 31.6228 215.398L33.0628 215.718C35.0028 216.148 36.6428 214.148 35.6528 212.358C33.3528 208.208 27.6628 206.678 23.5928 204.848C17.9328 202.298 12.3228 199.708 7.58284 195.618C5.34284 193.688 2.09283 196.918 4.32283 198.848Z" fill="#F76149"/>
<path d="M0.722946 188.218C12.1129 198.558 26.4229 206.278 40.5329 212.258C43.2129 213.398 45.5529 209.448 42.8429 208.298C29.1329 202.488 15.0229 195.028 3.96294 184.978C1.79294 182.998 -1.45705 186.238 0.722946 188.218Z" fill="#F76149"/>
<path d="M37.3923 156.508C37.5123 154.848 35.1623 153.218 33.3823 154.628C31.5723 156.058 22.4823 162.858 28.7823 165.038C30.9123 165.778 34.0123 163.698 35.7223 162.738C37.8623 161.538 39.8423 160.158 42.0723 159.518C39.9023 162.468 35.1223 165.388 33.1223 166.878C29.7723 169.378 26.2623 171.648 22.6623 173.768C20.7823 174.878 21.5123 177.228 23.0723 177.848C21.9423 178.908 20.8823 180.058 19.9023 181.338C18.1123 183.678 22.0923 185.958 23.8623 183.648C30.8523 174.508 43.2223 171.788 51.4023 163.918C53.5323 161.868 50.2923 158.638 48.1623 160.678C46.5923 162.188 44.9023 163.498 43.1423 164.718C45.5523 162.618 47.6223 160.208 47.7823 156.898C47.8423 155.568 46.6723 154.728 45.4923 154.608C42.8823 154.338 40.5723 154.938 38.2123 156.068C37.9323 156.208 37.6623 156.358 37.3923 156.508Z" fill="#F76149"/>
<path d="M12.2421 118.078C14.1421 121.038 16.4121 123.718 19.0421 126.018C16.8821 124.598 14.9121 122.868 13.1721 120.798C11.2721 118.538 8.04212 121.798 9.93212 124.038C14.6621 129.648 21.1421 133.338 28.3821 134.528C29.9521 134.788 31.0221 133.598 31.2221 132.388C33.0721 132.508 34.6821 131.838 35.3121 129.528C36.1021 126.678 31.6821 125.468 30.8921 128.308C30.9521 128.078 23.3521 123.698 22.5921 123.068C20.0621 120.988 17.9621 118.518 16.2021 115.768C14.6121 113.288 10.6421 115.588 12.2421 118.078Z" fill="#F76149"/>
<path d="M66.5125 199.788C66.0325 199.798 65.5525 199.778 65.0725 199.728C65.0525 199.728 65.0325 199.718 65.0225 199.718C64.8225 199.698 64.6125 199.668 64.4125 199.638C61.8625 199.348 61.2826 203.628 63.8026 204.138C71.8626 205.748 79.9626 207.078 88.1126 208.148C91.0226 208.528 91.0026 203.948 88.1126 203.568C85.1326 203.178 82.1525 202.738 79.1825 202.268C83.8725 202.518 88.5725 202.238 93.2925 201.398C96.1925 200.878 94.9625 196.468 92.0725 196.978C84.3025 198.368 76.5825 198.058 68.9325 196.128C66.6125 195.528 65.3725 198.318 66.5125 199.788Z" fill="#F76149"/>
<path d="M75.2122 143.188C72.4822 144.218 73.6622 148.648 76.4322 147.608C76.9622 147.408 77.4522 147.258 77.9322 147.158C74.4222 152.028 69.0022 155.458 66.4122 161.078C65.5222 163.008 67.4422 165.528 69.5422 164.208C69.9622 163.948 70.3622 163.678 70.7622 163.398C71.0722 164.818 72.5222 165.948 74.0222 164.888C80.6622 160.158 87.3022 155.018 89.7222 146.888C90.3222 144.878 88.0722 143.418 86.3622 144.298C85.5222 144.728 84.7322 145.218 83.9522 145.728C84.2422 144.528 83.7622 143.238 82.4122 142.878C79.8822 142.208 77.6722 142.258 75.2122 143.188Z" fill="#F76149"/>
<path d="M59.4827 107.518C59.8627 108.308 60.2627 109.078 60.6727 109.848C60.2127 109.788 59.7527 109.768 59.3127 109.798C58.3627 109.528 57.2927 109.948 56.7127 110.698C55.7427 111.488 55.2627 112.818 55.7327 114.838C56.6027 118.598 59.8527 122.008 63.6827 122.538C66.8527 126.198 70.3527 129.568 74.2127 132.598C76.5027 134.398 79.7727 131.178 77.4527 129.358C76.3927 128.528 75.3727 127.668 74.3727 126.788C76.1827 127.248 78.3827 125.378 77.0327 123.518C75.2927 121.118 73.3727 118.858 71.2627 116.788C71.3727 115.138 70.8527 113.408 69.6127 111.998C68.8127 111.098 67.8127 111.108 67.0327 111.578C65.7227 109.538 64.5227 107.418 63.4627 105.198C62.1527 102.548 58.2027 104.868 59.4827 107.518Z" fill="#F76149"/>
<path d="M40.5525 78.1379C39.8925 75.7079 36.9825 75.0079 34.7625 74.9679C32.0325 74.9179 29.5525 76.0379 27.5725 77.8679C26.4425 78.9179 26.7925 80.2979 27.6925 81.0979C26.5925 81.4079 25.4925 81.7179 24.4025 82.0379C22.3425 82.6379 22.1025 85.9879 24.4025 86.4579C24.6025 86.4979 24.8025 86.5279 25.0025 86.5679C24.9525 87.7379 25.7525 88.9479 27.2325 88.9979C29.1125 89.0579 30.4525 88.6979 32.0925 87.8279C32.2725 87.7379 32.4225 87.6279 32.5525 87.5079C38.3325 85.7779 44.1025 84.0479 49.8825 82.3179C52.7025 81.4779 51.5025 77.0479 48.6625 77.8979C45.8925 78.7279 43.1325 79.5579 40.3625 80.3779C40.6925 79.7179 40.7825 78.9679 40.5525 78.1379Z" fill="#F76149"/>
<path d="M27.7123 47.5677C24.3123 49.4877 20.8623 50.8077 17.0723 51.7077C14.6123 52.2877 15.1623 55.5777 17.1723 56.1077C14.2823 57.4177 11.5123 58.9677 8.96228 61.0377C6.67228 62.8977 9.9323 66.1277 12.2023 64.2777C19.6423 58.2177 29.6823 56.9077 38.0523 52.5077C39.7923 51.5877 39.3723 48.7877 37.5023 48.3177C35.0823 47.7077 32.7623 47.7277 30.5023 48.0577C29.8523 47.3177 28.8123 46.9477 27.7123 47.5677Z" fill="#F76149"/>
<path d="M69.6425 46.8479C68.3225 47.2079 67.8625 48.4378 68.0425 49.6678C68.1125 50.1478 68.1825 50.6279 68.2425 51.0979L68.2325 51.0879C66.9325 49.6879 65.1225 50.5578 64.5525 51.9278C63.9425 50.6678 62.3225 50.6579 61.2625 51.4579C61.1525 51.0779 61.0325 50.7079 60.9225 50.3279C60.1025 47.4979 55.6825 48.7078 56.5025 51.5478C57.2925 54.2878 58.2325 56.9679 59.3625 59.5879C60.1325 61.3879 60.9125 63.5979 62.2925 65.1279C62.5625 66.7179 62.8425 68.2979 63.1125 69.8879C63.6125 72.7879 68.0325 71.5578 67.5325 68.6678C67.4225 68.0078 67.3025 67.3579 67.1925 66.6979C67.8125 66.5179 68.4025 66.2278 68.9425 65.7978C70.9725 64.1878 71.2725 61.6479 71.3225 59.2179C71.3225 58.9879 71.2925 58.7879 71.2525 58.5979C72.6525 58.6179 73.7025 57.2379 73.4825 55.7079C73.1325 53.2879 72.7925 50.8679 72.4425 48.4479C72.2825 47.2279 70.7225 46.5479 69.6425 46.8479ZM66.5825 61.3678C66.4825 61.4278 66.3925 61.4779 66.3025 61.5179C65.8925 59.1479 65.4825 56.7779 65.0725 54.4079C66.0425 55.4379 67.1125 56.3479 68.2725 57.1479C67.4525 57.4179 66.7825 58.1079 66.7525 59.2279C66.7725 59.9379 66.7125 60.6578 66.5825 61.3678Z" fill="#F76149"/>
<path d="M101.443 89.9877C101.463 90.0877 101.483 90.1877 101.513 90.2877C100.493 89.3777 99.4627 88.4777 98.3727 87.6277C96.5927 86.2277 94.0728 87.4877 94.5428 89.8577C95.1228 92.7377 95.9328 95.5177 97.0528 98.2377C98.1028 100.778 100.373 103.598 100.333 106.378C100.283 109.328 104.863 109.328 104.913 106.378C104.963 103.398 103.463 101.198 102.203 98.5977C101.853 97.8677 101.533 97.1277 101.233 96.3777C102.153 97.3377 103.063 98.3077 103.933 99.3377C105.503 101.198 108.233 99.1677 107.763 97.1077L105.863 88.7777C105.203 85.8977 100.793 87.1077 101.443 89.9877Z" fill="#F76149"/>
<path d="M133.562 177.438C128.362 179.408 123.172 181.378 117.972 183.358C115.932 184.138 115.982 186.458 117.332 187.408C116.142 188.508 116.672 190.888 118.342 191.268C120.812 191.828 123.272 191.848 125.722 191.688C122.332 192.818 118.922 193.878 115.472 194.828C112.632 195.608 113.842 200.028 116.692 199.248C124.582 197.078 132.292 194.428 139.842 191.298C141.642 190.558 142.362 187.278 139.842 186.878C136.882 186.408 133.912 186.638 130.952 186.908C133.682 186.138 136.472 185.518 139.322 185.078C141.642 184.718 141.362 181.208 139.322 180.658C139.012 180.578 138.712 180.518 138.402 180.468C139.062 180.218 139.732 179.968 140.392 179.708C142.352 178.968 142.532 176.748 140.942 175.518C139.202 174.178 137.502 173.688 135.312 173.688C133.172 173.708 132.592 176.118 133.562 177.438Z" fill="#F76149"/>
<path d="M125.953 136.548C126.483 136.718 127.023 136.858 127.553 137.018C126.003 137.128 124.463 137.228 122.913 137.338C119.993 137.538 119.963 142.118 122.913 141.918C133.613 141.178 144.313 140.438 155.013 139.698C157.933 139.498 157.963 134.918 155.013 135.118C153.593 135.218 152.183 135.318 150.763 135.408C150.433 134.338 149.423 133.408 148.013 133.668C140.933 134.938 134.003 134.368 127.173 132.138C124.363 131.208 123.153 135.628 125.953 136.548Z" fill="#F76149"/>
<path d="M125.732 70.018C125.902 75.968 126.702 81.8681 128.202 87.5981C126.682 87.4281 125.062 88.538 125.782 90.318C128.922 98.048 132.402 105.598 136.282 112.988C137.652 115.598 141.612 113.288 140.242 110.678C138.982 108.268 137.772 105.838 136.582 103.398C136.592 103.398 136.592 103.408 136.602 103.408C136.682 103.518 136.762 103.618 136.862 103.728C138.292 105.148 139.732 106.568 141.162 107.988C143.312 110.128 146.172 107.008 144.402 104.748C143.802 103.988 143.262 103.198 142.742 102.388C143.242 101.088 142.452 99.338 140.932 99.178C139.072 95.388 137.972 91.2681 137.702 86.9781C137.522 84.0481 132.932 84.0281 133.122 86.9781C133.162 87.6081 133.212 88.2281 133.282 88.8481C132.932 87.6981 132.612 86.548 132.332 85.388C131.072 80.348 130.462 75.2281 130.312 70.0281C130.222 67.0781 125.642 67.068 125.732 70.018Z" fill="#F76149"/>
<path d="M107.623 34.6477C102.673 40.6977 97.1628 46.1877 91.0928 51.1177C88.8028 52.9777 92.0628 56.1977 94.3328 54.3577C96.3228 52.7377 98.2428 51.0477 100.123 49.3077C100.003 49.4177 99.8828 49.5377 99.7628 49.6477C99.4628 49.9377 99.2728 50.2477 99.1728 50.5577C97.2428 52.9177 95.2028 55.1877 93.2628 57.4677C91.3628 59.6977 94.5928 62.9577 96.5028 60.7077C98.8228 57.9777 101.233 55.2777 103.463 52.4577C107.653 48.6077 114.503 43.8877 114.063 37.6277C113.953 35.9977 112.473 35.2677 111.223 35.4577C110.653 34.0477 108.853 33.1577 107.623 34.6477Z" fill="#F76149"/>
<path d="M161.152 201.848C160.382 202.178 160.072 202.838 160.052 203.538C158.592 204.258 158.282 206.198 159.492 207.288C157.112 207.478 156.412 211.298 159.002 211.768C164.682 212.808 170.372 213.848 176.052 214.888C178.472 215.328 179.722 212.298 178.342 210.998C178.402 210.098 177.962 209.208 176.882 208.878C177.572 208.468 177.882 207.638 177.842 206.818C179.342 206.148 180.042 203.798 178.192 202.728C172.802 199.648 166.822 199.448 161.152 201.848Z" fill="#F76149"/>
<path d="M158.102 170.978C156.202 171.968 156.902 174.308 158.422 175.008C157.782 175.538 157.242 176.158 156.922 176.968C155.642 180.208 159.992 184.018 162.542 180.958C163.422 179.898 163.172 178.618 162.462 177.788C163.102 177.408 163.752 177.038 164.392 176.668C165.892 175.798 167.382 174.928 168.882 174.058C170.472 173.138 170.242 171.068 168.882 170.098C165.532 167.718 161.382 169.278 158.102 170.978Z" fill="#F76149"/>
<path d="M115.482 154.018C111.702 155.398 107.882 156.658 104.022 157.788C101.732 158.458 101.952 161.868 104.162 162.248C104.102 162.368 104.042 162.488 104.002 162.608C103.432 162.718 102.812 162.688 102.172 162.478C99.372 161.538 98.172 165.958 100.952 166.898C103.822 167.858 107.122 166.938 109.162 164.768C111.592 163.898 113.972 162.908 116.302 161.788C117.722 161.108 117.682 159.388 116.842 158.348C119.382 157.248 118.192 153.028 115.482 154.018Z" fill="#F76149"/>
<path d="M183.583 129.238C183.843 129.908 184.123 130.558 184.423 131.198C182.943 130.338 181.453 129.488 179.953 128.658C177.843 127.488 175.873 129.778 176.823 131.788C178.433 135.228 182.333 137.038 185.353 139.058C188.933 141.448 192.503 143.838 196.083 146.228C196.763 147.218 197.473 147.588 198.803 147.588C201.123 147.588 201.763 144.668 200.063 143.398C200.483 142.448 200.343 141.238 199.233 140.488C198.463 139.968 197.673 139.458 196.903 138.948C194.343 137.128 192.083 134.978 190.333 132.418C191.103 132.658 191.873 132.888 192.633 133.128C195.453 133.998 196.663 129.578 193.853 128.708C191.373 127.948 188.883 127.188 186.403 126.418C184.833 125.938 182.953 127.588 183.583 129.238Z" fill="#F76149"/>
<path d="M162.872 83.8678C163.762 86.8878 163.782 89.5478 162.932 92.5578C162.472 94.2078 164.072 95.7478 165.622 95.4178C166.342 98.8478 166.022 102.198 164.452 105.598C163.222 108.258 167.172 110.588 168.412 107.908C170.902 102.518 171.292 96.9878 169.242 91.3878C169.022 90.7778 168.572 90.2778 168.042 89.9778C168.252 87.5378 168.012 85.1178 167.292 82.6478C166.462 79.8278 162.032 81.0278 162.872 83.8678Z" fill="#F76149"/>
<path d="M148.742 46.5279C147.302 46.7379 145.862 46.9679 144.432 47.2279C142.072 47.6579 142.442 51.0079 144.432 51.6479C146.852 52.4179 149.322 52.8079 151.812 53.0379C149.392 53.1979 146.962 53.2879 144.512 53.2879C141.562 53.2879 141.562 57.8679 144.512 57.8679C153.292 57.8579 161.942 56.8579 170.492 54.8879C172.752 54.3679 172.582 51.0779 170.492 50.4679C169.002 50.0279 167.492 49.7379 165.972 49.5279C167.462 48.4179 166.992 45.4679 164.612 45.3679L150.912 44.7579C149.632 44.6979 148.902 45.5479 148.742 46.5279Z" fill="#F76149"/>
<path d="M107.392 211.678C107.132 211.668 106.872 211.678 106.602 211.668C105.922 211.648 105.412 211.868 105.042 212.208L103.232 212.068C100.292 211.848 100.302 216.428 103.232 216.648L127.772 218.518C130.542 218.728 130.652 214.818 128.302 214.048C128.462 212.918 127.922 211.668 126.692 211.458C121.202 210.558 115.712 209.658 110.222 208.748C108.322 208.458 107.142 210.268 107.392 211.678Z" fill="#F76149"/>
<path d="M13.8624 9.41767C14.2624 10.3877 14.6924 11.3277 15.1424 12.2577C14.6224 11.9177 14.1024 11.5777 13.5824 11.2377C11.3824 9.80768 8.96236 13.0277 10.8024 14.8377C15.1324 19.0777 19.1823 23.5777 22.8723 28.3877C24.2823 30.2177 27.0823 29.1477 27.2623 27.4577C28.1623 28.1777 29.0924 28.8677 30.0524 29.5277C32.2424 31.0277 34.6124 27.7477 32.8324 25.9277C30.4724 23.5377 27.9323 21.3777 25.2923 19.3377C22.3523 16.0677 19.9723 12.3177 18.2723 8.18769C17.1823 5.50769 12.7424 6.68767 13.8624 9.41767Z" fill="#F76149"/>
<path d="M72.2921 5.94808C70.6021 6.13808 69.0521 6.45809 67.5321 6.95809C66.9021 6.31809 65.9421 6.06808 64.9721 6.75808C62.7421 8.31808 60.4121 9.59807 57.9721 10.6281C57.9421 10.6281 57.9221 10.6281 57.8921 10.6281C55.5221 10.8281 53.4021 11.4781 51.4221 12.8281C49.3121 14.2681 50.5821 17.6281 53.1821 17.0181C55.6821 16.4281 58.0921 15.6081 60.4121 14.5881C59.3921 15.1981 58.3521 15.7981 57.2821 16.3481C56.9521 16.5181 56.7221 16.7481 56.5421 17.0081C54.3421 18.1181 52.1521 19.2281 49.9521 20.3381C47.6721 21.4881 49.2621 25.4281 51.7121 24.5281C52.9321 24.0781 54.1321 23.5981 55.3221 23.0881C55.7021 24.4481 57.0821 25.4481 58.4921 24.3781C61.2321 22.3081 63.7321 20.0581 66.0521 17.5481C68.1621 16.5281 70.2321 15.4181 72.2621 14.1981C73.6621 13.3581 73.6121 11.8481 72.8521 10.8781C73.2021 10.5481 73.5521 10.2181 73.9021 9.87807C75.2221 8.57807 74.3421 5.72808 72.2921 5.94808Z" fill="#F76149"/>
<path d="M100.052 11.7777C99.0022 14.6077 96.9422 16.8277 94.3222 18.2677C91.7322 19.6877 94.0422 23.6377 96.6322 22.2277C96.7122 22.1877 96.7921 22.1277 96.8721 22.0877C97.3321 23.7677 99.9321 24.6776 101.092 22.7376C102.182 20.9176 103.262 19.0977 104.352 17.2677C105.012 16.1577 104.632 15.0977 103.872 14.4677C104.092 13.9977 104.302 13.5076 104.482 13.0076C105.492 10.2276 101.072 9.03766 100.052 11.7777Z" fill="#F76149"/>
<path d="M119.893 2.52795C118.173 2.94795 117.733 5.14791 118.883 6.35791C126.153 14.0279 135.353 19.2479 145.683 21.5179C147.503 21.9179 148.663 20.2879 148.533 18.8779C149.233 17.8379 149.213 16.2379 147.913 15.5179C144.563 13.6679 141.213 11.818 137.863 9.96796C136.413 8.82796 135.043 7.57794 133.733 6.19794C132.793 5.20794 131.603 5.36796 130.793 6.03796C127.423 4.04796 123.893 1.55795 119.893 2.52795Z" fill="#F76149"/>
<path d="M163.273 3.36787C164.193 5.50787 165.593 7.20787 167.263 8.61787C170.163 12.4379 173.073 16.2679 175.973 20.0879C176.763 21.1279 178.553 21.8379 179.573 20.5479C180.833 18.9679 180.893 17.4479 179.533 15.9079C179.053 15.3679 178.493 15.1579 177.953 15.1779C177.573 14.6779 177.203 14.1879 176.823 13.6879C178.283 13.7279 179.553 12.5679 179.163 10.8779C179.023 10.2679 178.883 9.65786 178.733 9.04786C178.283 7.09786 176.103 7.03791 174.953 8.09791C173.343 7.31791 171.793 6.43788 170.463 5.31788C169.383 3.89788 168.303 2.47787 167.233 1.05787C165.443 -1.30213 162.103 0.647868 163.273 3.36787Z" fill="#F76149"/>
</svg>
