<svg width="20" height="11" viewBox="0 0 20 11" fill="none" xmlns="http://www.w3.org/2000/svg">
<path d="M10.942 10.9068C10.942 10.9068 11.2885 10.869 11.466 10.6819C11.6284 10.5104 11.6228 10.1868 11.6228 10.1868C11.6228 10.1868 11.6012 8.67603 12.3159 8.45296C13.0202 8.23357 13.9245 9.914 14.8842 10.5602C15.6092 11.0487 16.1595 10.9418 16.1595 10.9418L18.7241 10.9068C18.7241 10.9068 20.0651 10.8257 19.4293 9.79048C19.3767 9.70568 19.0584 9.02447 17.523 7.62519C15.9144 6.16047 16.1304 6.39737 18.0667 3.86337C19.2462 2.32029 19.7176 1.37822 19.5702 0.975396C19.4303 0.590087 18.5626 0.692406 18.5626 0.692406L15.6759 0.70992C15.6759 0.70992 15.4617 0.681345 15.303 0.774445C15.1481 0.865703 15.0476 1.07864 15.0476 1.07864C15.0476 1.07864 14.5912 2.27236 13.9818 3.28817C12.6962 5.43041 12.1825 5.54379 11.9722 5.41105C11.4829 5.10041 11.605 4.16479 11.605 3.50018C11.605 1.42339 11.9261 0.557825 10.9805 0.333829C10.6668 0.259164 10.4358 0.21031 9.63292 0.202013C8.60276 0.191874 7.7313 0.205701 7.23735 0.442601C6.90867 0.600227 6.65512 0.952351 6.81007 0.97263C7.0007 0.997519 7.43267 1.08693 7.66181 1.39297C7.95761 1.78842 7.94728 2.67518 7.94728 2.67518C7.94728 2.67518 8.11726 5.11977 7.55006 5.42304C7.16128 5.63136 6.62789 5.20641 5.48128 3.26236C4.89436 2.26682 4.45112 1.16621 4.45112 1.16621C4.45112 1.16621 4.36566 0.960647 4.21259 0.850032C4.0276 0.716373 3.76935 0.674892 3.76935 0.674892L1.02632 0.692406C1.02632 0.692406 0.614066 0.703467 0.462875 0.87953C0.328588 1.03531 0.452545 1.35886 0.452545 1.35886C0.452545 1.35886 2.6002 6.29136 5.0324 8.77743C7.2627 11.0561 9.79444 10.9068 9.79444 10.9068H10.942Z" fill="white"/>
</svg>
