<svg width="40" height="40" viewBox="0 0 40 40" fill="none" xmlns="http://www.w3.org/2000/svg">
<path fill-rule="evenodd" clip-rule="evenodd" d="M20 40C31.0457 40 40 31.0457 40 20C40 8.9543 31.0457 0 20 0C8.9543 0 0 8.9543 0 20C0 31.0457 8.9543 40 20 40ZM29.6 18.2308V20.3923C31.032 21.1923 32 22.6769 32 24.3846C32 26.9308 29.848 29 27.2 29H26.4C25.96 29 25.6 28.6538 25.6 28.2308V20.5385C25.6 20.1154 25.96 19.7692 26.4 19.7692H27.2C27.472 19.7692 27.736 19.8 28 19.8385V18.2308C28 13.9923 24.408 10.5385 20 10.5385C15.592 10.5385 12 13.9923 12 18.2308V19.8385C12.264 19.8 12.528 19.7692 12.8 19.7692H13.6C14.04 19.7692 14.4 20.1154 14.4 20.5385V28.2308C14.4 28.6538 14.04 29 13.6 29H12.8C10.152 29 8 26.9308 8 24.3846C8 22.6769 8.968 21.1923 10.4 20.3923V18.2308C10.4 13.1385 14.704 9 20 9C25.296 9 29.6 13.1385 29.6 18.2308Z" fill="white"/>
</svg>
